/**
 * EGMD Drum Cards
 * Auto-generated from pattern_library_CORE.json
 * Generated: 2026-02-27T17:23:06.497Z
 */

import {
  Card,
  CardCategory,
  CardScope,
  CardDurationType,
  TimeCardType,
} from '../types/card';

export const egmdDrumCards: Card[] = [
  {
    id: 'egmd_kick_kick_146_latin-brazilian-baiao_95_beat_4-4_1',
    name: 'Kick',
    category: CardCategory.TIME,
    scope: CardScope.LOCAL,
    timeType: TimeCardType.DRUM_GROOVE,
    durationType: CardDurationType.INSTANCE,
    lengthBeats: 16,
    repeatCount: 2,
    timeMusicData: {
        "meter": "4/4",
        "tempoBPM": 120
    },
    midiClip: {
        "notes": [
            {
                "pitch": 36,
                "velocity": 58,
                "startTime": 0.9193370165745857,
                "duration": 0.1
            },
            {
                "pitch": 36,
                "velocity": 64,
                "startTime": 1.0961325966850828,
                "duration": 0.1
            },
            {
                "pitch": 36,
                "velocity": 44,
                "startTime": 1.3966850828729283,
                "duration": 0.1
            },
            {
                "pitch": 36,
                "velocity": 49,
                "startTime": 1.5734806629834255,
                "duration": 0.1
            },
            {
                "pitch": 36,
                "velocity": 48,
                "startTime": 1.8740331491712707,
                "duration": 0.1
            },
            {
                "pitch": 36,
                "velocity": 44,
                "startTime": 2.0331491712707184,
                "duration": 0.1
            },
            {
                "pitch": 36,
                "velocity": 41,
                "startTime": 2.3337016574585636,
                "duration": 0.1
            },
            {
                "pitch": 36,
                "velocity": 43,
                "startTime": 2.4928176795580113,
                "duration": 0.1
            },
            {
                "pitch": 36,
                "velocity": 48,
                "startTime": 2.7933701657458565,
                "duration": 0.1
            },
            {
                "pitch": 36,
                "velocity": 53,
                "startTime": 2.9701657458563533,
                "duration": 0.1
            },
            {
                "pitch": 36,
                "velocity": 54,
                "startTime": 3.2530386740331494,
                "duration": 0.1
            },
            {
                "pitch": 36,
                "velocity": 48,
                "startTime": 3.4298342541436466,
                "duration": 0.1
            },
            {
                "pitch": 36,
                "velocity": 44,
                "startTime": 3.7127071823204423,
                "duration": 0.1
            },
            {
                "pitch": 36,
                "velocity": 50,
                "startTime": 3.889502762430939,
                "duration": 0.1
            },
            {
                "pitch": 36,
                "velocity": 45,
                "startTime": 4.190055248618784,
                "duration": 0.1
            },
            {
                "pitch": 36,
                "velocity": 46,
                "startTime": 4.366850828729282,
                "duration": 0.1
            },
            {
                "pitch": 36,
                "velocity": 46,
                "startTime": 4.649723756906077,
                "duration": 0.1
            },
            {
                "pitch": 36,
                "velocity": 46,
                "startTime": 4.826519337016575,
                "duration": 0.1
            },
            {
                "pitch": 36,
                "velocity": 46,
                "startTime": 5.12707182320442,
                "duration": 0.1
            },
            {
                "pitch": 36,
                "velocity": 53,
                "startTime": 5.286187845303868,
                "duration": 0.1
            },
            {
                "pitch": 36,
                "velocity": 61,
                "startTime": 5.586740331491713,
                "duration": 0.1
            },
            {
                "pitch": 36,
                "velocity": 58,
                "startTime": 5.76353591160221,
                "duration": 0.1
            },
            {
                "pitch": 36,
                "velocity": 53,
                "startTime": 6.046408839779006,
                "duration": 0.1
            },
            {
                "pitch": 36,
                "velocity": 53,
                "startTime": 6.223204419889504,
                "duration": 0.1
            },
            {
                "pitch": 36,
                "velocity": 55,
                "startTime": 6.48839779005525,
                "duration": 0.1
            },
            {
                "pitch": 36,
                "velocity": 53,
                "startTime": 6.682872928176796,
                "duration": 0.1
            },
            {
                "pitch": 36,
                "velocity": 52,
                "startTime": 6.983425414364641,
                "duration": 0.1
            },
            {
                "pitch": 36,
                "velocity": 46,
                "startTime": 7.1602209944751385,
                "duration": 0.1
            },
            {
                "pitch": 36,
                "velocity": 51,
                "startTime": 7.443093922651934,
                "duration": 0.1
            },
            {
                "pitch": 36,
                "velocity": 52,
                "startTime": 7.619889502762431,
                "duration": 0.1
            },
            {
                "pitch": 36,
                "velocity": 55,
                "startTime": 7.902762430939226,
                "duration": 0.1
            },
            {
                "pitch": 36,
                "velocity": 60,
                "startTime": 8.36243093922652,
                "duration": 0.1
            },
            {
                "pitch": 36,
                "velocity": 55,
                "startTime": 8.556906077348065,
                "duration": 0.1
            },
            {
                "pitch": 36,
                "velocity": 55,
                "startTime": 8.822099447513812,
                "duration": 0.1
            },
            {
                "pitch": 36,
                "velocity": 53,
                "startTime": 8.99889502762431,
                "duration": 0.1
            },
            {
                "pitch": 36,
                "velocity": 54,
                "startTime": 9.299447513812154,
                "duration": 0.1
            },
            {
                "pitch": 36,
                "velocity": 56,
                "startTime": 9.476243093922653,
                "duration": 0.1
            },
            {
                "pitch": 36,
                "velocity": 50,
                "startTime": 9.759116022099448,
                "duration": 0.1
            },
            {
                "pitch": 36,
                "velocity": 52,
                "startTime": 9.935911602209945,
                "duration": 0.1
            },
            {
                "pitch": 36,
                "velocity": 54,
                "startTime": 10.23646408839779,
                "duration": 0.1
            },
            {
                "pitch": 36,
                "velocity": 56,
                "startTime": 10.413259668508287,
                "duration": 0.1
            },
            {
                "pitch": 36,
                "velocity": 48,
                "startTime": 10.696132596685082,
                "duration": 0.1
            },
            {
                "pitch": 36,
                "velocity": 50,
                "startTime": 10.87292817679558,
                "duration": 0.1
            },
            {
                "pitch": 36,
                "velocity": 51,
                "startTime": 11.155801104972376,
                "duration": 0.1
            },
            {
                "pitch": 36,
                "velocity": 55,
                "startTime": 11.332596685082875,
                "duration": 0.1
            },
            {
                "pitch": 36,
                "velocity": 50,
                "startTime": 11.633149171270718,
                "duration": 0.1
            },
            {
                "pitch": 36,
                "velocity": 46,
                "startTime": 11.809944751381215,
                "duration": 0.1
            },
            {
                "pitch": 36,
                "velocity": 57,
                "startTime": 12.110497237569062,
                "duration": 0.1
            },
            {
                "pitch": 36,
                "velocity": 53,
                "startTime": 12.269613259668509,
                "duration": 0.1
            },
            {
                "pitch": 36,
                "velocity": 53,
                "startTime": 12.552486187845304,
                "duration": 0.1
            },
            {
                "pitch": 36,
                "velocity": 48,
                "startTime": 12.7292817679558,
                "duration": 0.1
            },
            {
                "pitch": 36,
                "velocity": 50,
                "startTime": 12.994475138121546,
                "duration": 0.1
            },
            {
                "pitch": 36,
                "velocity": 55,
                "startTime": 13.188950276243094,
                "duration": 0.1
            },
            {
                "pitch": 36,
                "velocity": 55,
                "startTime": 13.489502762430941,
                "duration": 0.1
            },
            {
                "pitch": 36,
                "velocity": 54,
                "startTime": 13.666298342541436,
                "duration": 0.1
            },
            {
                "pitch": 36,
                "velocity": 54,
                "startTime": 13.949171270718232,
                "duration": 0.1
            },
            {
                "pitch": 36,
                "velocity": 54,
                "startTime": 14.14364640883978,
                "duration": 0.1
            },
            {
                "pitch": 36,
                "velocity": 49,
                "startTime": 14.408839779005525,
                "duration": 0.1
            },
            {
                "pitch": 36,
                "velocity": 50,
                "startTime": 14.585635359116024,
                "duration": 0.1
            },
            {
                "pitch": 36,
                "velocity": 49,
                "startTime": 14.886187845303867,
                "duration": 0.1
            },
            {
                "pitch": 36,
                "velocity": 57,
                "startTime": 15.062983425414364,
                "duration": 0.1
            },
            {
                "pitch": 36,
                "velocity": 52,
                "startTime": 15.239779005524863,
                "duration": 0.1
            },
            {
                "pitch": 36,
                "velocity": 61,
                "startTime": 15.823204419889503,
                "duration": 0.1
            },
            {
                "pitch": 36,
                "velocity": 55,
                "startTime": 16,
                "duration": 0.1
            }
        ],
        "tempo": 120,
        "timeSignature": [
            4,
            4
        ],
        "lengthInBeats": 16
    },
    description: `Kick pattern from 146_latin-brazilian-baiao_95_beat_4-4_1.midi`,
    tags: ["drum","kick","generic","beat","straight"],
    source: 'EGMD Dataset (146_latin-brazilian-baiao_95_beat_4-4_1.midi)',
    metadata: {
        "complexity": 0.5,
        "density": 1
    },
  },
  {
    id: 'egmd_kick_kick_14_rock_94_beat_4-4_1',
    name: 'Kick',
    category: CardCategory.TIME,
    scope: CardScope.LOCAL,
    timeType: TimeCardType.DRUM_GROOVE,
    durationType: CardDurationType.INSTANCE,
    lengthBeats: 16,
    repeatCount: 2,
    timeMusicData: {
        "meter": "4/4",
        "tempoBPM": 120
    },
    midiClip: {
        "notes": [
            {
                "pitch": 36,
                "velocity": 127,
                "startTime": 0,
                "duration": 0.1
            },
            {
                "pitch": 36,
                "velocity": 127,
                "startTime": 0.10758885686839578,
                "duration": 0.1
            },
            {
                "pitch": 36,
                "velocity": 127,
                "startTime": 0.41498559077809805,
                "duration": 0.1
            },
            {
                "pitch": 36,
                "velocity": 127,
                "startTime": 0.5225744476464937,
                "duration": 0.1
            },
            {
                "pitch": 36,
                "velocity": 127,
                "startTime": 0.8299711815561961,
                "duration": 0.1
            },
            {
                "pitch": 36,
                "velocity": 127,
                "startTime": 0.9221902017291067,
                "duration": 0.1
            },
            {
                "pitch": 36,
                "velocity": 127,
                "startTime": 1.2142170989433239,
                "duration": 0.1
            },
            {
                "pitch": 36,
                "velocity": 127,
                "startTime": 1.3218059558117194,
                "duration": 0.1
            },
            {
                "pitch": 36,
                "velocity": 127,
                "startTime": 1.6292026897214218,
                "duration": 0.1
            },
            {
                "pitch": 36,
                "velocity": 127,
                "startTime": 1.7367915465898174,
                "duration": 0.1
            },
            {
                "pitch": 36,
                "velocity": 127,
                "startTime": 2.0441882804995197,
                "duration": 0.1
            },
            {
                "pitch": 36,
                "velocity": 127,
                "startTime": 2.1517771373679158,
                "duration": 0.1
            },
            {
                "pitch": 36,
                "velocity": 127,
                "startTime": 2.459173871277618,
                "duration": 0.1
            },
            {
                "pitch": 36,
                "velocity": 127,
                "startTime": 2.5513928914505284,
                "duration": 0.1
            },
            {
                "pitch": 36,
                "velocity": 127,
                "startTime": 2.8587896253602305,
                "duration": 0.1
            },
            {
                "pitch": 36,
                "velocity": 118,
                "startTime": 2.951008645533141,
                "duration": 0.1
            },
            {
                "pitch": 36,
                "velocity": 127,
                "startTime": 3.2584053794428436,
                "duration": 0.1
            },
            {
                "pitch": 36,
                "velocity": 127,
                "startTime": 3.365994236311239,
                "duration": 0.1
            },
            {
                "pitch": 36,
                "velocity": 127,
                "startTime": 3.6733909702209417,
                "duration": 0.1
            },
            {
                "pitch": 36,
                "velocity": 126,
                "startTime": 3.7656099903938522,
                "duration": 0.1
            },
            {
                "pitch": 36,
                "velocity": 127,
                "startTime": 4.0883765609990395,
                "duration": 0.1
            },
            {
                "pitch": 36,
                "velocity": 127,
                "startTime": 4.18059558117195,
                "duration": 0.1
            },
            {
                "pitch": 36,
                "velocity": 127,
                "startTime": 4.4879923150816525,
                "duration": 0.1
            },
            {
                "pitch": 36,
                "velocity": 127,
                "startTime": 4.595581171950048,
                "duration": 0.1
            },
            {
                "pitch": 36,
                "velocity": 127,
                "startTime": 4.90297790585975,
                "duration": 0.1
            },
            {
                "pitch": 36,
                "velocity": 127,
                "startTime": 4.995196926032661,
                "duration": 0.1
            },
            {
                "pitch": 36,
                "velocity": 127,
                "startTime": 5.302593659942364,
                "duration": 0.1
            },
            {
                "pitch": 36,
                "velocity": 115,
                "startTime": 5.410182516810759,
                "duration": 0.1
            },
            {
                "pitch": 36,
                "velocity": 127,
                "startTime": 5.717579250720461,
                "duration": 0.1
            },
            {
                "pitch": 36,
                "velocity": 127,
                "startTime": 5.8251681075888575,
                "duration": 0.1
            },
            {
                "pitch": 36,
                "velocity": 125,
                "startTime": 6.132564841498559,
                "duration": 0.1
            },
            {
                "pitch": 36,
                "velocity": 127,
                "startTime": 6.532180595581172,
                "duration": 0.1
            },
            {
                "pitch": 36,
                "velocity": 127,
                "startTime": 6.639769452449569,
                "duration": 0.1
            },
            {
                "pitch": 36,
                "velocity": 127,
                "startTime": 6.9471661863592695,
                "duration": 0.1
            },
            {
                "pitch": 36,
                "velocity": 125,
                "startTime": 7.054755043227667,
                "duration": 0.1
            },
            {
                "pitch": 36,
                "velocity": 127,
                "startTime": 7.362151777137368,
                "duration": 0.1
            },
            {
                "pitch": 36,
                "velocity": 122,
                "startTime": 7.454370797310279,
                "duration": 0.1
            },
            {
                "pitch": 36,
                "velocity": 127,
                "startTime": 7.761767531219982,
                "duration": 0.1
            },
            {
                "pitch": 36,
                "velocity": 127,
                "startTime": 7.853986551392891,
                "duration": 0.1
            },
            {
                "pitch": 36,
                "velocity": 127,
                "startTime": 8.176753121998079,
                "duration": 0.1
            },
            {
                "pitch": 36,
                "velocity": 127,
                "startTime": 8.284341978866475,
                "duration": 0.1
            },
            {
                "pitch": 36,
                "velocity": 127,
                "startTime": 8.576368876080693,
                "duration": 0.1
            },
            {
                "pitch": 36,
                "velocity": 127,
                "startTime": 8.683957732949088,
                "duration": 0.1
            },
            {
                "pitch": 36,
                "velocity": 127,
                "startTime": 8.991354466858791,
                "duration": 0.1
            },
            {
                "pitch": 36,
                "velocity": 127,
                "startTime": 9.0835734870317,
                "duration": 0.1
            },
            {
                "pitch": 36,
                "velocity": 127,
                "startTime": 9.390970220941403,
                "duration": 0.1
            },
            {
                "pitch": 36,
                "velocity": 127,
                "startTime": 9.498559077809798,
                "duration": 0.1
            },
            {
                "pitch": 36,
                "velocity": 127,
                "startTime": 9.8059558117195,
                "duration": 0.1
            },
            {
                "pitch": 36,
                "velocity": 127,
                "startTime": 10.2209414024976,
                "duration": 0.1
            },
            {
                "pitch": 36,
                "velocity": 127,
                "startTime": 10.620557156580212,
                "duration": 0.1
            },
            {
                "pitch": 36,
                "velocity": 127,
                "startTime": 11.020172910662824,
                "duration": 0.1
            },
            {
                "pitch": 36,
                "velocity": 127,
                "startTime": 11.450528338136408,
                "duration": 0.1
            },
            {
                "pitch": 36,
                "velocity": 127,
                "startTime": 11.85014409221902,
                "duration": 0.1
            },
            {
                "pitch": 36,
                "velocity": 127,
                "startTime": 12.265129682997118,
                "duration": 0.1
            },
            {
                "pitch": 36,
                "velocity": 116,
                "startTime": 12.649375600384246,
                "duration": 0.1
            },
            {
                "pitch": 36,
                "velocity": 127,
                "startTime": 13.079731027857829,
                "duration": 0.1
            },
            {
                "pitch": 36,
                "velocity": 127,
                "startTime": 13.479346781940443,
                "duration": 0.1
            },
            {
                "pitch": 36,
                "velocity": 127,
                "startTime": 13.894332372718539,
                "duration": 0.1
            },
            {
                "pitch": 36,
                "velocity": 127,
                "startTime": 14.293948126801153,
                "duration": 0.1
            },
            {
                "pitch": 36,
                "velocity": 127,
                "startTime": 14.70893371757925,
                "duration": 0.1
            },
            {
                "pitch": 36,
                "velocity": 127,
                "startTime": 15.108549471661863,
                "duration": 0.1
            },
            {
                "pitch": 36,
                "velocity": 127,
                "startTime": 15.523535062439963,
                "duration": 0.1
            },
            {
                "pitch": 36,
                "velocity": 111,
                "startTime": 15.923150816522575,
                "duration": 0.1
            },
            {
                "pitch": 36,
                "velocity": 6,
                "startTime": 16,
                "duration": 0.1
            }
        ],
        "tempo": 120,
        "timeSignature": [
            4,
            4
        ],
        "lengthInBeats": 16
    },
    description: `Kick pattern from 14_rock_94_beat_4-4_1.midi`,
    tags: ["drum","kick","generic","beat","straight"],
    source: 'EGMD Dataset (14_rock_94_beat_4-4_1.midi)',
    metadata: {
        "complexity": 0.5,
        "density": 1
    },
  },
  {
    id: 'egmd_kick_kick_1_rock_87_beat_4-4_1',
    name: 'Kick',
    category: CardCategory.TIME,
    scope: CardScope.LOCAL,
    timeType: TimeCardType.DRUM_GROOVE,
    durationType: CardDurationType.INSTANCE,
    lengthBeats: 16,
    repeatCount: 2,
    timeMusicData: {
        "meter": "4/4",
        "tempoBPM": 120
    },
    midiClip: {
        "notes": [
            {
                "pitch": 36,
                "velocity": 47,
                "startTime": 0.21230398069963813,
                "duration": 0.1
            },
            {
                "pitch": 36,
                "velocity": 54,
                "startTime": 0.6948130277442702,
                "duration": 0.1
            },
            {
                "pitch": 36,
                "velocity": 55,
                "startTime": 1.1966224366706875,
                "duration": 0.1
            },
            {
                "pitch": 36,
                "velocity": 54,
                "startTime": 1.3317249698431846,
                "duration": 0.1
            },
            {
                "pitch": 36,
                "velocity": 54,
                "startTime": 1.4668275030156817,
                "duration": 0.1
            },
            {
                "pitch": 36,
                "velocity": 50,
                "startTime": 1.6212303980699638,
                "duration": 0.1
            },
            {
                "pitch": 36,
                "velocity": 43,
                "startTime": 1.6598311218335344,
                "duration": 0.1
            },
            {
                "pitch": 36,
                "velocity": 60,
                "startTime": 1.7949336550060313,
                "duration": 0.1
            },
            {
                "pitch": 36,
                "velocity": 53,
                "startTime": 2.2002412545235224,
                "duration": 0.1
            },
            {
                "pitch": 36,
                "velocity": 53,
                "startTime": 2.431845597104946,
                "duration": 0.1
            },
            {
                "pitch": 36,
                "velocity": 55,
                "startTime": 2.856453558504222,
                "duration": 0.1
            },
            {
                "pitch": 36,
                "velocity": 46,
                "startTime": 2.914354644149578,
                "duration": 0.1
            },
            {
                "pitch": 36,
                "velocity": 53,
                "startTime": 3.1073582629674306,
                "duration": 0.1
            },
            {
                "pitch": 36,
                "velocity": 52,
                "startTime": 3.165259348612787,
                "duration": 0.1
            },
            {
                "pitch": 36,
                "velocity": 53,
                "startTime": 3.39686369119421,
                "duration": 0.1
            },
            {
                "pitch": 36,
                "velocity": 50,
                "startTime": 3.4354644149577807,
                "duration": 0.1
            },
            {
                "pitch": 36,
                "velocity": 28,
                "startTime": 3.686369119420989,
                "duration": 0.1
            },
            {
                "pitch": 36,
                "velocity": 46,
                "startTime": 3.72496984318456,
                "duration": 0.1
            },
            {
                "pitch": 36,
                "velocity": 127,
                "startTime": 3.860072376357057,
                "duration": 0.1
            },
            {
                "pitch": 36,
                "velocity": 43,
                "startTime": 4.361881785283474,
                "duration": 0.1
            },
            {
                "pitch": 36,
                "velocity": 54,
                "startTime": 4.651387213510254,
                "duration": 0.1
            },
            {
                "pitch": 36,
                "velocity": 50,
                "startTime": 4.979493365500603,
                "duration": 0.1
            },
            {
                "pitch": 36,
                "velocity": 52,
                "startTime": 5.1145958986731,
                "duration": 0.1
            },
            {
                "pitch": 36,
                "velocity": 71,
                "startTime": 5.616405307599518,
                "duration": 0.1
            },
            {
                "pitch": 36,
                "velocity": 50,
                "startTime": 6.041013268998794,
                "duration": 0.1
            },
            {
                "pitch": 36,
                "velocity": 40,
                "startTime": 6.079613992762365,
                "duration": 0.1
            },
            {
                "pitch": 36,
                "velocity": 51,
                "startTime": 6.234016887816647,
                "duration": 0.1
            },
            {
                "pitch": 36,
                "velocity": 49,
                "startTime": 6.600723763570567,
                "duration": 0.1
            },
            {
                "pitch": 36,
                "velocity": 8,
                "startTime": 6.639324487334138,
                "duration": 0.1
            },
            {
                "pitch": 36,
                "velocity": 50,
                "startTime": 6.890229191797347,
                "duration": 0.1
            },
            {
                "pitch": 36,
                "velocity": 49,
                "startTime": 7.141133896260555,
                "duration": 0.1
            },
            {
                "pitch": 36,
                "velocity": 35,
                "startTime": 7.218335343787697,
                "duration": 0.1
            },
            {
                "pitch": 36,
                "velocity": 52,
                "startTime": 7.353437876960194,
                "duration": 0.1
            },
            {
                "pitch": 36,
                "velocity": 41,
                "startTime": 7.700844390832328,
                "duration": 0.1
            },
            {
                "pitch": 36,
                "velocity": 40,
                "startTime": 7.758745476477684,
                "duration": 0.1
            },
            {
                "pitch": 36,
                "velocity": 45,
                "startTime": 7.990349819059108,
                "duration": 0.1
            },
            {
                "pitch": 36,
                "velocity": 39,
                "startTime": 8.048250904704464,
                "duration": 0.1
            },
            {
                "pitch": 36,
                "velocity": 53,
                "startTime": 9.20627261761158,
                "duration": 0.1
            },
            {
                "pitch": 36,
                "velocity": 52,
                "startTime": 9.341375150784078,
                "duration": 0.1
            },
            {
                "pitch": 36,
                "velocity": 127,
                "startTime": 9.399276236429433,
                "duration": 0.1
            },
            {
                "pitch": 36,
                "velocity": 52,
                "startTime": 9.920386007237637,
                "duration": 0.1
            },
            {
                "pitch": 36,
                "velocity": 51,
                "startTime": 10.209891435464415,
                "duration": 0.1
            },
            {
                "pitch": 36,
                "velocity": 50,
                "startTime": 10.48009650180941,
                "duration": 0.1
            },
            {
                "pitch": 36,
                "velocity": 31,
                "startTime": 10.51869722557298,
                "duration": 0.1
            },
            {
                "pitch": 36,
                "velocity": 50,
                "startTime": 10.653799758745476,
                "duration": 0.1
            },
            {
                "pitch": 36,
                "velocity": 45,
                "startTime": 11.21351025331725,
                "duration": 0.1
            },
            {
                "pitch": 36,
                "velocity": 43,
                "startTime": 11.290711700844392,
                "duration": 0.1
            },
            {
                "pitch": 36,
                "velocity": 43,
                "startTime": 11.580217129071169,
                "duration": 0.1
            },
            {
                "pitch": 36,
                "velocity": 34,
                "startTime": 11.61881785283474,
                "duration": 0.1
            },
            {
                "pitch": 36,
                "velocity": 50,
                "startTime": 11.753920386007238,
                "duration": 0.1
            },
            {
                "pitch": 36,
                "velocity": 41,
                "startTime": 12.120627261761157,
                "duration": 0.1
            },
            {
                "pitch": 36,
                "velocity": 44,
                "startTime": 12.178528347406514,
                "duration": 0.1
            },
            {
                "pitch": 36,
                "velocity": 51,
                "startTime": 12.410132689987936,
                "duration": 0.1
            },
            {
                "pitch": 36,
                "velocity": 10,
                "startTime": 13.70325693606755,
                "duration": 0.1
            },
            {
                "pitch": 36,
                "velocity": 127,
                "startTime": 13.722557297949336,
                "duration": 0.1
            },
            {
                "pitch": 36,
                "velocity": 7,
                "startTime": 13.857659831121834,
                "duration": 0.1
            },
            {
                "pitch": 36,
                "velocity": 127,
                "startTime": 13.857659831121834,
                "duration": 0.1
            },
            {
                "pitch": 36,
                "velocity": 45,
                "startTime": 14.378769601930037,
                "duration": 0.1
            },
            {
                "pitch": 36,
                "velocity": 42,
                "startTime": 14.436670687575393,
                "duration": 0.1
            },
            {
                "pitch": 36,
                "velocity": 50,
                "startTime": 14.648974668275029,
                "duration": 0.1
            },
            {
                "pitch": 36,
                "velocity": 50,
                "startTime": 14.919179734620023,
                "duration": 0.1
            },
            {
                "pitch": 36,
                "velocity": 21,
                "startTime": 14.957780458383596,
                "duration": 0.1
            },
            {
                "pitch": 36,
                "velocity": 48,
                "startTime": 15.092882991556094,
                "duration": 0.1
            },
            {
                "pitch": 36,
                "velocity": 24,
                "startTime": 16,
                "duration": 0.1
            }
        ],
        "tempo": 120,
        "timeSignature": [
            4,
            4
        ],
        "lengthInBeats": 16
    },
    description: `Kick pattern from 1_rock_87_beat_4-4_1.midi`,
    tags: ["drum","kick","generic","beat","straight"],
    source: 'EGMD Dataset (1_rock_87_beat_4-4_1.midi)',
    metadata: {
        "complexity": 0.5,
        "density": 1
    },
  },
  {
    id: 'egmd_kick_kick_7_latin-brazilian-maracatu_96_beat_4-4_18',
    name: 'Kick',
    category: CardCategory.TIME,
    scope: CardScope.LOCAL,
    timeType: TimeCardType.DRUM_GROOVE,
    durationType: CardDurationType.INSTANCE,
    lengthBeats: 16,
    repeatCount: 2,
    timeMusicData: {
        "meter": "4/4",
        "tempoBPM": 120
    },
    midiClip: {
        "notes": [
            {
                "pitch": 36,
                "velocity": 40,
                "startTime": 0.020408163265306124,
                "duration": 0.1
            },
            {
                "pitch": 36,
                "velocity": 29,
                "startTime": 0.5918367346938775,
                "duration": 0.1
            },
            {
                "pitch": 36,
                "velocity": 31,
                "startTime": 0.8571428571428571,
                "duration": 0.1
            },
            {
                "pitch": 36,
                "velocity": 18,
                "startTime": 0.9795918367346939,
                "duration": 0.1
            },
            {
                "pitch": 36,
                "velocity": 41,
                "startTime": 1.0612244897959184,
                "duration": 0.1
            },
            {
                "pitch": 36,
                "velocity": 41,
                "startTime": 1.3265306122448979,
                "duration": 0.1
            },
            {
                "pitch": 36,
                "velocity": 39,
                "startTime": 1.4489795918367347,
                "duration": 0.1
            },
            {
                "pitch": 36,
                "velocity": 49,
                "startTime": 2.122448979591837,
                "duration": 0.1
            },
            {
                "pitch": 36,
                "velocity": 34,
                "startTime": 2.3877551020408165,
                "duration": 0.1
            },
            {
                "pitch": 36,
                "velocity": 43,
                "startTime": 2.5102040816326534,
                "duration": 0.1
            },
            {
                "pitch": 36,
                "velocity": 11,
                "startTime": 2.5306122448979593,
                "duration": 0.1
            },
            {
                "pitch": 36,
                "velocity": 26,
                "startTime": 2.7142857142857144,
                "duration": 0.1
            },
            {
                "pitch": 36,
                "velocity": 27,
                "startTime": 2.979591836734694,
                "duration": 0.1
            },
            {
                "pitch": 36,
                "velocity": 47,
                "startTime": 3.183673469387755,
                "duration": 0.1
            },
            {
                "pitch": 36,
                "velocity": 127,
                "startTime": 3.979591836734694,
                "duration": 0.1
            },
            {
                "pitch": 36,
                "velocity": 127,
                "startTime": 4.040816326530613,
                "duration": 0.1
            },
            {
                "pitch": 36,
                "velocity": 44,
                "startTime": 4.244897959183674,
                "duration": 0.1
            },
            {
                "pitch": 36,
                "velocity": 36,
                "startTime": 4.510204081632653,
                "duration": 0.1
            },
            {
                "pitch": 36,
                "velocity": 40,
                "startTime": 4.653061224489797,
                "duration": 0.1
            },
            {
                "pitch": 36,
                "velocity": 22,
                "startTime": 4.857142857142858,
                "duration": 0.1
            },
            {
                "pitch": 36,
                "velocity": 34,
                "startTime": 5.122448979591837,
                "duration": 0.1
            },
            {
                "pitch": 36,
                "velocity": 43,
                "startTime": 5.326530612244898,
                "duration": 0.1
            },
            {
                "pitch": 36,
                "velocity": 11,
                "startTime": 5.346938775510204,
                "duration": 0.1
            },
            {
                "pitch": 36,
                "velocity": 25,
                "startTime": 5.591836734693878,
                "duration": 0.1
            },
            {
                "pitch": 36,
                "velocity": 48,
                "startTime": 6.346938775510204,
                "duration": 0.1
            },
            {
                "pitch": 36,
                "velocity": 28,
                "startTime": 6.632653061224491,
                "duration": 0.1
            },
            {
                "pitch": 36,
                "velocity": 43,
                "startTime": 6.775510204081633,
                "duration": 0.1
            },
            {
                "pitch": 36,
                "velocity": 27,
                "startTime": 6.979591836734694,
                "duration": 0.1
            },
            {
                "pitch": 36,
                "velocity": 29,
                "startTime": 7.224489795918368,
                "duration": 0.1
            },
            {
                "pitch": 36,
                "velocity": 41,
                "startTime": 7.693877551020408,
                "duration": 0.1
            },
            {
                "pitch": 36,
                "velocity": 42,
                "startTime": 7.816326530612246,
                "duration": 0.1
            },
            {
                "pitch": 36,
                "velocity": 10,
                "startTime": 7.857142857142858,
                "duration": 0.1
            },
            {
                "pitch": 36,
                "velocity": 116,
                "startTime": 8.224489795918368,
                "duration": 0.1
            },
            {
                "pitch": 36,
                "velocity": 127,
                "startTime": 8.285714285714285,
                "duration": 0.1
            },
            {
                "pitch": 36,
                "velocity": 46,
                "startTime": 8.489795918367347,
                "duration": 0.1
            },
            {
                "pitch": 36,
                "velocity": 33,
                "startTime": 8.755102040816327,
                "duration": 0.1
            },
            {
                "pitch": 36,
                "velocity": 43,
                "startTime": 8.89795918367347,
                "duration": 0.1
            },
            {
                "pitch": 36,
                "velocity": 12,
                "startTime": 8.918367346938776,
                "duration": 0.1
            },
            {
                "pitch": 36,
                "velocity": 33,
                "startTime": 9.081632653061224,
                "duration": 0.1
            },
            {
                "pitch": 36,
                "velocity": 36,
                "startTime": 9.346938775510205,
                "duration": 0.1
            },
            {
                "pitch": 36,
                "velocity": 43,
                "startTime": 9.571428571428571,
                "duration": 0.1
            },
            {
                "pitch": 36,
                "velocity": 10,
                "startTime": 9.591836734693878,
                "duration": 0.1
            },
            {
                "pitch": 36,
                "velocity": 38,
                "startTime": 9.83673469387755,
                "duration": 0.1
            },
            {
                "pitch": 36,
                "velocity": 127,
                "startTime": 10.46938775510204,
                "duration": 0.1
            },
            {
                "pitch": 36,
                "velocity": 49,
                "startTime": 10.612244897959183,
                "duration": 0.1
            },
            {
                "pitch": 36,
                "velocity": 10,
                "startTime": 10.653061224489797,
                "duration": 0.1
            },
            {
                "pitch": 36,
                "velocity": 31,
                "startTime": 10.897959183673471,
                "duration": 0.1
            },
            {
                "pitch": 36,
                "velocity": 40,
                "startTime": 11.020408163265307,
                "duration": 0.1
            },
            {
                "pitch": 36,
                "velocity": 27,
                "startTime": 11.224489795918368,
                "duration": 0.1
            },
            {
                "pitch": 36,
                "velocity": 27,
                "startTime": 11.489795918367347,
                "duration": 0.1
            },
            {
                "pitch": 36,
                "velocity": 60,
                "startTime": 12.73469387755102,
                "duration": 0.1
            },
            {
                "pitch": 36,
                "velocity": 6,
                "startTime": 12.79591836734694,
                "duration": 0.1
            },
            {
                "pitch": 36,
                "velocity": 40,
                "startTime": 13.020408163265305,
                "duration": 0.1
            },
            {
                "pitch": 36,
                "velocity": 46,
                "startTime": 13.142857142857144,
                "duration": 0.1
            },
            {
                "pitch": 36,
                "velocity": 33,
                "startTime": 13.367346938775512,
                "duration": 0.1
            },
            {
                "pitch": 36,
                "velocity": 29,
                "startTime": 13.63265306122449,
                "duration": 0.1
            },
            {
                "pitch": 36,
                "velocity": 41,
                "startTime": 13.816326530612244,
                "duration": 0.1
            },
            {
                "pitch": 36,
                "velocity": 50,
                "startTime": 14.85714285714286,
                "duration": 0.1
            },
            {
                "pitch": 36,
                "velocity": 36,
                "startTime": 15.122448979591837,
                "duration": 0.1
            },
            {
                "pitch": 36,
                "velocity": 45,
                "startTime": 15.265306122448981,
                "duration": 0.1
            },
            {
                "pitch": 36,
                "velocity": 8,
                "startTime": 15.285714285714285,
                "duration": 0.1
            },
            {
                "pitch": 36,
                "velocity": 36,
                "startTime": 15.469387755102042,
                "duration": 0.1
            },
            {
                "pitch": 36,
                "velocity": 27,
                "startTime": 15.734693877551022,
                "duration": 0.1
            },
            {
                "pitch": 36,
                "velocity": 36,
                "startTime": 16,
                "duration": 0.1
            }
        ],
        "tempo": 120,
        "timeSignature": [
            4,
            4
        ],
        "lengthInBeats": 16
    },
    description: `Kick pattern from 7_latin-brazilian-maracatu_96_beat_4-4_18.midi`,
    tags: ["drum","kick","generic","beat","straight"],
    source: 'EGMD Dataset (7_latin-brazilian-maracatu_96_beat_4-4_18.midi)',
    metadata: {
        "complexity": 0.5,
        "density": 1
    },
  },
  {
    id: 'egmd_kick_kick_7_neworleans-secondline_124_beat_4-4_1',
    name: 'Kick',
    category: CardCategory.TIME,
    scope: CardScope.LOCAL,
    timeType: TimeCardType.DRUM_GROOVE,
    durationType: CardDurationType.INSTANCE,
    lengthBeats: 16,
    repeatCount: 2,
    timeMusicData: {
        "meter": "4/4",
        "tempoBPM": 120
    },
    midiClip: {
        "notes": [
            {
                "pitch": 36,
                "velocity": 33,
                "startTime": 0.01889020070838253,
                "duration": 0.1
            },
            {
                "pitch": 36,
                "velocity": 41,
                "startTime": 0.47225501770956324,
                "duration": 0.1
            },
            {
                "pitch": 36,
                "velocity": 35,
                "startTime": 0.7556080283353012,
                "duration": 0.1
            },
            {
                "pitch": 36,
                "velocity": 41,
                "startTime": 1.2278630460448643,
                "duration": 0.1
            },
            {
                "pitch": 36,
                "velocity": 8,
                "startTime": 1.2656434474616294,
                "duration": 0.1
            },
            {
                "pitch": 36,
                "velocity": 40,
                "startTime": 1.5112160566706023,
                "duration": 0.1
            },
            {
                "pitch": 36,
                "velocity": 36,
                "startTime": 1.9834710743801656,
                "duration": 0.1
            },
            {
                "pitch": 36,
                "velocity": 11,
                "startTime": 2.002361275088548,
                "duration": 0.1
            },
            {
                "pitch": 36,
                "velocity": 39,
                "startTime": 2.285714285714286,
                "duration": 0.1
            },
            {
                "pitch": 36,
                "velocity": 41,
                "startTime": 2.7390791027154666,
                "duration": 0.1
            },
            {
                "pitch": 36,
                "velocity": 39,
                "startTime": 3.0224321133412047,
                "duration": 0.1
            },
            {
                "pitch": 36,
                "velocity": 13,
                "startTime": 3.041322314049587,
                "duration": 0.1
            },
            {
                "pitch": 36,
                "velocity": 43,
                "startTime": 3.51357733175915,
                "duration": 0.1
            },
            {
                "pitch": 36,
                "velocity": 12,
                "startTime": 3.532467532467533,
                "duration": 0.1
            },
            {
                "pitch": 36,
                "velocity": 9,
                "startTime": 3.5513577331759154,
                "duration": 0.1
            },
            {
                "pitch": 36,
                "velocity": 42,
                "startTime": 4.269185360094451,
                "duration": 0.1
            },
            {
                "pitch": 36,
                "velocity": 45,
                "startTime": 4.552538370720189,
                "duration": 0.1
            },
            {
                "pitch": 36,
                "velocity": 13,
                "startTime": 4.590318772136954,
                "duration": 0.1
            },
            {
                "pitch": 36,
                "velocity": 11,
                "startTime": 4.590318772136954,
                "duration": 0.1
            },
            {
                "pitch": 36,
                "velocity": 45,
                "startTime": 5.043683589138135,
                "duration": 0.1
            },
            {
                "pitch": 36,
                "velocity": 9,
                "startTime": 5.0814639905549,
                "duration": 0.1
            },
            {
                "pitch": 36,
                "velocity": 40,
                "startTime": 5.327036599763873,
                "duration": 0.1
            },
            {
                "pitch": 36,
                "velocity": 10,
                "startTime": 5.364817001180638,
                "duration": 0.1
            },
            {
                "pitch": 36,
                "velocity": 40,
                "startTime": 5.799291617473436,
                "duration": 0.1
            },
            {
                "pitch": 36,
                "velocity": 13,
                "startTime": 5.818181818181819,
                "duration": 0.1
            },
            {
                "pitch": 36,
                "velocity": 40,
                "startTime": 6.082644628099174,
                "duration": 0.1
            },
            {
                "pitch": 36,
                "velocity": 38,
                "startTime": 6.554899645808738,
                "duration": 0.1
            },
            {
                "pitch": 36,
                "velocity": 39,
                "startTime": 6.838252656434475,
                "duration": 0.1
            },
            {
                "pitch": 36,
                "velocity": 39,
                "startTime": 7.310507674144038,
                "duration": 0.1
            },
            {
                "pitch": 36,
                "velocity": 12,
                "startTime": 7.348288075560803,
                "duration": 0.1
            },
            {
                "pitch": 36,
                "velocity": 38,
                "startTime": 7.612750885478159,
                "duration": 0.1
            },
            {
                "pitch": 36,
                "velocity": 40,
                "startTime": 8.08500590318772,
                "duration": 0.1
            },
            {
                "pitch": 36,
                "velocity": 36,
                "startTime": 8.36835891381346,
                "duration": 0.1
            },
            {
                "pitch": 36,
                "velocity": 41,
                "startTime": 8.840613931523023,
                "duration": 0.1
            },
            {
                "pitch": 36,
                "velocity": 9,
                "startTime": 8.878394332939788,
                "duration": 0.1
            },
            {
                "pitch": 36,
                "velocity": 37,
                "startTime": 9.142857142857144,
                "duration": 0.1
            },
            {
                "pitch": 36,
                "velocity": 9,
                "startTime": 9.161747343565526,
                "duration": 0.1
            },
            {
                "pitch": 36,
                "velocity": 37,
                "startTime": 9.615112160566706,
                "duration": 0.1
            },
            {
                "pitch": 36,
                "velocity": 12,
                "startTime": 9.634002361275089,
                "duration": 0.1
            },
            {
                "pitch": 36,
                "velocity": 36,
                "startTime": 9.898465171192445,
                "duration": 0.1
            },
            {
                "pitch": 36,
                "velocity": 39,
                "startTime": 10.370720188902007,
                "duration": 0.1
            },
            {
                "pitch": 36,
                "velocity": 40,
                "startTime": 10.654073199527746,
                "duration": 0.1
            },
            {
                "pitch": 36,
                "velocity": 40,
                "startTime": 11.12632821723731,
                "duration": 0.1
            },
            {
                "pitch": 36,
                "velocity": 36,
                "startTime": 11.428571428571429,
                "duration": 0.1
            },
            {
                "pitch": 36,
                "velocity": 38,
                "startTime": 11.711924439197167,
                "duration": 0.1
            },
            {
                "pitch": 36,
                "velocity": 42,
                "startTime": 12.184179456906731,
                "duration": 0.1
            },
            {
                "pitch": 36,
                "velocity": 12,
                "startTime": 12.203069657615114,
                "duration": 0.1
            },
            {
                "pitch": 36,
                "velocity": 9,
                "startTime": 12.203069657615114,
                "duration": 0.1
            },
            {
                "pitch": 36,
                "velocity": 40,
                "startTime": 12.656434474616294,
                "duration": 0.1
            },
            {
                "pitch": 36,
                "velocity": 12,
                "startTime": 12.675324675324678,
                "duration": 0.1
            },
            {
                "pitch": 36,
                "velocity": 38,
                "startTime": 12.939787485242032,
                "duration": 0.1
            },
            {
                "pitch": 36,
                "velocity": 12,
                "startTime": 12.958677685950413,
                "duration": 0.1
            },
            {
                "pitch": 36,
                "velocity": 36,
                "startTime": 13.412042502951595,
                "duration": 0.1
            },
            {
                "pitch": 36,
                "velocity": 11,
                "startTime": 13.430932703659977,
                "duration": 0.1
            },
            {
                "pitch": 36,
                "velocity": 36,
                "startTime": 13.695395513577331,
                "duration": 0.1
            },
            {
                "pitch": 36,
                "velocity": 11,
                "startTime": 13.733175914994098,
                "duration": 0.1
            },
            {
                "pitch": 36,
                "velocity": 42,
                "startTime": 14.469893742621016,
                "duration": 0.1
            },
            {
                "pitch": 36,
                "velocity": 12,
                "startTime": 14.4887839433294,
                "duration": 0.1
            },
            {
                "pitch": 36,
                "velocity": 9,
                "startTime": 14.4887839433294,
                "duration": 0.1
            },
            {
                "pitch": 36,
                "velocity": 42,
                "startTime": 14.753246753246755,
                "duration": 0.1
            },
            {
                "pitch": 36,
                "velocity": 41,
                "startTime": 15.225501770956319,
                "duration": 0.1
            },
            {
                "pitch": 36,
                "velocity": 37,
                "startTime": 15.69775678866588,
                "duration": 0.1
            },
            {
                "pitch": 36,
                "velocity": 11,
                "startTime": 15.716646989374263,
                "duration": 0.1
            },
            {
                "pitch": 36,
                "velocity": 36,
                "startTime": 16,
                "duration": 0.1
            }
        ],
        "tempo": 120,
        "timeSignature": [
            4,
            4
        ],
        "lengthInBeats": 16
    },
    description: `Kick pattern from 7_neworleans-secondline_124_beat_4-4_1.midi`,
    tags: ["drum","kick","generic","beat","straight"],
    source: 'EGMD Dataset (7_neworleans-secondline_124_beat_4-4_1.midi)',
    metadata: {
        "complexity": 0.5,
        "density": 1
    },
  },
  {
    id: 'egmd_snare_snare_8_rock-groove8_65_beat_4-4_1',
    name: 'Snare',
    category: CardCategory.TIME,
    scope: CardScope.LOCAL,
    timeType: TimeCardType.DRUM_GROOVE,
    durationType: CardDurationType.INSTANCE,
    lengthBeats: 16,
    repeatCount: 2,
    timeMusicData: {
        "meter": "4/4",
        "tempoBPM": 120
    },
    midiClip: {
        "notes": [
            {
                "pitch": 40,
                "velocity": 118,
                "startTime": 0.2510322047894302,
                "duration": 0.1
            },
            {
                "pitch": 40,
                "velocity": 127,
                "startTime": 0.7663088356729975,
                "duration": 0.1
            },
            {
                "pitch": 40,
                "velocity": 127,
                "startTime": 1.2683732452518577,
                "duration": 0.1
            },
            {
                "pitch": 38,
                "velocity": 127,
                "startTime": 1.704376548307184,
                "duration": 0.1
            },
            {
                "pitch": 40,
                "velocity": 122,
                "startTime": 1.7704376548307184,
                "duration": 0.1
            },
            {
                "pitch": 40,
                "velocity": 127,
                "startTime": 2.2857142857142856,
                "duration": 0.1
            },
            {
                "pitch": 40,
                "velocity": 127,
                "startTime": 2.787778695293146,
                "duration": 0.1
            },
            {
                "pitch": 38,
                "velocity": 127,
                "startTime": 3.289843104872006,
                "duration": 0.1
            },
            {
                "pitch": 40,
                "velocity": 118,
                "startTime": 3.7390586292320394,
                "duration": 0.1
            },
            {
                "pitch": 38,
                "velocity": 124,
                "startTime": 3.7919075144508665,
                "duration": 0.1
            },
            {
                "pitch": 38,
                "velocity": 127,
                "startTime": 4.320396366639141,
                "duration": 0.1
            },
            {
                "pitch": 40,
                "velocity": 118,
                "startTime": 4.835672997522708,
                "duration": 0.1
            },
            {
                "pitch": 40,
                "velocity": 127,
                "startTime": 5.337737407101568,
                "duration": 0.1
            },
            {
                "pitch": 38,
                "velocity": 112,
                "startTime": 5.773740710156895,
                "duration": 0.1
            },
            {
                "pitch": 38,
                "velocity": 127,
                "startTime": 5.8398018166804295,
                "duration": 0.1
            },
            {
                "pitch": 40,
                "velocity": 127,
                "startTime": 6.355078447563995,
                "duration": 0.1
            },
            {
                "pitch": 40,
                "velocity": 127,
                "startTime": 6.857142857142857,
                "duration": 0.1
            },
            {
                "pitch": 40,
                "velocity": 127,
                "startTime": 7.372419488026424,
                "duration": 0.1
            },
            {
                "pitch": 38,
                "velocity": 108,
                "startTime": 7.80842279108175,
                "duration": 0.1
            },
            {
                "pitch": 40,
                "velocity": 121,
                "startTime": 7.874483897605284,
                "duration": 0.1
            },
            {
                "pitch": 40,
                "velocity": 127,
                "startTime": 8.389760528488852,
                "duration": 0.1
            },
            {
                "pitch": 40,
                "velocity": 127,
                "startTime": 8.891824938067712,
                "duration": 0.1
            },
            {
                "pitch": 40,
                "velocity": 127,
                "startTime": 9.393889347646573,
                "duration": 0.1
            },
            {
                "pitch": 38,
                "velocity": 100,
                "startTime": 9.856317093311311,
                "duration": 0.1
            },
            {
                "pitch": 40,
                "velocity": 127,
                "startTime": 9.909165978530138,
                "duration": 0.1
            },
            {
                "pitch": 40,
                "velocity": 127,
                "startTime": 10.424442609413706,
                "duration": 0.1
            },
            {
                "pitch": 40,
                "velocity": 127,
                "startTime": 10.926507018992567,
                "duration": 0.1
            },
            {
                "pitch": 40,
                "velocity": 127,
                "startTime": 11.441783649876134,
                "duration": 0.1
            },
            {
                "pitch": 38,
                "velocity": 103,
                "startTime": 11.87778695293146,
                "duration": 0.1
            },
            {
                "pitch": 40,
                "velocity": 127,
                "startTime": 11.943848059454995,
                "duration": 0.1
            },
            {
                "pitch": 40,
                "velocity": 127,
                "startTime": 12.445912469033855,
                "duration": 0.1
            },
            {
                "pitch": 40,
                "velocity": 127,
                "startTime": 12.961189099917423,
                "duration": 0.1
            },
            {
                "pitch": 40,
                "velocity": 127,
                "startTime": 13.463253509496283,
                "duration": 0.1
            },
            {
                "pitch": 38,
                "velocity": 115,
                "startTime": 13.912469033856317,
                "duration": 0.1
            },
            {
                "pitch": 40,
                "velocity": 127,
                "startTime": 13.978530140379851,
                "duration": 0.1
            },
            {
                "pitch": 37,
                "velocity": 14,
                "startTime": 14.044591246903385,
                "duration": 0.1
            },
            {
                "pitch": 40,
                "velocity": 114,
                "startTime": 14.493806771263419,
                "duration": 0.1
            },
            {
                "pitch": 38,
                "velocity": 20,
                "startTime": 14.507018992568124,
                "duration": 0.1
            },
            {
                "pitch": 40,
                "velocity": 127,
                "startTime": 14.995871180842279,
                "duration": 0.1
            },
            {
                "pitch": 40,
                "velocity": 127,
                "startTime": 15.497935590421138,
                "duration": 0.1
            },
            {
                "pitch": 38,
                "velocity": 110,
                "startTime": 15.947151114781171,
                "duration": 0.1
            },
            {
                "pitch": 40,
                "velocity": 127,
                "startTime": 15.999999999999998,
                "duration": 0.1
            }
        ],
        "tempo": 120,
        "timeSignature": [
            4,
            4
        ],
        "lengthInBeats": 16
    },
    description: `Snare pattern from 8_rock-groove8_65_beat_4-4_1.midi`,
    tags: ["drum","snare","generic","beat","straight"],
    source: 'EGMD Dataset (8_rock-groove8_65_beat_4-4_1.midi)',
    metadata: {
        "complexity": 0.5,
        "density": 0.6562
    },
  },
  {
    id: 'egmd_snare_snare_3_rock_100_beat_4-4_18',
    name: 'Snare',
    category: CardCategory.TIME,
    scope: CardScope.LOCAL,
    timeType: TimeCardType.DRUM_GROOVE,
    durationType: CardDurationType.INSTANCE,
    lengthBeats: 16,
    repeatCount: 2,
    timeMusicData: {
        "meter": "4/4",
        "tempoBPM": 120
    },
    midiClip: {
        "notes": [
            {
                "pitch": 38,
                "velocity": 75,
                "startTime": 0.6903553299492386,
                "duration": 0.1
            },
            {
                "pitch": 38,
                "velocity": 127,
                "startTime": 0.8730964467005077,
                "duration": 0.1
            },
            {
                "pitch": 38,
                "velocity": 127,
                "startTime": 1.2791878172588833,
                "duration": 0.1
            },
            {
                "pitch": 38,
                "velocity": 127,
                "startTime": 1.766497461928934,
                "duration": 0.1
            },
            {
                "pitch": 38,
                "velocity": 127,
                "startTime": 1.786802030456853,
                "duration": 0.1
            },
            {
                "pitch": 38,
                "velocity": 127,
                "startTime": 2.2944162436548226,
                "duration": 0.1
            },
            {
                "pitch": 38,
                "velocity": 127,
                "startTime": 2.3147208121827414,
                "duration": 0.1
            },
            {
                "pitch": 38,
                "velocity": 127,
                "startTime": 2.8020304568527923,
                "duration": 0.1
            },
            {
                "pitch": 38,
                "velocity": 127,
                "startTime": 2.8020304568527923,
                "duration": 0.1
            },
            {
                "pitch": 38,
                "velocity": 127,
                "startTime": 3.3096446700507616,
                "duration": 0.1
            },
            {
                "pitch": 38,
                "velocity": 127,
                "startTime": 3.329949238578681,
                "duration": 0.1
            },
            {
                "pitch": 38,
                "velocity": 127,
                "startTime": 3.796954314720813,
                "duration": 0.1
            },
            {
                "pitch": 38,
                "velocity": 127,
                "startTime": 3.8172588832487313,
                "duration": 0.1
            },
            {
                "pitch": 38,
                "velocity": 127,
                "startTime": 4.304568527918782,
                "duration": 0.1
            },
            {
                "pitch": 38,
                "velocity": 127,
                "startTime": 4.324873096446701,
                "duration": 0.1
            },
            {
                "pitch": 38,
                "velocity": 127,
                "startTime": 4.791878172588833,
                "duration": 0.1
            },
            {
                "pitch": 38,
                "velocity": 127,
                "startTime": 4.812182741116751,
                "duration": 0.1
            },
            {
                "pitch": 38,
                "velocity": 126,
                "startTime": 4.934010152284264,
                "duration": 0.1
            },
            {
                "pitch": 38,
                "velocity": 127,
                "startTime": 4.994923857868021,
                "duration": 0.1
            },
            {
                "pitch": 38,
                "velocity": 127,
                "startTime": 5.299492385786803,
                "duration": 0.1
            },
            {
                "pitch": 38,
                "velocity": 127,
                "startTime": 5.319796954314722,
                "duration": 0.1
            },
            {
                "pitch": 38,
                "velocity": 127,
                "startTime": 5.807106598984772,
                "duration": 0.1
            },
            {
                "pitch": 38,
                "velocity": 127,
                "startTime": 5.8274111675126905,
                "duration": 0.1
            },
            {
                "pitch": 38,
                "velocity": 127,
                "startTime": 6.314720812182742,
                "duration": 0.1
            },
            {
                "pitch": 38,
                "velocity": 127,
                "startTime": 6.33502538071066,
                "duration": 0.1
            },
            {
                "pitch": 38,
                "velocity": 127,
                "startTime": 6.822335025380711,
                "duration": 0.1
            },
            {
                "pitch": 38,
                "velocity": 127,
                "startTime": 6.822335025380711,
                "duration": 0.1
            },
            {
                "pitch": 38,
                "velocity": 119,
                "startTime": 6.964467005076142,
                "duration": 0.1
            },
            {
                "pitch": 38,
                "velocity": 127,
                "startTime": 7.025380710659899,
                "duration": 0.1
            },
            {
                "pitch": 38,
                "velocity": 127,
                "startTime": 7.350253807106601,
                "duration": 0.1
            },
            {
                "pitch": 38,
                "velocity": 127,
                "startTime": 7.370558375634518,
                "duration": 0.1
            },
            {
                "pitch": 38,
                "velocity": 127,
                "startTime": 7.8578680203045685,
                "duration": 0.1
            },
            {
                "pitch": 38,
                "velocity": 127,
                "startTime": 7.878172588832489,
                "duration": 0.1
            },
            {
                "pitch": 38,
                "velocity": 127,
                "startTime": 8.365482233502538,
                "duration": 0.1
            },
            {
                "pitch": 38,
                "velocity": 127,
                "startTime": 8.385786802030458,
                "duration": 0.1
            },
            {
                "pitch": 38,
                "velocity": 127,
                "startTime": 8.87309644670051,
                "duration": 0.1
            },
            {
                "pitch": 38,
                "velocity": 127,
                "startTime": 8.893401015228427,
                "duration": 0.1
            },
            {
                "pitch": 38,
                "velocity": 127,
                "startTime": 9.380710659898478,
                "duration": 0.1
            },
            {
                "pitch": 38,
                "velocity": 127,
                "startTime": 9.401015228426397,
                "duration": 0.1
            },
            {
                "pitch": 38,
                "velocity": 127,
                "startTime": 9.888324873096447,
                "duration": 0.1
            },
            {
                "pitch": 38,
                "velocity": 127,
                "startTime": 9.908629441624367,
                "duration": 0.1
            },
            {
                "pitch": 38,
                "velocity": 127,
                "startTime": 10.395939086294417,
                "duration": 0.1
            },
            {
                "pitch": 38,
                "velocity": 127,
                "startTime": 10.416243654822336,
                "duration": 0.1
            },
            {
                "pitch": 38,
                "velocity": 127,
                "startTime": 10.903553299492387,
                "duration": 0.1
            },
            {
                "pitch": 38,
                "velocity": 127,
                "startTime": 10.903553299492387,
                "duration": 0.1
            },
            {
                "pitch": 38,
                "velocity": 127,
                "startTime": 11.431472081218276,
                "duration": 0.1
            },
            {
                "pitch": 38,
                "velocity": 127,
                "startTime": 11.431472081218276,
                "duration": 0.1
            },
            {
                "pitch": 38,
                "velocity": 104,
                "startTime": 11.918781725888326,
                "duration": 0.1
            },
            {
                "pitch": 38,
                "velocity": 127,
                "startTime": 11.939086294416244,
                "duration": 0.1
            },
            {
                "pitch": 38,
                "velocity": 127,
                "startTime": 12.426395939086294,
                "duration": 0.1
            },
            {
                "pitch": 38,
                "velocity": 127,
                "startTime": 12.446700507614214,
                "duration": 0.1
            },
            {
                "pitch": 38,
                "velocity": 127,
                "startTime": 12.934010152284266,
                "duration": 0.1
            },
            {
                "pitch": 38,
                "velocity": 127,
                "startTime": 12.994923857868022,
                "duration": 0.1
            },
            {
                "pitch": 38,
                "velocity": 127,
                "startTime": 13.055837563451776,
                "duration": 0.1
            },
            {
                "pitch": 38,
                "velocity": 123,
                "startTime": 13.137055837563452,
                "duration": 0.1
            },
            {
                "pitch": 38,
                "velocity": 127,
                "startTime": 13.461928934010153,
                "duration": 0.1
            },
            {
                "pitch": 38,
                "velocity": 127,
                "startTime": 13.969543147208123,
                "duration": 0.1
            },
            {
                "pitch": 38,
                "velocity": 127,
                "startTime": 14.477157360406093,
                "duration": 0.1
            },
            {
                "pitch": 38,
                "velocity": 127,
                "startTime": 15.00507614213198,
                "duration": 0.1
            },
            {
                "pitch": 38,
                "velocity": 58,
                "startTime": 15.167512690355332,
                "duration": 0.1
            },
            {
                "pitch": 38,
                "velocity": 19,
                "startTime": 15.309644670050762,
                "duration": 0.1
            },
            {
                "pitch": 38,
                "velocity": 13,
                "startTime": 15.329949238578681,
                "duration": 0.1
            },
            {
                "pitch": 38,
                "velocity": 127,
                "startTime": 15.492385786802034,
                "duration": 0.1
            },
            {
                "pitch": 38,
                "velocity": 127,
                "startTime": 16,
                "duration": 0.1
            }
        ],
        "tempo": 120,
        "timeSignature": [
            4,
            4
        ],
        "lengthInBeats": 16
    },
    description: `Snare pattern from 3_rock_100_beat_4-4_18.midi`,
    tags: ["drum","snare","generic","beat","straight"],
    source: 'EGMD Dataset (3_rock_100_beat_4-4_18.midi)',
    metadata: {
        "complexity": 0.5,
        "density": 1
    },
  },
  {
    id: 'egmd_snare_snare_1_rock_120_beat_4-4_1',
    name: 'Snare',
    category: CardCategory.TIME,
    scope: CardScope.LOCAL,
    timeType: TimeCardType.DRUM_GROOVE,
    durationType: CardDurationType.INSTANCE,
    lengthBeats: 16,
    repeatCount: 2,
    timeMusicData: {
        "meter": "4/4",
        "tempoBPM": 120
    },
    midiClip: {
        "notes": [
            {
                "pitch": 38,
                "velocity": 10,
                "startTime": 0,
                "duration": 0.1
            },
            {
                "pitch": 38,
                "velocity": 96,
                "startTime": 0.27672955974842767,
                "duration": 0.1
            },
            {
                "pitch": 38,
                "velocity": 48,
                "startTime": 0.3018867924528301,
                "duration": 0.1
            },
            {
                "pitch": 38,
                "velocity": 9,
                "startTime": 0.47798742138364775,
                "duration": 0.1
            },
            {
                "pitch": 38,
                "velocity": 115,
                "startTime": 0.8050314465408805,
                "duration": 0.1
            },
            {
                "pitch": 38,
                "velocity": 44,
                "startTime": 0.830188679245283,
                "duration": 0.1
            },
            {
                "pitch": 38,
                "velocity": 112,
                "startTime": 1.3333333333333333,
                "duration": 0.1
            },
            {
                "pitch": 40,
                "velocity": 102,
                "startTime": 1.8364779874213835,
                "duration": 0.1
            },
            {
                "pitch": 40,
                "velocity": 103,
                "startTime": 2.3647798742138364,
                "duration": 0.1
            },
            {
                "pitch": 38,
                "velocity": 121,
                "startTime": 2.893081761006289,
                "duration": 0.1
            },
            {
                "pitch": 38,
                "velocity": 36,
                "startTime": 2.9182389937106916,
                "duration": 0.1
            },
            {
                "pitch": 38,
                "velocity": 5,
                "startTime": 3.094339622641509,
                "duration": 0.1
            },
            {
                "pitch": 38,
                "velocity": 14,
                "startTime": 3.220125786163522,
                "duration": 0.1
            },
            {
                "pitch": 40,
                "velocity": 124,
                "startTime": 3.421383647798742,
                "duration": 0.1
            },
            {
                "pitch": 38,
                "velocity": 37,
                "startTime": 3.4465408805031448,
                "duration": 0.1
            },
            {
                "pitch": 38,
                "velocity": 10,
                "startTime": 3.622641509433962,
                "duration": 0.1
            },
            {
                "pitch": 38,
                "velocity": 29,
                "startTime": 3.8742138364779874,
                "duration": 0.1
            },
            {
                "pitch": 40,
                "velocity": 127,
                "startTime": 3.924528301886792,
                "duration": 0.1
            },
            {
                "pitch": 40,
                "velocity": 127,
                "startTime": 4,
                "duration": 0.1
            },
            {
                "pitch": 38,
                "velocity": 59,
                "startTime": 4.050314465408805,
                "duration": 0.1
            },
            {
                "pitch": 38,
                "velocity": 36,
                "startTime": 4.1257861635220126,
                "duration": 0.1
            },
            {
                "pitch": 38,
                "velocity": 127,
                "startTime": 4.452830188679245,
                "duration": 0.1
            },
            {
                "pitch": 38,
                "velocity": 8,
                "startTime": 4.654088050314465,
                "duration": 0.1
            },
            {
                "pitch": 40,
                "velocity": 127,
                "startTime": 4.981132075471698,
                "duration": 0.1
            },
            {
                "pitch": 38,
                "velocity": 59,
                "startTime": 5.0062893081761,
                "duration": 0.1
            },
            {
                "pitch": 38,
                "velocity": 13,
                "startTime": 5.283018867924528,
                "duration": 0.1
            },
            {
                "pitch": 40,
                "velocity": 127,
                "startTime": 5.509433962264151,
                "duration": 0.1
            },
            {
                "pitch": 40,
                "velocity": 127,
                "startTime": 6.012578616352201,
                "duration": 0.1
            },
            {
                "pitch": 38,
                "velocity": 127,
                "startTime": 6.566037735849057,
                "duration": 0.1
            },
            {
                "pitch": 38,
                "velocity": 49,
                "startTime": 6.591194968553459,
                "duration": 0.1
            },
            {
                "pitch": 40,
                "velocity": 127,
                "startTime": 7.094339622641509,
                "duration": 0.1
            },
            {
                "pitch": 38,
                "velocity": 31,
                "startTime": 7.119496855345911,
                "duration": 0.1
            },
            {
                "pitch": 38,
                "velocity": 7,
                "startTime": 7.345911949685534,
                "duration": 0.1
            },
            {
                "pitch": 38,
                "velocity": 70,
                "startTime": 7.471698113207547,
                "duration": 0.1
            },
            {
                "pitch": 40,
                "velocity": 127,
                "startTime": 7.622641509433962,
                "duration": 0.1
            },
            {
                "pitch": 38,
                "velocity": 34,
                "startTime": 7.974842767295597,
                "duration": 0.1
            },
            {
                "pitch": 40,
                "velocity": 127,
                "startTime": 8.125786163522013,
                "duration": 0.1
            },
            {
                "pitch": 38,
                "velocity": 127,
                "startTime": 8.654088050314465,
                "duration": 0.1
            },
            {
                "pitch": 38,
                "velocity": 53,
                "startTime": 8.679245283018869,
                "duration": 0.1
            },
            {
                "pitch": 40,
                "velocity": 127,
                "startTime": 9.157232704402515,
                "duration": 0.1
            },
            {
                "pitch": 38,
                "velocity": 46,
                "startTime": 9.20754716981132,
                "duration": 0.1
            },
            {
                "pitch": 38,
                "velocity": 127,
                "startTime": 9.685534591194967,
                "duration": 0.1
            },
            {
                "pitch": 38,
                "velocity": 16,
                "startTime": 10.062893081761006,
                "duration": 0.1
            },
            {
                "pitch": 38,
                "velocity": 127,
                "startTime": 10.238993710691823,
                "duration": 0.1
            },
            {
                "pitch": 40,
                "velocity": 127,
                "startTime": 10.742138364779874,
                "duration": 0.1
            },
            {
                "pitch": 38,
                "velocity": 14,
                "startTime": 11.119496855345913,
                "duration": 0.1
            },
            {
                "pitch": 40,
                "velocity": 127,
                "startTime": 11.270440251572326,
                "duration": 0.1
            },
            {
                "pitch": 38,
                "velocity": 21,
                "startTime": 11.647798742138365,
                "duration": 0.1
            },
            {
                "pitch": 40,
                "velocity": 127,
                "startTime": 11.798742138364778,
                "duration": 0.1
            },
            {
                "pitch": 38,
                "velocity": 127,
                "startTime": 12.327044025157232,
                "duration": 0.1
            },
            {
                "pitch": 38,
                "velocity": 127,
                "startTime": 12.855345911949685,
                "duration": 0.1
            },
            {
                "pitch": 38,
                "velocity": 11,
                "startTime": 13.081761006289307,
                "duration": 0.1
            },
            {
                "pitch": 38,
                "velocity": 21,
                "startTime": 13.182389937106919,
                "duration": 0.1
            },
            {
                "pitch": 40,
                "velocity": 127,
                "startTime": 13.358490566037736,
                "duration": 0.1
            },
            {
                "pitch": 38,
                "velocity": 14,
                "startTime": 13.685534591194967,
                "duration": 0.1
            },
            {
                "pitch": 38,
                "velocity": 127,
                "startTime": 13.886792452830187,
                "duration": 0.1
            },
            {
                "pitch": 38,
                "velocity": 127,
                "startTime": 14.41509433962264,
                "duration": 0.1
            },
            {
                "pitch": 38,
                "velocity": 45,
                "startTime": 14.440251572327043,
                "duration": 0.1
            },
            {
                "pitch": 38,
                "velocity": 127,
                "startTime": 14.943396226415095,
                "duration": 0.1
            },
            {
                "pitch": 38,
                "velocity": 11,
                "startTime": 15.169811320754716,
                "duration": 0.1
            },
            {
                "pitch": 38,
                "velocity": 10,
                "startTime": 15.320754716981131,
                "duration": 0.1
            },
            {
                "pitch": 38,
                "velocity": 127,
                "startTime": 15.471698113207546,
                "duration": 0.1
            },
            {
                "pitch": 38,
                "velocity": 50,
                "startTime": 15.849056603773585,
                "duration": 0.1
            },
            {
                "pitch": 38,
                "velocity": 111,
                "startTime": 16,
                "duration": 0.1
            }
        ],
        "tempo": 120,
        "timeSignature": [
            4,
            4
        ],
        "lengthInBeats": 16
    },
    description: `Snare pattern from 1_rock_120_beat_4-4_1.midi`,
    tags: ["drum","snare","generic","beat","straight"],
    source: 'EGMD Dataset (1_rock_120_beat_4-4_1.midi)',
    metadata: {
        "complexity": 0.5,
        "density": 1
    },
  },
  {
    id: 'egmd_snare_snare_21_rock-shuffle_112_beat_4-4_1',
    name: 'Snare',
    category: CardCategory.TIME,
    scope: CardScope.LOCAL,
    timeType: TimeCardType.DRUM_GROOVE,
    durationType: CardDurationType.INSTANCE,
    lengthBeats: 16,
    repeatCount: 2,
    timeMusicData: {
        "meter": "4/4",
        "tempoBPM": 120
    },
    midiClip: {
        "notes": [
            {
                "pitch": 40,
                "velocity": 112,
                "startTime": 0.23687752355316283,
                "duration": 0.1
            },
            {
                "pitch": 38,
                "velocity": 80,
                "startTime": 0.6244952893674293,
                "duration": 0.1
            },
            {
                "pitch": 40,
                "velocity": 118,
                "startTime": 0.7106325706594885,
                "duration": 0.1
            },
            {
                "pitch": 38,
                "velocity": 127,
                "startTime": 0.8613728129205921,
                "duration": 0.1
            },
            {
                "pitch": 40,
                "velocity": 125,
                "startTime": 1.1843876177658141,
                "duration": 0.1
            },
            {
                "pitch": 40,
                "velocity": 92,
                "startTime": 1.5935397039030954,
                "duration": 0.1
            },
            {
                "pitch": 40,
                "velocity": 109,
                "startTime": 2.15343203230148,
                "duration": 0.1
            },
            {
                "pitch": 38,
                "velocity": 79,
                "startTime": 2.5410497981157465,
                "duration": 0.1
            },
            {
                "pitch": 40,
                "velocity": 122,
                "startTime": 2.627187079407806,
                "duration": 0.1
            },
            {
                "pitch": 38,
                "velocity": 77,
                "startTime": 2.9717362045760427,
                "duration": 0.1
            },
            {
                "pitch": 38,
                "velocity": 64,
                "startTime": 2.9932705248990574,
                "duration": 0.1
            },
            {
                "pitch": 40,
                "velocity": 127,
                "startTime": 3.036339165545087,
                "duration": 0.1
            },
            {
                "pitch": 40,
                "velocity": 127,
                "startTime": 3.1224764468371466,
                "duration": 0.1
            },
            {
                "pitch": 40,
                "velocity": 127,
                "startTime": 4.069986541049798,
                "duration": 0.1
            },
            {
                "pitch": 38,
                "velocity": 44,
                "startTime": 4.479138627187079,
                "duration": 0.1
            },
            {
                "pitch": 40,
                "velocity": 109,
                "startTime": 4.565275908479138,
                "duration": 0.1
            },
            {
                "pitch": 38,
                "velocity": 127,
                "startTime": 4.716016150740241,
                "duration": 0.1
            },
            {
                "pitch": 40,
                "velocity": 106,
                "startTime": 5.0390309555854635,
                "duration": 0.1
            },
            {
                "pitch": 38,
                "velocity": 53,
                "startTime": 5.42664872139973,
                "duration": 0.1
            },
            {
                "pitch": 40,
                "velocity": 127,
                "startTime": 5.512786002691789,
                "duration": 0.1
            },
            {
                "pitch": 40,
                "velocity": 119,
                "startTime": 6.00807537012113,
                "duration": 0.1
            },
            {
                "pitch": 38,
                "velocity": 71,
                "startTime": 6.395693135935397,
                "duration": 0.1
            },
            {
                "pitch": 38,
                "velocity": 127,
                "startTime": 6.481830417227455,
                "duration": 0.1
            },
            {
                "pitch": 38,
                "velocity": 127,
                "startTime": 6.740242261103633,
                "duration": 0.1
            },
            {
                "pitch": 40,
                "velocity": 127,
                "startTime": 6.869448183041722,
                "duration": 0.1
            },
            {
                "pitch": 37,
                "velocity": 83,
                "startTime": 7.04172274562584,
                "duration": 0.1
            },
            {
                "pitch": 40,
                "velocity": 127,
                "startTime": 7.127860026917899,
                "duration": 0.1
            },
            {
                "pitch": 40,
                "velocity": 127,
                "startTime": 7.278600269179003,
                "duration": 0.1
            },
            {
                "pitch": 40,
                "velocity": 127,
                "startTime": 7.450874831763121,
                "duration": 0.1
            },
            {
                "pitch": 40,
                "velocity": 127,
                "startTime": 7.601615074024225,
                "duration": 0.1
            },
            {
                "pitch": 40,
                "velocity": 127,
                "startTime": 7.924629878869447,
                "duration": 0.1
            },
            {
                "pitch": 38,
                "velocity": 62,
                "startTime": 8.312247644683714,
                "duration": 0.1
            },
            {
                "pitch": 38,
                "velocity": 127,
                "startTime": 8.398384925975773,
                "duration": 0.1
            },
            {
                "pitch": 38,
                "velocity": 127,
                "startTime": 8.549125168236877,
                "duration": 0.1
            },
            {
                "pitch": 40,
                "velocity": 99,
                "startTime": 8.893674293405114,
                "duration": 0.1
            },
            {
                "pitch": 38,
                "velocity": 25,
                "startTime": 9.28129205921938,
                "duration": 0.1
            },
            {
                "pitch": 40,
                "velocity": 127,
                "startTime": 9.367429340511439,
                "duration": 0.1
            },
            {
                "pitch": 38,
                "velocity": 127,
                "startTime": 9.841184387617764,
                "duration": 0.1
            },
            {
                "pitch": 38,
                "velocity": 67,
                "startTime": 10.228802153432031,
                "duration": 0.1
            },
            {
                "pitch": 38,
                "velocity": 127,
                "startTime": 10.336473755047106,
                "duration": 0.1
            },
            {
                "pitch": 38,
                "velocity": 127,
                "startTime": 10.573351278600267,
                "duration": 0.1
            },
            {
                "pitch": 40,
                "velocity": 127,
                "startTime": 10.724091520861371,
                "duration": 0.1
            },
            {
                "pitch": 40,
                "velocity": 127,
                "startTime": 10.81022880215343,
                "duration": 0.1
            },
            {
                "pitch": 40,
                "velocity": 127,
                "startTime": 10.960969044414535,
                "duration": 0.1
            },
            {
                "pitch": 40,
                "velocity": 127,
                "startTime": 11.025572005383578,
                "duration": 0.1
            },
            {
                "pitch": 40,
                "velocity": 127,
                "startTime": 11.111709286675637,
                "duration": 0.1
            },
            {
                "pitch": 40,
                "velocity": 127,
                "startTime": 11.283983849259757,
                "duration": 0.1
            },
            {
                "pitch": 38,
                "velocity": 127,
                "startTime": 11.3485868102288,
                "duration": 0.1
            },
            {
                "pitch": 40,
                "velocity": 127,
                "startTime": 11.43472409152086,
                "duration": 0.1
            },
            {
                "pitch": 40,
                "velocity": 127,
                "startTime": 11.779273216689097,
                "duration": 0.1
            },
            {
                "pitch": 40,
                "velocity": 127,
                "startTime": 12.253028263795422,
                "duration": 0.1
            },
            {
                "pitch": 40,
                "velocity": 115,
                "startTime": 12.403768506056526,
                "duration": 0.1
            },
            {
                "pitch": 40,
                "velocity": 117,
                "startTime": 12.726783310901748,
                "duration": 0.1
            },
            {
                "pitch": 38,
                "velocity": 68,
                "startTime": 13.13593539703903,
                "duration": 0.1
            },
            {
                "pitch": 40,
                "velocity": 127,
                "startTime": 13.22207267833109,
                "duration": 0.1
            },
            {
                "pitch": 40,
                "velocity": 126,
                "startTime": 13.695827725437415,
                "duration": 0.1
            },
            {
                "pitch": 38,
                "velocity": 40,
                "startTime": 14.08344549125168,
                "duration": 0.1
            },
            {
                "pitch": 38,
                "velocity": 127,
                "startTime": 14.191117092866754,
                "duration": 0.1
            },
            {
                "pitch": 40,
                "velocity": 127,
                "startTime": 14.815612382234184,
                "duration": 0.1
            },
            {
                "pitch": 40,
                "velocity": 127,
                "startTime": 14.815612382234184,
                "duration": 0.1
            },
            {
                "pitch": 40,
                "velocity": 127,
                "startTime": 15.138627187079406,
                "duration": 0.1
            },
            {
                "pitch": 40,
                "velocity": 127,
                "startTime": 15.289367429340508,
                "duration": 0.1
            },
            {
                "pitch": 38,
                "velocity": 127,
                "startTime": 15.633916554508746,
                "duration": 0.1
            },
            {
                "pitch": 38,
                "velocity": 45,
                "startTime": 15.999999999999998,
                "duration": 0.1
            }
        ],
        "tempo": 120,
        "timeSignature": [
            4,
            4
        ],
        "lengthInBeats": 16
    },
    description: `Snare pattern from 21_rock-shuffle_112_beat_4-4_1.midi`,
    tags: ["drum","snare","generic","beat","straight"],
    source: 'EGMD Dataset (21_rock-shuffle_112_beat_4-4_1.midi)',
    metadata: {
        "complexity": 0.5,
        "density": 1
    },
  },
  {
    id: 'egmd_snare_snare_5_jazz-swing_215_beat_4-4_18',
    name: 'Snare',
    category: CardCategory.TIME,
    scope: CardScope.LOCAL,
    timeType: TimeCardType.DRUM_GROOVE,
    durationType: CardDurationType.INSTANCE,
    lengthBeats: 16,
    repeatCount: 2,
    timeMusicData: {
        "meter": "4/4",
        "tempoBPM": 120
    },
    midiClip: {
        "notes": [
            {
                "pitch": 38,
                "velocity": 127,
                "startTime": 0.11034482758620691,
                "duration": 0.1
            },
            {
                "pitch": 38,
                "velocity": 127,
                "startTime": 0.37517241379310345,
                "duration": 0.1
            },
            {
                "pitch": 38,
                "velocity": 127,
                "startTime": 0.64,
                "duration": 0.1
            },
            {
                "pitch": 38,
                "velocity": 127,
                "startTime": 0.9048275862068967,
                "duration": 0.1
            },
            {
                "pitch": 38,
                "velocity": 127,
                "startTime": 1.1475862068965517,
                "duration": 0.1
            },
            {
                "pitch": 38,
                "velocity": 127,
                "startTime": 1.1475862068965517,
                "duration": 0.1
            },
            {
                "pitch": 38,
                "velocity": 127,
                "startTime": 1.3462068965517242,
                "duration": 0.1
            },
            {
                "pitch": 38,
                "velocity": 127,
                "startTime": 1.4786206896551726,
                "duration": 0.1
            },
            {
                "pitch": 38,
                "velocity": 127,
                "startTime": 1.5448275862068968,
                "duration": 0.1
            },
            {
                "pitch": 38,
                "velocity": 127,
                "startTime": 2.1627586206896554,
                "duration": 0.1
            },
            {
                "pitch": 38,
                "velocity": 127,
                "startTime": 2.670344827586207,
                "duration": 0.1
            },
            {
                "pitch": 38,
                "velocity": 127,
                "startTime": 2.6924137931034484,
                "duration": 0.1
            },
            {
                "pitch": 38,
                "velocity": 127,
                "startTime": 3.2220689655172414,
                "duration": 0.1
            },
            {
                "pitch": 38,
                "velocity": 127,
                "startTime": 4.215172413793104,
                "duration": 0.1
            },
            {
                "pitch": 38,
                "velocity": 127,
                "startTime": 4.568275862068965,
                "duration": 0.1
            },
            {
                "pitch": 38,
                "velocity": 127,
                "startTime": 4.6786206896551725,
                "duration": 0.1
            },
            {
                "pitch": 38,
                "velocity": 127,
                "startTime": 4.722758620689655,
                "duration": 0.1
            },
            {
                "pitch": 38,
                "velocity": 127,
                "startTime": 5.053793103448276,
                "duration": 0.1
            },
            {
                "pitch": 38,
                "velocity": 127,
                "startTime": 5.097931034482759,
                "duration": 0.1
            },
            {
                "pitch": 38,
                "velocity": 114,
                "startTime": 5.186206896551725,
                "duration": 0.1
            },
            {
                "pitch": 38,
                "velocity": 127,
                "startTime": 5.318620689655173,
                "duration": 0.1
            },
            {
                "pitch": 38,
                "velocity": 127,
                "startTime": 5.384827586206897,
                "duration": 0.1
            },
            {
                "pitch": 38,
                "velocity": 127,
                "startTime": 5.451034482758621,
                "duration": 0.1
            },
            {
                "pitch": 38,
                "velocity": 106,
                "startTime": 5.583448275862069,
                "duration": 0.1
            },
            {
                "pitch": 38,
                "velocity": 127,
                "startTime": 5.627586206896551,
                "duration": 0.1
            },
            {
                "pitch": 38,
                "velocity": 127,
                "startTime": 5.715862068965517,
                "duration": 0.1
            },
            {
                "pitch": 38,
                "velocity": 99,
                "startTime": 5.848275862068966,
                "duration": 0.1
            },
            {
                "pitch": 38,
                "velocity": 127,
                "startTime": 5.892413793103449,
                "duration": 0.1
            },
            {
                "pitch": 38,
                "velocity": 127,
                "startTime": 5.9365517241379315,
                "duration": 0.1
            },
            {
                "pitch": 38,
                "velocity": 127,
                "startTime": 6.289655172413794,
                "duration": 0.1
            },
            {
                "pitch": 38,
                "velocity": 99,
                "startTime": 6.620689655172414,
                "duration": 0.1
            },
            {
                "pitch": 38,
                "velocity": 127,
                "startTime": 6.797241379310345,
                "duration": 0.1
            },
            {
                "pitch": 38,
                "velocity": 127,
                "startTime": 7.304827586206897,
                "duration": 0.1
            },
            {
                "pitch": 38,
                "velocity": 127,
                "startTime": 7.812413793103449,
                "duration": 0.1
            },
            {
                "pitch": 38,
                "velocity": 127,
                "startTime": 8.32,
                "duration": 0.1
            },
            {
                "pitch": 38,
                "velocity": 127,
                "startTime": 8.849655172413794,
                "duration": 0.1
            },
            {
                "pitch": 38,
                "velocity": 127,
                "startTime": 9.6,
                "duration": 0.1
            },
            {
                "pitch": 38,
                "velocity": 127,
                "startTime": 9.931034482758621,
                "duration": 0.1
            },
            {
                "pitch": 38,
                "velocity": 127,
                "startTime": 9.997241379310346,
                "duration": 0.1
            },
            {
                "pitch": 38,
                "velocity": 127,
                "startTime": 10.37241379310345,
                "duration": 0.1
            },
            {
                "pitch": 38,
                "velocity": 127,
                "startTime": 10.902068965517241,
                "duration": 0.1
            },
            {
                "pitch": 38,
                "velocity": 127,
                "startTime": 11.03448275862069,
                "duration": 0.1
            },
            {
                "pitch": 38,
                "velocity": 127,
                "startTime": 11.078620689655173,
                "duration": 0.1
            },
            {
                "pitch": 38,
                "velocity": 127,
                "startTime": 11.431724137931035,
                "duration": 0.1
            },
            {
                "pitch": 38,
                "velocity": 127,
                "startTime": 11.939310344827588,
                "duration": 0.1
            },
            {
                "pitch": 38,
                "velocity": 127,
                "startTime": 12.424827586206899,
                "duration": 0.1
            },
            {
                "pitch": 38,
                "velocity": 127,
                "startTime": 13.462068965517242,
                "duration": 0.1
            },
            {
                "pitch": 38,
                "velocity": 103,
                "startTime": 13.815172413793105,
                "duration": 0.1
            },
            {
                "pitch": 38,
                "velocity": 127,
                "startTime": 13.969655172413793,
                "duration": 0.1
            },
            {
                "pitch": 38,
                "velocity": 127,
                "startTime": 13.991724137931035,
                "duration": 0.1
            },
            {
                "pitch": 38,
                "velocity": 106,
                "startTime": 14.322758620689656,
                "duration": 0.1
            },
            {
                "pitch": 38,
                "velocity": 127,
                "startTime": 14.499310344827586,
                "duration": 0.1
            },
            {
                "pitch": 38,
                "velocity": 127,
                "startTime": 14.830344827586208,
                "duration": 0.1
            },
            {
                "pitch": 38,
                "velocity": 127,
                "startTime": 15.00689655172414,
                "duration": 0.1
            },
            {
                "pitch": 38,
                "velocity": 127,
                "startTime": 15.227586206896554,
                "duration": 0.1
            },
            {
                "pitch": 38,
                "velocity": 56,
                "startTime": 15.33793103448276,
                "duration": 0.1
            },
            {
                "pitch": 38,
                "velocity": 127,
                "startTime": 15.382068965517242,
                "duration": 0.1
            },
            {
                "pitch": 38,
                "velocity": 127,
                "startTime": 15.51448275862069,
                "duration": 0.1
            },
            {
                "pitch": 38,
                "velocity": 127,
                "startTime": 15.64689655172414,
                "duration": 0.1
            },
            {
                "pitch": 38,
                "velocity": 127,
                "startTime": 15.735172413793105,
                "duration": 0.1
            },
            {
                "pitch": 38,
                "velocity": 53,
                "startTime": 15.779310344827586,
                "duration": 0.1
            },
            {
                "pitch": 38,
                "velocity": 48,
                "startTime": 15.867586206896554,
                "duration": 0.1
            },
            {
                "pitch": 38,
                "velocity": 127,
                "startTime": 15.911724137931035,
                "duration": 0.1
            },
            {
                "pitch": 38,
                "velocity": 10,
                "startTime": 16,
                "duration": 0.1
            }
        ],
        "tempo": 120,
        "timeSignature": [
            4,
            4
        ],
        "lengthInBeats": 16
    },
    description: `Snare pattern from 5_jazz-swing_215_beat_4-4_18.midi`,
    tags: ["drum","snare","generic","beat","straight"],
    source: 'EGMD Dataset (5_jazz-swing_215_beat_4-4_18.midi)',
    metadata: {
        "complexity": 0.49,
        "density": 1
    },
  },
  {
    id: 'egmd_hats_ride_hats_ride_2_jazz_158_beat_4-4_1',
    name: 'Hats/Ride',
    category: CardCategory.TIME,
    scope: CardScope.LOCAL,
    timeType: TimeCardType.DRUM_GROOVE,
    durationType: CardDurationType.INSTANCE,
    lengthBeats: 16,
    repeatCount: 2,
    timeMusicData: {
        "meter": "4/4",
        "tempoBPM": 120
    },
    midiClip: {
        "notes": [
            {
                "pitch": 44,
                "velocity": 27,
                "startTime": 0.5533596837944664,
                "duration": 0.1
            },
            {
                "pitch": 44,
                "velocity": 25,
                "startTime": 0.9960474308300395,
                "duration": 0.1
            },
            {
                "pitch": 44,
                "velocity": 30,
                "startTime": 1.359683794466403,
                "duration": 0.1
            },
            {
                "pitch": 44,
                "velocity": 20,
                "startTime": 2.355731225296443,
                "duration": 0.1
            },
            {
                "pitch": 44,
                "velocity": 20,
                "startTime": 2.608695652173913,
                "duration": 0.1
            },
            {
                "pitch": 44,
                "velocity": 22,
                "startTime": 3.4940711462450595,
                "duration": 0.1
            },
            {
                "pitch": 44,
                "velocity": 17,
                "startTime": 4.569169960474308,
                "duration": 0.1
            },
            {
                "pitch": 44,
                "velocity": 22,
                "startTime": 5.122529644268774,
                "duration": 0.1
            },
            {
                "pitch": 44,
                "velocity": 22,
                "startTime": 5.549407114624506,
                "duration": 0.1
            },
            {
                "pitch": 44,
                "velocity": 42,
                "startTime": 5.644268774703558,
                "duration": 0.1
            },
            {
                "pitch": 44,
                "velocity": 25,
                "startTime": 6.007905138339921,
                "duration": 0.1
            },
            {
                "pitch": 44,
                "velocity": 20,
                "startTime": 6.1185770750988135,
                "duration": 0.1
            },
            {
                "pitch": 44,
                "velocity": 22,
                "startTime": 6.577075098814229,
                "duration": 0.1
            },
            {
                "pitch": 44,
                "velocity": 30,
                "startTime": 6.640316205533597,
                "duration": 0.1
            },
            {
                "pitch": 44,
                "velocity": 25,
                "startTime": 6.75098814229249,
                "duration": 0.1
            },
            {
                "pitch": 44,
                "velocity": 32,
                "startTime": 6.877470355731225,
                "duration": 0.1
            },
            {
                "pitch": 44,
                "velocity": 77,
                "startTime": 7.00395256916996,
                "duration": 0.1
            },
            {
                "pitch": 44,
                "velocity": 22,
                "startTime": 7.256916996047432,
                "duration": 0.1
            },
            {
                "pitch": 51,
                "velocity": 98,
                "startTime": 7.984189723320158,
                "duration": 0.1
            },
            {
                "pitch": 44,
                "velocity": 20,
                "startTime": 8.569169960474309,
                "duration": 0.1
            },
            {
                "pitch": 44,
                "velocity": 22,
                "startTime": 8.632411067193676,
                "duration": 0.1
            },
            {
                "pitch": 44,
                "velocity": 40,
                "startTime": 9.011857707509881,
                "duration": 0.1
            },
            {
                "pitch": 44,
                "velocity": 32,
                "startTime": 9.122529644268775,
                "duration": 0.1
            },
            {
                "pitch": 44,
                "velocity": 27,
                "startTime": 9.24901185770751,
                "duration": 0.1
            },
            {
                "pitch": 44,
                "velocity": 27,
                "startTime": 9.34387351778656,
                "duration": 0.1
            },
            {
                "pitch": 51,
                "velocity": 86,
                "startTime": 9.486166007905139,
                "duration": 0.1
            },
            {
                "pitch": 44,
                "velocity": 17,
                "startTime": 9.517786561264822,
                "duration": 0.1
            },
            {
                "pitch": 44,
                "velocity": 20,
                "startTime": 9.628458498023715,
                "duration": 0.1
            },
            {
                "pitch": 44,
                "velocity": 17,
                "startTime": 9.99209486166008,
                "duration": 0.1
            },
            {
                "pitch": 44,
                "velocity": 22,
                "startTime": 10.371541501976285,
                "duration": 0.1
            },
            {
                "pitch": 44,
                "velocity": 17,
                "startTime": 10.735177865612648,
                "duration": 0.1
            },
            {
                "pitch": 44,
                "velocity": 20,
                "startTime": 11.241106719367588,
                "duration": 0.1
            },
            {
                "pitch": 44,
                "velocity": 17,
                "startTime": 11.620553359683793,
                "duration": 0.1
            },
            {
                "pitch": 44,
                "velocity": 22,
                "startTime": 12.553359683794467,
                "duration": 0.1
            },
            {
                "pitch": 44,
                "velocity": 20,
                "startTime": 12.75889328063241,
                "duration": 0.1
            },
            {
                "pitch": 44,
                "velocity": 20,
                "startTime": 13.138339920948615,
                "duration": 0.1
            },
            {
                "pitch": 44,
                "velocity": 17,
                "startTime": 13.75494071146245,
                "duration": 0.1
            },
            {
                "pitch": 44,
                "velocity": 17,
                "startTime": 14.00790513833992,
                "duration": 0.1
            },
            {
                "pitch": 44,
                "velocity": 25,
                "startTime": 14.118577075098814,
                "duration": 0.1
            },
            {
                "pitch": 44,
                "velocity": 20,
                "startTime": 14.245059288537549,
                "duration": 0.1
            },
            {
                "pitch": 44,
                "velocity": 17,
                "startTime": 14.355731225296443,
                "duration": 0.1
            },
            {
                "pitch": 51,
                "velocity": 115,
                "startTime": 15.00395256916996,
                "duration": 0.1
            },
            {
                "pitch": 51,
                "velocity": 127,
                "startTime": 16,
                "duration": 0.1
            }
        ],
        "tempo": 120,
        "timeSignature": [
            4,
            4
        ],
        "lengthInBeats": 16
    },
    description: `Hats/Ride pattern from 2_jazz_158_beat_4-4_1.midi`,
    tags: ["drum","hats_ride","generic","beat","straight"],
    source: 'EGMD Dataset (2_jazz_158_beat_4-4_1.midi)',
    metadata: {
        "complexity": 0.5,
        "density": 0.6719
    },
  },
  {
    id: 'egmd_hats_ride_hats_ride_4_latin-brazilian-samba_89_beat_4-4_1',
    name: 'Hats/Ride',
    category: CardCategory.TIME,
    scope: CardScope.LOCAL,
    timeType: TimeCardType.DRUM_GROOVE,
    durationType: CardDurationType.INSTANCE,
    lengthBeats: 16,
    repeatCount: 2,
    timeMusicData: {
        "meter": "4/4",
        "tempoBPM": 120
    },
    midiClip: {
        "notes": [
            {
                "pitch": 44,
                "velocity": 40,
                "startTime": 0.12570145903479238,
                "duration": 0.1
            },
            {
                "pitch": 44,
                "velocity": 32,
                "startTime": 0.3591470258136925,
                "duration": 0.1
            },
            {
                "pitch": 44,
                "velocity": 35,
                "startTime": 0.6105499438832772,
                "duration": 0.1
            },
            {
                "pitch": 44,
                "velocity": 50,
                "startTime": 0.8799102132435466,
                "duration": 0.1
            },
            {
                "pitch": 44,
                "velocity": 47,
                "startTime": 1.1313131313131313,
                "duration": 0.1
            },
            {
                "pitch": 44,
                "velocity": 42,
                "startTime": 1.3827160493827162,
                "duration": 0.1
            },
            {
                "pitch": 44,
                "velocity": 50,
                "startTime": 1.634118967452301,
                "duration": 0.1
            },
            {
                "pitch": 44,
                "velocity": 55,
                "startTime": 1.8855218855218858,
                "duration": 0.1
            },
            {
                "pitch": 44,
                "velocity": 55,
                "startTime": 2.154882154882155,
                "duration": 0.1
            },
            {
                "pitch": 44,
                "velocity": 95,
                "startTime": 2.388327721661055,
                "duration": 0.1
            },
            {
                "pitch": 44,
                "velocity": 67,
                "startTime": 2.6397306397306397,
                "duration": 0.1
            },
            {
                "pitch": 44,
                "velocity": 60,
                "startTime": 2.87317620650954,
                "duration": 0.1
            },
            {
                "pitch": 44,
                "velocity": 52,
                "startTime": 3.1425364758698096,
                "duration": 0.1
            },
            {
                "pitch": 44,
                "velocity": 50,
                "startTime": 3.3759820426487095,
                "duration": 0.1
            },
            {
                "pitch": 44,
                "velocity": 47,
                "startTime": 3.6453423120089785,
                "duration": 0.1
            },
            {
                "pitch": 44,
                "velocity": 52,
                "startTime": 3.8967452300785634,
                "duration": 0.1
            },
            {
                "pitch": 44,
                "velocity": 50,
                "startTime": 4.130190796857463,
                "duration": 0.1
            },
            {
                "pitch": 44,
                "velocity": 40,
                "startTime": 4.399551066217733,
                "duration": 0.1
            },
            {
                "pitch": 44,
                "velocity": 37,
                "startTime": 4.650953984287318,
                "duration": 0.1
            },
            {
                "pitch": 44,
                "velocity": 37,
                "startTime": 4.920314253647588,
                "duration": 0.1
            },
            {
                "pitch": 44,
                "velocity": 57,
                "startTime": 5.171717171717172,
                "duration": 0.1
            },
            {
                "pitch": 44,
                "velocity": 70,
                "startTime": 5.405162738496072,
                "duration": 0.1
            },
            {
                "pitch": 44,
                "velocity": 60,
                "startTime": 5.656565656565657,
                "duration": 0.1
            },
            {
                "pitch": 44,
                "velocity": 45,
                "startTime": 5.907968574635241,
                "duration": 0.1
            },
            {
                "pitch": 44,
                "velocity": 57,
                "startTime": 6.1593714927048255,
                "duration": 0.1
            },
            {
                "pitch": 44,
                "velocity": 52,
                "startTime": 6.410774410774412,
                "duration": 0.1
            },
            {
                "pitch": 44,
                "velocity": 50,
                "startTime": 6.662177328843996,
                "duration": 0.1
            },
            {
                "pitch": 44,
                "velocity": 45,
                "startTime": 6.931537598204265,
                "duration": 0.1
            },
            {
                "pitch": 44,
                "velocity": 65,
                "startTime": 7.18294051627385,
                "duration": 0.1
            },
            {
                "pitch": 44,
                "velocity": 47,
                "startTime": 7.416386083052751,
                "duration": 0.1
            },
            {
                "pitch": 44,
                "velocity": 50,
                "startTime": 7.667789001122335,
                "duration": 0.1
            },
            {
                "pitch": 44,
                "velocity": 45,
                "startTime": 7.937149270482605,
                "duration": 0.1
            },
            {
                "pitch": 44,
                "velocity": 67,
                "startTime": 8.188552188552189,
                "duration": 0.1
            },
            {
                "pitch": 44,
                "velocity": 50,
                "startTime": 8.421997755331088,
                "duration": 0.1
            },
            {
                "pitch": 44,
                "velocity": 52,
                "startTime": 8.673400673400675,
                "duration": 0.1
            },
            {
                "pitch": 44,
                "velocity": 57,
                "startTime": 8.942760942760943,
                "duration": 0.1
            },
            {
                "pitch": 44,
                "velocity": 52,
                "startTime": 9.194163860830528,
                "duration": 0.1
            },
            {
                "pitch": 44,
                "velocity": 50,
                "startTime": 9.463524130190796,
                "duration": 0.1
            },
            {
                "pitch": 44,
                "velocity": 47,
                "startTime": 9.696969696969697,
                "duration": 0.1
            },
            {
                "pitch": 44,
                "velocity": 60,
                "startTime": 9.94837261503928,
                "duration": 0.1
            },
            {
                "pitch": 44,
                "velocity": 75,
                "startTime": 10.199775533108868,
                "duration": 0.1
            },
            {
                "pitch": 44,
                "velocity": 62,
                "startTime": 10.451178451178452,
                "duration": 0.1
            },
            {
                "pitch": 44,
                "velocity": 72,
                "startTime": 10.702581369248037,
                "duration": 0.1
            },
            {
                "pitch": 44,
                "velocity": 57,
                "startTime": 10.971941638608307,
                "duration": 0.1
            },
            {
                "pitch": 44,
                "velocity": 65,
                "startTime": 11.22334455667789,
                "duration": 0.1
            },
            {
                "pitch": 44,
                "velocity": 57,
                "startTime": 11.474747474747474,
                "duration": 0.1
            },
            {
                "pitch": 44,
                "velocity": 57,
                "startTime": 11.72615039281706,
                "duration": 0.1
            },
            {
                "pitch": 44,
                "velocity": 55,
                "startTime": 11.977553310886643,
                "duration": 0.1
            },
            {
                "pitch": 44,
                "velocity": 62,
                "startTime": 12.228956228956228,
                "duration": 0.1
            },
            {
                "pitch": 44,
                "velocity": 50,
                "startTime": 12.462401795735131,
                "duration": 0.1
            },
            {
                "pitch": 44,
                "velocity": 47,
                "startTime": 12.713804713804715,
                "duration": 0.1
            },
            {
                "pitch": 44,
                "velocity": 62,
                "startTime": 12.983164983164984,
                "duration": 0.1
            },
            {
                "pitch": 44,
                "velocity": 57,
                "startTime": 13.234567901234568,
                "duration": 0.1
            },
            {
                "pitch": 44,
                "velocity": 65,
                "startTime": 13.485970819304153,
                "duration": 0.1
            },
            {
                "pitch": 44,
                "velocity": 55,
                "startTime": 13.737373737373737,
                "duration": 0.1
            },
            {
                "pitch": 44,
                "velocity": 77,
                "startTime": 13.988776655443322,
                "duration": 0.1
            },
            {
                "pitch": 44,
                "velocity": 75,
                "startTime": 14.240179573512906,
                "duration": 0.1
            },
            {
                "pitch": 44,
                "velocity": 77,
                "startTime": 14.491582491582491,
                "duration": 0.1
            },
            {
                "pitch": 44,
                "velocity": 60,
                "startTime": 14.742985409652078,
                "duration": 0.1
            },
            {
                "pitch": 44,
                "velocity": 62,
                "startTime": 14.994388327721662,
                "duration": 0.1
            },
            {
                "pitch": 44,
                "velocity": 65,
                "startTime": 15.245791245791247,
                "duration": 0.1
            },
            {
                "pitch": 44,
                "velocity": 52,
                "startTime": 15.497194163860831,
                "duration": 0.1
            },
            {
                "pitch": 44,
                "velocity": 57,
                "startTime": 15.748597081930416,
                "duration": 0.1
            },
            {
                "pitch": 44,
                "velocity": 50,
                "startTime": 16,
                "duration": 0.1
            }
        ],
        "tempo": 120,
        "timeSignature": [
            4,
            4
        ],
        "lengthInBeats": 16
    },
    description: `Hats/Ride pattern from 4_latin-brazilian-samba_89_beat_4-4_1.midi`,
    tags: ["drum","hats_ride","generic","beat","straight"],
    source: 'EGMD Dataset (4_latin-brazilian-samba_89_beat_4-4_1.midi)',
    metadata: {
        "complexity": 0.5,
        "density": 1
    },
  },
  {
    id: 'egmd_hats_ride_hats_ride_15_latin-venezuelan-joropo_80_beat_4-4_8',
    name: 'Hats/Ride',
    category: CardCategory.TIME,
    scope: CardScope.LOCAL,
    timeType: TimeCardType.DRUM_GROOVE,
    durationType: CardDurationType.INSTANCE,
    lengthBeats: 16,
    repeatCount: 2,
    timeMusicData: {
        "meter": "4/4",
        "tempoBPM": 120
    },
    midiClip: {
        "notes": [
            {
                "pitch": 42,
                "velocity": 27,
                "startTime": 1.5367231638418077,
                "duration": 0.1
            },
            {
                "pitch": 42,
                "velocity": 38,
                "startTime": 2.327683615819209,
                "duration": 0.1
            },
            {
                "pitch": 42,
                "velocity": 22,
                "startTime": 2.3728813559322033,
                "duration": 0.1
            },
            {
                "pitch": 42,
                "velocity": 52,
                "startTime": 2.3954802259887003,
                "duration": 0.1
            },
            {
                "pitch": 42,
                "velocity": 48,
                "startTime": 2.4180790960451977,
                "duration": 0.1
            },
            {
                "pitch": 42,
                "velocity": 48,
                "startTime": 2.7570621468926553,
                "duration": 0.1
            },
            {
                "pitch": 44,
                "velocity": 20,
                "startTime": 4.203389830508474,
                "duration": 0.1
            },
            {
                "pitch": 42,
                "velocity": 62,
                "startTime": 4.293785310734463,
                "duration": 0.1
            },
            {
                "pitch": 42,
                "velocity": 22,
                "startTime": 4.994350282485875,
                "duration": 0.1
            },
            {
                "pitch": 42,
                "velocity": 30,
                "startTime": 5.062146892655367,
                "duration": 0.1
            },
            {
                "pitch": 42,
                "velocity": 38,
                "startTime": 5.220338983050847,
                "duration": 0.1
            },
            {
                "pitch": 42,
                "velocity": 43,
                "startTime": 5.35593220338983,
                "duration": 0.1
            },
            {
                "pitch": 42,
                "velocity": 33,
                "startTime": 6.056497175141243,
                "duration": 0.1
            },
            {
                "pitch": 42,
                "velocity": 47,
                "startTime": 6.598870056497175,
                "duration": 0.1
            },
            {
                "pitch": 42,
                "velocity": 50,
                "startTime": 6.757062146892655,
                "duration": 0.1
            },
            {
                "pitch": 42,
                "velocity": 50,
                "startTime": 6.937853107344632,
                "duration": 0.1
            },
            {
                "pitch": 42,
                "velocity": 45,
                "startTime": 7.11864406779661,
                "duration": 0.1
            },
            {
                "pitch": 42,
                "velocity": 35,
                "startTime": 7.819209039548022,
                "duration": 0.1
            },
            {
                "pitch": 42,
                "velocity": 43,
                "startTime": 8.067796610169491,
                "duration": 0.1
            },
            {
                "pitch": 42,
                "velocity": 50,
                "startTime": 8.519774011299434,
                "duration": 0.1
            },
            {
                "pitch": 42,
                "velocity": 20,
                "startTime": 8.587570621468926,
                "duration": 0.1
            },
            {
                "pitch": 42,
                "velocity": 26,
                "startTime": 8.768361581920903,
                "duration": 0.1
            },
            {
                "pitch": 42,
                "velocity": 45,
                "startTime": 8.88135593220339,
                "duration": 0.1
            },
            {
                "pitch": 42,
                "velocity": 25,
                "startTime": 8.949152542372882,
                "duration": 0.1
            },
            {
                "pitch": 42,
                "velocity": 34,
                "startTime": 9.107344632768362,
                "duration": 0.1
            },
            {
                "pitch": 42,
                "velocity": 53,
                "startTime": 9.242937853107344,
                "duration": 0.1
            },
            {
                "pitch": 42,
                "velocity": 41,
                "startTime": 9.288135593220337,
                "duration": 0.1
            },
            {
                "pitch": 44,
                "velocity": 25,
                "startTime": 9.491525423728813,
                "duration": 0.1
            },
            {
                "pitch": 42,
                "velocity": 50,
                "startTime": 9.6045197740113,
                "duration": 0.1
            },
            {
                "pitch": 42,
                "velocity": 37,
                "startTime": 9.943502824858756,
                "duration": 0.1
            },
            {
                "pitch": 42,
                "velocity": 36,
                "startTime": 10.305084745762711,
                "duration": 0.1
            },
            {
                "pitch": 42,
                "velocity": 28,
                "startTime": 10.350282485875706,
                "duration": 0.1
            },
            {
                "pitch": 42,
                "velocity": 22,
                "startTime": 10.531073446327683,
                "duration": 0.1
            },
            {
                "pitch": 42,
                "velocity": 39,
                "startTime": 10.666666666666666,
                "duration": 0.1
            },
            {
                "pitch": 42,
                "velocity": 41,
                "startTime": 10.824858757062145,
                "duration": 0.1
            },
            {
                "pitch": 42,
                "velocity": 43,
                "startTime": 11.005649717514123,
                "duration": 0.1
            },
            {
                "pitch": 42,
                "velocity": 46,
                "startTime": 11.344632768361581,
                "duration": 0.1
            },
            {
                "pitch": 42,
                "velocity": 18,
                "startTime": 11.412429378531073,
                "duration": 0.1
            },
            {
                "pitch": 42,
                "velocity": 37,
                "startTime": 11.59322033898305,
                "duration": 0.1
            },
            {
                "pitch": 42,
                "velocity": 42,
                "startTime": 11.706214689265536,
                "duration": 0.1
            },
            {
                "pitch": 42,
                "velocity": 22,
                "startTime": 11.774011299435028,
                "duration": 0.1
            },
            {
                "pitch": 42,
                "velocity": 48,
                "startTime": 11.932203389830507,
                "duration": 0.1
            },
            {
                "pitch": 42,
                "velocity": 51,
                "startTime": 12.112994350282486,
                "duration": 0.1
            },
            {
                "pitch": 42,
                "velocity": 53,
                "startTime": 12.225988700564972,
                "duration": 0.1
            },
            {
                "pitch": 42,
                "velocity": 54,
                "startTime": 12.293785310734462,
                "duration": 0.1
            },
            {
                "pitch": 42,
                "velocity": 71,
                "startTime": 12.406779661016948,
                "duration": 0.1
            },
            {
                "pitch": 42,
                "velocity": 39,
                "startTime": 13.35593220338983,
                "duration": 0.1
            },
            {
                "pitch": 42,
                "velocity": 42,
                "startTime": 13.468926553672315,
                "duration": 0.1
            },
            {
                "pitch": 42,
                "velocity": 44,
                "startTime": 13.536723163841808,
                "duration": 0.1
            },
            {
                "pitch": 42,
                "velocity": 29,
                "startTime": 13.717514124293784,
                "duration": 0.1
            },
            {
                "pitch": 42,
                "velocity": 54,
                "startTime": 13.83050847457627,
                "duration": 0.1
            },
            {
                "pitch": 44,
                "velocity": 40,
                "startTime": 14.079096045197739,
                "duration": 0.1
            },
            {
                "pitch": 42,
                "velocity": 37,
                "startTime": 14.169491525423728,
                "duration": 0.1
            },
            {
                "pitch": 42,
                "velocity": 43,
                "startTime": 14.531073446327682,
                "duration": 0.1
            },
            {
                "pitch": 42,
                "velocity": 51,
                "startTime": 14.892655367231637,
                "duration": 0.1
            },
            {
                "pitch": 42,
                "velocity": 36,
                "startTime": 15.073446327683614,
                "duration": 0.1
            },
            {
                "pitch": 42,
                "velocity": 67,
                "startTime": 15.231638418079095,
                "duration": 0.1
            },
            {
                "pitch": 42,
                "velocity": 25,
                "startTime": 15.299435028248586,
                "duration": 0.1
            },
            {
                "pitch": 42,
                "velocity": 54,
                "startTime": 15.41242937853107,
                "duration": 0.1
            },
            {
                "pitch": 42,
                "velocity": 42,
                "startTime": 15.593220338983052,
                "duration": 0.1
            },
            {
                "pitch": 42,
                "velocity": 36,
                "startTime": 15.661016949152541,
                "duration": 0.1
            },
            {
                "pitch": 42,
                "velocity": 29,
                "startTime": 15.819209039548022,
                "duration": 0.1
            },
            {
                "pitch": 42,
                "velocity": 43,
                "startTime": 15.954802259887003,
                "duration": 0.1
            },
            {
                "pitch": 42,
                "velocity": 28,
                "startTime": 16,
                "duration": 0.1
            }
        ],
        "tempo": 120,
        "timeSignature": [
            4,
            4
        ],
        "lengthInBeats": 16
    },
    description: `Hats/Ride pattern from 15_latin-venezuelan-joropo_80_beat_4-4_8.midi`,
    tags: ["drum","hats_ride","generic","beat","straight"],
    source: 'EGMD Dataset (15_latin-venezuelan-joropo_80_beat_4-4_8.midi)',
    metadata: {
        "complexity": 0.5,
        "density": 1
    },
  },
  {
    id: 'egmd_hats_ride_hats_ride_103_pop_132_beat_4-4_1',
    name: 'Hats/Ride',
    category: CardCategory.TIME,
    scope: CardScope.LOCAL,
    timeType: TimeCardType.DRUM_GROOVE,
    durationType: CardDurationType.INSTANCE,
    lengthBeats: 16,
    repeatCount: 2,
    timeMusicData: {
        "meter": "4/4",
        "tempoBPM": 120
    },
    midiClip: {
        "notes": [
            {
                "pitch": 44,
                "velocity": 65,
                "startTime": 0.16,
                "duration": 0.1
            },
            {
                "pitch": 44,
                "velocity": 35,
                "startTime": 0.33999999999999997,
                "duration": 0.1
            },
            {
                "pitch": 42,
                "velocity": 25,
                "startTime": 1.4000000000000001,
                "duration": 0.1
            },
            {
                "pitch": 42,
                "velocity": 6,
                "startTime": 1.9800000000000002,
                "duration": 0.1
            },
            {
                "pitch": 42,
                "velocity": 5,
                "startTime": 2.36,
                "duration": 0.1
            },
            {
                "pitch": 42,
                "velocity": 17,
                "startTime": 2.74,
                "duration": 0.1
            },
            {
                "pitch": 42,
                "velocity": 20,
                "startTime": 2.92,
                "duration": 0.1
            },
            {
                "pitch": 42,
                "velocity": 32,
                "startTime": 3.1199999999999997,
                "duration": 0.1
            },
            {
                "pitch": 42,
                "velocity": 16,
                "startTime": 3.5000000000000004,
                "duration": 0.1
            },
            {
                "pitch": 42,
                "velocity": 9,
                "startTime": 3.88,
                "duration": 0.1
            },
            {
                "pitch": 42,
                "velocity": 25,
                "startTime": 4.06,
                "duration": 0.1
            },
            {
                "pitch": 42,
                "velocity": 15,
                "startTime": 4.26,
                "duration": 0.1
            },
            {
                "pitch": 42,
                "velocity": 21,
                "startTime": 4.44,
                "duration": 0.1
            },
            {
                "pitch": 42,
                "velocity": 21,
                "startTime": 4.64,
                "duration": 0.1
            },
            {
                "pitch": 42,
                "velocity": 18,
                "startTime": 4.82,
                "duration": 0.1
            },
            {
                "pitch": 42,
                "velocity": 34,
                "startTime": 5,
                "duration": 0.1
            },
            {
                "pitch": 42,
                "velocity": 20,
                "startTime": 5.2,
                "duration": 0.1
            },
            {
                "pitch": 42,
                "velocity": 15,
                "startTime": 5.4,
                "duration": 0.1
            },
            {
                "pitch": 42,
                "velocity": 24,
                "startTime": 5.58,
                "duration": 0.1
            },
            {
                "pitch": 42,
                "velocity": 29,
                "startTime": 5.76,
                "duration": 0.1
            },
            {
                "pitch": 44,
                "velocity": 32,
                "startTime": 6.22,
                "duration": 0.1
            },
            {
                "pitch": 44,
                "velocity": 80,
                "startTime": 6.419999999999999,
                "duration": 0.1
            },
            {
                "pitch": 44,
                "velocity": 62,
                "startTime": 6.6000000000000005,
                "duration": 0.1
            },
            {
                "pitch": 44,
                "velocity": 47,
                "startTime": 6.800000000000001,
                "duration": 0.1
            },
            {
                "pitch": 44,
                "velocity": 57,
                "startTime": 7.000000000000001,
                "duration": 0.1
            },
            {
                "pitch": 44,
                "velocity": 55,
                "startTime": 7.180000000000001,
                "duration": 0.1
            },
            {
                "pitch": 44,
                "velocity": 62,
                "startTime": 7.359999999999999,
                "duration": 0.1
            },
            {
                "pitch": 44,
                "velocity": 60,
                "startTime": 7.5600000000000005,
                "duration": 0.1
            },
            {
                "pitch": 44,
                "velocity": 75,
                "startTime": 7.739999999999999,
                "duration": 0.1
            },
            {
                "pitch": 44,
                "velocity": 75,
                "startTime": 7.9399999999999995,
                "duration": 0.1
            },
            {
                "pitch": 42,
                "velocity": 18,
                "startTime": 8.219999999999999,
                "duration": 0.1
            },
            {
                "pitch": 42,
                "velocity": 34,
                "startTime": 8.6,
                "duration": 0.1
            },
            {
                "pitch": 42,
                "velocity": 29,
                "startTime": 8.799999999999999,
                "duration": 0.1
            },
            {
                "pitch": 42,
                "velocity": 22,
                "startTime": 9.16,
                "duration": 0.1
            },
            {
                "pitch": 42,
                "velocity": 33,
                "startTime": 9.36,
                "duration": 0.1
            },
            {
                "pitch": 42,
                "velocity": 25,
                "startTime": 9.56,
                "duration": 0.1
            },
            {
                "pitch": 42,
                "velocity": 26,
                "startTime": 9.74,
                "duration": 0.1
            },
            {
                "pitch": 42,
                "velocity": 31,
                "startTime": 9.94,
                "duration": 0.1
            },
            {
                "pitch": 42,
                "velocity": 22,
                "startTime": 10.14,
                "duration": 0.1
            },
            {
                "pitch": 42,
                "velocity": 25,
                "startTime": 10.32,
                "duration": 0.1
            },
            {
                "pitch": 42,
                "velocity": 24,
                "startTime": 10.52,
                "duration": 0.1
            },
            {
                "pitch": 42,
                "velocity": 36,
                "startTime": 10.9,
                "duration": 0.1
            },
            {
                "pitch": 42,
                "velocity": 31,
                "startTime": 11.08,
                "duration": 0.1
            },
            {
                "pitch": 42,
                "velocity": 24,
                "startTime": 11.26,
                "duration": 0.1
            },
            {
                "pitch": 42,
                "velocity": 41,
                "startTime": 11.459999999999999,
                "duration": 0.1
            },
            {
                "pitch": 42,
                "velocity": 18,
                "startTime": 11.66,
                "duration": 0.1
            },
            {
                "pitch": 42,
                "velocity": 34,
                "startTime": 11.84,
                "duration": 0.1
            },
            {
                "pitch": 42,
                "velocity": 49,
                "startTime": 12.02,
                "duration": 0.1
            },
            {
                "pitch": 42,
                "velocity": 35,
                "startTime": 12.2,
                "duration": 0.1
            },
            {
                "pitch": 42,
                "velocity": 37,
                "startTime": 12.4,
                "duration": 0.1
            },
            {
                "pitch": 42,
                "velocity": 28,
                "startTime": 12.58,
                "duration": 0.1
            },
            {
                "pitch": 42,
                "velocity": 36,
                "startTime": 12.78,
                "duration": 0.1
            },
            {
                "pitch": 42,
                "velocity": 19,
                "startTime": 13.139999999999999,
                "duration": 0.1
            },
            {
                "pitch": 42,
                "velocity": 27,
                "startTime": 13.34,
                "duration": 0.1
            },
            {
                "pitch": 42,
                "velocity": 27,
                "startTime": 13.54,
                "duration": 0.1
            },
            {
                "pitch": 44,
                "velocity": 47,
                "startTime": 13.8,
                "duration": 0.1
            },
            {
                "pitch": 44,
                "velocity": 70,
                "startTime": 14.02,
                "duration": 0.1
            },
            {
                "pitch": 42,
                "velocity": 11,
                "startTime": 14.48,
                "duration": 0.1
            },
            {
                "pitch": 42,
                "velocity": 36,
                "startTime": 14.860000000000001,
                "duration": 0.1
            },
            {
                "pitch": 42,
                "velocity": 28,
                "startTime": 15.040000000000001,
                "duration": 0.1
            },
            {
                "pitch": 42,
                "velocity": 16,
                "startTime": 15.24,
                "duration": 0.1
            },
            {
                "pitch": 42,
                "velocity": 17,
                "startTime": 15.620000000000001,
                "duration": 0.1
            },
            {
                "pitch": 42,
                "velocity": 25,
                "startTime": 15.82,
                "duration": 0.1
            },
            {
                "pitch": 42,
                "velocity": 18,
                "startTime": 16,
                "duration": 0.1
            }
        ],
        "tempo": 120,
        "timeSignature": [
            4,
            4
        ],
        "lengthInBeats": 16
    },
    description: `Hats/Ride pattern from 103_pop_132_beat_4-4_1.midi`,
    tags: ["drum","hats_ride","generic","beat","straight"],
    source: 'EGMD Dataset (103_pop_132_beat_4-4_1.midi)',
    metadata: {
        "complexity": 0.5,
        "density": 1
    },
  },
  {
    id: 'egmd_hats_ride_hats_ride_106_hiphop_70_beat_4-4_8',
    name: 'Hats/Ride',
    category: CardCategory.TIME,
    scope: CardScope.LOCAL,
    timeType: TimeCardType.DRUM_GROOVE,
    durationType: CardDurationType.INSTANCE,
    lengthBeats: 16,
    repeatCount: 2,
    timeMusicData: {
        "meter": "4/4",
        "tempoBPM": 120
    },
    midiClip: {
        "notes": [
            {
                "pitch": 44,
                "velocity": 32,
                "startTime": 0,
                "duration": 0.1
            },
            {
                "pitch": 59,
                "velocity": 127,
                "startTime": 2.056108597285068,
                "duration": 0.1
            },
            {
                "pitch": 42,
                "velocity": 15,
                "startTime": 3.967420814479638,
                "duration": 0.1
            },
            {
                "pitch": 59,
                "velocity": 127,
                "startTime": 4.112217194570136,
                "duration": 0.1
            },
            {
                "pitch": 59,
                "velocity": 118,
                "startTime": 5.1692307692307695,
                "duration": 0.1
            },
            {
                "pitch": 59,
                "velocity": 127,
                "startTime": 5.676018099547511,
                "duration": 0.1
            },
            {
                "pitch": 59,
                "velocity": 127,
                "startTime": 6.182805429864254,
                "duration": 0.1
            },
            {
                "pitch": 59,
                "velocity": 127,
                "startTime": 7.09502262443439,
                "duration": 0.1
            },
            {
                "pitch": 59,
                "velocity": 127,
                "startTime": 7.746606334841629,
                "duration": 0.1
            },
            {
                "pitch": 44,
                "velocity": 22,
                "startTime": 7.8769230769230765,
                "duration": 0.1
            },
            {
                "pitch": 59,
                "velocity": 127,
                "startTime": 8.253393665158372,
                "duration": 0.1
            },
            {
                "pitch": 59,
                "velocity": 111,
                "startTime": 9.035294117647059,
                "duration": 0.1
            },
            {
                "pitch": 44,
                "velocity": 17,
                "startTime": 11.786425339366515,
                "duration": 0.1
            },
            {
                "pitch": 44,
                "velocity": 70,
                "startTime": 12.003619909502262,
                "duration": 0.1
            },
            {
                "pitch": 59,
                "velocity": 127,
                "startTime": 12.394570135746605,
                "duration": 0.1
            },
            {
                "pitch": 59,
                "velocity": 91,
                "startTime": 12.785520361990951,
                "duration": 0.1
            },
            {
                "pitch": 59,
                "velocity": 127,
                "startTime": 13.437104072398188,
                "duration": 0.1
            },
            {
                "pitch": 44,
                "velocity": 27,
                "startTime": 14.161085972850678,
                "duration": 0.1
            },
            {
                "pitch": 59,
                "velocity": 127,
                "startTime": 14.465158371040724,
                "duration": 0.1
            },
            {
                "pitch": 59,
                "velocity": 127,
                "startTime": 14.986425339366514,
                "duration": 0.1
            },
            {
                "pitch": 59,
                "velocity": 125,
                "startTime": 15.131221719457013,
                "duration": 0.1
            },
            {
                "pitch": 44,
                "velocity": 67,
                "startTime": 15.580090497737556,
                "duration": 0.1
            },
            {
                "pitch": 44,
                "velocity": 32,
                "startTime": 15.724886877828053,
                "duration": 0.1
            },
            {
                "pitch": 44,
                "velocity": 45,
                "startTime": 15.840723981900451,
                "duration": 0.1
            },
            {
                "pitch": 44,
                "velocity": 95,
                "startTime": 15.927601809954751,
                "duration": 0.1
            },
            {
                "pitch": 44,
                "velocity": 65,
                "startTime": 16,
                "duration": 0.1
            }
        ],
        "tempo": 120,
        "timeSignature": [
            4,
            4
        ],
        "lengthInBeats": 16
    },
    description: `Hats/Ride pattern from 106_hiphop_70_beat_4-4_8.midi`,
    tags: ["drum","hats_ride","generic","beat","straight"],
    source: 'EGMD Dataset (106_hiphop_70_beat_4-4_8.midi)',
    metadata: {
        "complexity": 0.5,
        "density": 0.4062
    },
  },
  {
    id: 'egmd_percussion_percussion_4_jazz-funk_116_beat_4-4_10',
    name: 'Percussion',
    category: CardCategory.TIME,
    scope: CardScope.LOCAL,
    timeType: TimeCardType.DRUM_GROOVE,
    durationType: CardDurationType.INSTANCE,
    lengthBeats: 16,
    repeatCount: 2,
    timeMusicData: {
        "meter": "4/4",
        "tempoBPM": 120
    },
    midiClip: {
        "notes": [
            {
                "pitch": 43,
                "velocity": 104,
                "startTime": 0.29648562300319486,
                "duration": 0.1
            },
            {
                "pitch": 55,
                "velocity": 64,
                "startTime": 0.4293929712460064,
                "duration": 0.1
            },
            {
                "pitch": 43,
                "velocity": 113,
                "startTime": 3.568051118210863,
                "duration": 0.1
            },
            {
                "pitch": 45,
                "velocity": 89,
                "startTime": 3.6293929712460065,
                "duration": 0.1
            },
            {
                "pitch": 48,
                "velocity": 105,
                "startTime": 3.680511182108626,
                "duration": 0.1
            },
            {
                "pitch": 55,
                "velocity": 96,
                "startTime": 3.9667731629392975,
                "duration": 0.1
            },
            {
                "pitch": 43,
                "velocity": 108,
                "startTime": 5.336741214057509,
                "duration": 0.1
            },
            {
                "pitch": 43,
                "velocity": 127,
                "startTime": 5.623003194888179,
                "duration": 0.1
            },
            {
                "pitch": 55,
                "velocity": 70,
                "startTime": 7.371246006389777,
                "duration": 0.1
            },
            {
                "pitch": 45,
                "velocity": 98,
                "startTime": 8.863897763578276,
                "duration": 0.1
            },
            {
                "pitch": 43,
                "velocity": 106,
                "startTime": 9.16038338658147,
                "duration": 0.1
            },
            {
                "pitch": 45,
                "velocity": 95,
                "startTime": 10.826837060702875,
                "duration": 0.1
            },
            {
                "pitch": 43,
                "velocity": 104,
                "startTime": 10.898402555910543,
                "duration": 0.1
            },
            {
                "pitch": 55,
                "velocity": 61,
                "startTime": 11.010862619808307,
                "duration": 0.1
            },
            {
                "pitch": 45,
                "velocity": 108,
                "startTime": 11.256230031948883,
                "duration": 0.1
            },
            {
                "pitch": 43,
                "velocity": 127,
                "startTime": 11.348242811501597,
                "duration": 0.1
            },
            {
                "pitch": 45,
                "velocity": 77,
                "startTime": 11.644728434504794,
                "duration": 0.1
            },
            {
                "pitch": 45,
                "velocity": 112,
                "startTime": 12.135463258785943,
                "duration": 0.1
            },
            {
                "pitch": 43,
                "velocity": 100,
                "startTime": 12.22747603833866,
                "duration": 0.1
            },
            {
                "pitch": 43,
                "velocity": 88,
                "startTime": 12.575079872204473,
                "duration": 0.1
            },
            {
                "pitch": 43,
                "velocity": 104,
                "startTime": 12.656869009584664,
                "duration": 0.1
            },
            {
                "pitch": 43,
                "velocity": 107,
                "startTime": 12.687539936102237,
                "duration": 0.1
            },
            {
                "pitch": 43,
                "velocity": 71,
                "startTime": 12.707987220447285,
                "duration": 0.1
            },
            {
                "pitch": 55,
                "velocity": 86,
                "startTime": 12.769329073482428,
                "duration": 0.1
            },
            {
                "pitch": 48,
                "velocity": 81,
                "startTime": 14.129073482428115,
                "duration": 0.1
            },
            {
                "pitch": 48,
                "velocity": 81,
                "startTime": 14.15974440894569,
                "duration": 0.1
            },
            {
                "pitch": 45,
                "velocity": 94,
                "startTime": 14.210862619808308,
                "duration": 0.1
            },
            {
                "pitch": 43,
                "velocity": 114,
                "startTime": 14.261980830670929,
                "duration": 0.1
            },
            {
                "pitch": 55,
                "velocity": 73,
                "startTime": 14.538019169329074,
                "duration": 0.1
            },
            {
                "pitch": 48,
                "velocity": 98,
                "startTime": 16,
                "duration": 0.1
            }
        ],
        "tempo": 120,
        "timeSignature": [
            4,
            4
        ],
        "lengthInBeats": 16
    },
    description: `Percussion pattern from 4_jazz-funk_116_beat_4-4_10.midi`,
    tags: ["drum","percussion","generic","beat","straight"],
    source: 'EGMD Dataset (4_jazz-funk_116_beat_4-4_10.midi)',
    metadata: {
        "complexity": 0.5,
        "density": 0.4688
    },
  },
  {
    id: 'egmd_percussion_percussion_18_latin-brazilian-samba_93_beat_4-4_1',
    name: 'Percussion',
    category: CardCategory.TIME,
    scope: CardScope.LOCAL,
    timeType: TimeCardType.DRUM_GROOVE,
    durationType: CardDurationType.INSTANCE,
    lengthBeats: 16,
    repeatCount: 2,
    timeMusicData: {
        "meter": "4/4",
        "tempoBPM": 120
    },
    midiClip: {
        "notes": [
            {
                "pitch": 43,
                "velocity": 109,
                "startTime": 0.8247422680412372,
                "duration": 0.1
            },
            {
                "pitch": 43,
                "velocity": 98,
                "startTime": 0.9690721649484537,
                "duration": 0.1
            },
            {
                "pitch": 45,
                "velocity": 101,
                "startTime": 1.1134020618556701,
                "duration": 0.1
            },
            {
                "pitch": 47,
                "velocity": 113,
                "startTime": 1.5876288659793816,
                "duration": 0.1
            },
            {
                "pitch": 43,
                "velocity": 108,
                "startTime": 2.082474226804124,
                "duration": 0.1
            },
            {
                "pitch": 45,
                "velocity": 91,
                "startTime": 2.2061855670103094,
                "duration": 0.1
            },
            {
                "pitch": 43,
                "velocity": 94,
                "startTime": 2.556701030927835,
                "duration": 0.1
            },
            {
                "pitch": 45,
                "velocity": 121,
                "startTime": 2.7010309278350517,
                "duration": 0.1
            },
            {
                "pitch": 43,
                "velocity": 100,
                "startTime": 3.0515463917525776,
                "duration": 0.1
            },
            {
                "pitch": 43,
                "velocity": 101,
                "startTime": 3.175257731958763,
                "duration": 0.1
            },
            {
                "pitch": 45,
                "velocity": 83,
                "startTime": 3.3195876288659796,
                "duration": 0.1
            },
            {
                "pitch": 43,
                "velocity": 103,
                "startTime": 3.6701030927835054,
                "duration": 0.1
            },
            {
                "pitch": 47,
                "velocity": 103,
                "startTime": 3.8144329896907214,
                "duration": 0.1
            },
            {
                "pitch": 43,
                "velocity": 91,
                "startTime": 4.288659793814433,
                "duration": 0.1
            },
            {
                "pitch": 45,
                "velocity": 88,
                "startTime": 4.432989690721649,
                "duration": 0.1
            },
            {
                "pitch": 43,
                "velocity": 99,
                "startTime": 4.762886597938144,
                "duration": 0.1
            },
            {
                "pitch": 47,
                "velocity": 86,
                "startTime": 4.907216494845361,
                "duration": 0.1
            },
            {
                "pitch": 43,
                "velocity": 101,
                "startTime": 5.402061855670103,
                "duration": 0.1
            },
            {
                "pitch": 45,
                "velocity": 87,
                "startTime": 5.5257731958762895,
                "duration": 0.1
            },
            {
                "pitch": 43,
                "velocity": 86,
                "startTime": 5.896907216494846,
                "duration": 0.1
            },
            {
                "pitch": 47,
                "velocity": 106,
                "startTime": 6.020618556701031,
                "duration": 0.1
            },
            {
                "pitch": 43,
                "velocity": 102,
                "startTime": 6.515463917525774,
                "duration": 0.1
            },
            {
                "pitch": 47,
                "velocity": 127,
                "startTime": 6.721649484536082,
                "duration": 0.1
            },
            {
                "pitch": 43,
                "velocity": 110,
                "startTime": 7.134020618556701,
                "duration": 0.1
            },
            {
                "pitch": 47,
                "velocity": 103,
                "startTime": 7.278350515463917,
                "duration": 0.1
            },
            {
                "pitch": 43,
                "velocity": 120,
                "startTime": 7.463917525773197,
                "duration": 0.1
            },
            {
                "pitch": 43,
                "velocity": 112,
                "startTime": 7.608247422680413,
                "duration": 0.1
            },
            {
                "pitch": 45,
                "velocity": 90,
                "startTime": 7.731958762886598,
                "duration": 0.1
            },
            {
                "pitch": 43,
                "velocity": 87,
                "startTime": 8.103092783505156,
                "duration": 0.1
            },
            {
                "pitch": 45,
                "velocity": 94,
                "startTime": 8.247422680412372,
                "duration": 0.1
            },
            {
                "pitch": 43,
                "velocity": 97,
                "startTime": 8.742268041237114,
                "duration": 0.1
            },
            {
                "pitch": 45,
                "velocity": 106,
                "startTime": 8.88659793814433,
                "duration": 0.1
            },
            {
                "pitch": 43,
                "velocity": 95,
                "startTime": 9.216494845360824,
                "duration": 0.1
            },
            {
                "pitch": 45,
                "velocity": 100,
                "startTime": 9.360824742268042,
                "duration": 0.1
            },
            {
                "pitch": 43,
                "velocity": 92,
                "startTime": 9.835051546391753,
                "duration": 0.1
            },
            {
                "pitch": 47,
                "velocity": 85,
                "startTime": 9.97938144329897,
                "duration": 0.1
            },
            {
                "pitch": 43,
                "velocity": 76,
                "startTime": 10.329896907216495,
                "duration": 0.1
            },
            {
                "pitch": 47,
                "velocity": 100,
                "startTime": 10.474226804123711,
                "duration": 0.1
            },
            {
                "pitch": 43,
                "velocity": 101,
                "startTime": 10.948453608247423,
                "duration": 0.1
            },
            {
                "pitch": 47,
                "velocity": 100,
                "startTime": 11.092783505154639,
                "duration": 0.1
            },
            {
                "pitch": 43,
                "velocity": 86,
                "startTime": 11.422680412371134,
                "duration": 0.1
            },
            {
                "pitch": 45,
                "velocity": 74,
                "startTime": 11.587628865979381,
                "duration": 0.1
            },
            {
                "pitch": 43,
                "velocity": 94,
                "startTime": 11.917525773195877,
                "duration": 0.1
            },
            {
                "pitch": 43,
                "velocity": 93,
                "startTime": 12.041237113402062,
                "duration": 0.1
            },
            {
                "pitch": 45,
                "velocity": 103,
                "startTime": 12.18556701030928,
                "duration": 0.1
            },
            {
                "pitch": 43,
                "velocity": 91,
                "startTime": 12.536082474226804,
                "duration": 0.1
            },
            {
                "pitch": 45,
                "velocity": 89,
                "startTime": 12.659793814432991,
                "duration": 0.1
            },
            {
                "pitch": 43,
                "velocity": 93,
                "startTime": 13.010309278350517,
                "duration": 0.1
            },
            {
                "pitch": 43,
                "velocity": 100,
                "startTime": 13.154639175257731,
                "duration": 0.1
            },
            {
                "pitch": 45,
                "velocity": 81,
                "startTime": 13.29896907216495,
                "duration": 0.1
            },
            {
                "pitch": 48,
                "velocity": 101,
                "startTime": 13.422680412371136,
                "duration": 0.1
            },
            {
                "pitch": 43,
                "velocity": 89,
                "startTime": 13.649484536082474,
                "duration": 0.1
            },
            {
                "pitch": 45,
                "velocity": 89,
                "startTime": 13.77319587628866,
                "duration": 0.1
            },
            {
                "pitch": 48,
                "velocity": 87,
                "startTime": 13.896907216494846,
                "duration": 0.1
            },
            {
                "pitch": 43,
                "velocity": 100,
                "startTime": 14.103092783505156,
                "duration": 0.1
            },
            {
                "pitch": 43,
                "velocity": 99,
                "startTime": 14.24742268041237,
                "duration": 0.1
            },
            {
                "pitch": 45,
                "velocity": 87,
                "startTime": 14.391752577319588,
                "duration": 0.1
            },
            {
                "pitch": 43,
                "velocity": 102,
                "startTime": 14.742268041237113,
                "duration": 0.1
            },
            {
                "pitch": 45,
                "velocity": 81,
                "startTime": 14.88659793814433,
                "duration": 0.1
            },
            {
                "pitch": 43,
                "velocity": 112,
                "startTime": 15.237113402061855,
                "duration": 0.1
            },
            {
                "pitch": 43,
                "velocity": 102,
                "startTime": 15.381443298969073,
                "duration": 0.1
            },
            {
                "pitch": 45,
                "velocity": 87,
                "startTime": 15.50515463917526,
                "duration": 0.1
            },
            {
                "pitch": 43,
                "velocity": 100,
                "startTime": 15.876288659793815,
                "duration": 0.1
            },
            {
                "pitch": 45,
                "velocity": 88,
                "startTime": 16,
                "duration": 0.1
            }
        ],
        "tempo": 120,
        "timeSignature": [
            4,
            4
        ],
        "lengthInBeats": 16
    },
    description: `Percussion pattern from 18_latin-brazilian-samba_93_beat_4-4_1.midi`,
    tags: ["drum","percussion","generic","beat","straight"],
    source: 'EGMD Dataset (18_latin-brazilian-samba_93_beat_4-4_1.midi)',
    metadata: {
        "complexity": 0.5,
        "density": 1
    },
  },
  {
    id: 'egmd_percussion_percussion_13_latin_118_beat_4-4_1',
    name: 'Percussion',
    category: CardCategory.TIME,
    scope: CardScope.LOCAL,
    timeType: TimeCardType.DRUM_GROOVE,
    durationType: CardDurationType.INSTANCE,
    lengthBeats: 16,
    repeatCount: 2,
    timeMusicData: {
        "meter": "4/4",
        "tempoBPM": 120
    },
    midiClip: {
        "notes": [
            {
                "pitch": 45,
                "velocity": 80,
                "startTime": 0.3329479768786127,
                "duration": 0.1
            },
            {
                "pitch": 43,
                "velocity": 59,
                "startTime": 0.7028901734104046,
                "duration": 0.1
            },
            {
                "pitch": 45,
                "velocity": 75,
                "startTime": 1.0913294797687862,
                "duration": 0.1
            },
            {
                "pitch": 43,
                "velocity": 87,
                "startTime": 1.4982658959537571,
                "duration": 0.1
            },
            {
                "pitch": 45,
                "velocity": 76,
                "startTime": 1.868208092485549,
                "duration": 0.1
            },
            {
                "pitch": 45,
                "velocity": 121,
                "startTime": 2.3491329479768788,
                "duration": 0.1
            },
            {
                "pitch": 43,
                "velocity": 127,
                "startTime": 2.3491329479768788,
                "duration": 0.1
            },
            {
                "pitch": 43,
                "velocity": 122,
                "startTime": 2.4601156069364163,
                "duration": 0.1
            },
            {
                "pitch": 45,
                "velocity": 104,
                "startTime": 2.478612716763006,
                "duration": 0.1
            },
            {
                "pitch": 43,
                "velocity": 121,
                "startTime": 2.5341040462427746,
                "duration": 0.1
            },
            {
                "pitch": 43,
                "velocity": 127,
                "startTime": 2.6635838150289017,
                "duration": 0.1
            },
            {
                "pitch": 45,
                "velocity": 127,
                "startTime": 2.6820809248554918,
                "duration": 0.1
            },
            {
                "pitch": 43,
                "velocity": 123,
                "startTime": 2.8115606936416184,
                "duration": 0.1
            },
            {
                "pitch": 45,
                "velocity": 84,
                "startTime": 2.867052023121387,
                "duration": 0.1
            },
            {
                "pitch": 43,
                "velocity": 127,
                "startTime": 2.9225433526011564,
                "duration": 0.1
            },
            {
                "pitch": 45,
                "velocity": 75,
                "startTime": 3.458959537572255,
                "duration": 0.1
            },
            {
                "pitch": 43,
                "velocity": 76,
                "startTime": 3.828901734104046,
                "duration": 0.1
            },
            {
                "pitch": 45,
                "velocity": 78,
                "startTime": 4.217341040462428,
                "duration": 0.1
            },
            {
                "pitch": 43,
                "velocity": 77,
                "startTime": 4.624277456647399,
                "duration": 0.1
            },
            {
                "pitch": 43,
                "velocity": 89,
                "startTime": 4.661271676300578,
                "duration": 0.1
            },
            {
                "pitch": 45,
                "velocity": 77,
                "startTime": 5.0127167630057805,
                "duration": 0.1
            },
            {
                "pitch": 45,
                "velocity": 80,
                "startTime": 5.401156069364162,
                "duration": 0.1
            },
            {
                "pitch": 43,
                "velocity": 127,
                "startTime": 5.475144508670521,
                "duration": 0.1
            },
            {
                "pitch": 43,
                "velocity": 118,
                "startTime": 5.734104046242774,
                "duration": 0.1
            },
            {
                "pitch": 45,
                "velocity": 95,
                "startTime": 5.789595375722544,
                "duration": 0.1
            },
            {
                "pitch": 43,
                "velocity": 127,
                "startTime": 5.8635838150289015,
                "duration": 0.1
            },
            {
                "pitch": 43,
                "velocity": 121,
                "startTime": 6.141040462427746,
                "duration": 0.1
            },
            {
                "pitch": 45,
                "velocity": 115,
                "startTime": 6.196531791907515,
                "duration": 0.1
            },
            {
                "pitch": 45,
                "velocity": 92,
                "startTime": 6.603468208092487,
                "duration": 0.1
            },
            {
                "pitch": 43,
                "velocity": 57,
                "startTime": 6.9734104046242775,
                "duration": 0.1
            },
            {
                "pitch": 45,
                "velocity": 86,
                "startTime": 7.36184971098266,
                "duration": 0.1
            },
            {
                "pitch": 43,
                "velocity": 76,
                "startTime": 7.750289017341041,
                "duration": 0.1
            },
            {
                "pitch": 43,
                "velocity": 81,
                "startTime": 7.787283236994219,
                "duration": 0.1
            },
            {
                "pitch": 45,
                "velocity": 84,
                "startTime": 8.157225433526012,
                "duration": 0.1
            },
            {
                "pitch": 45,
                "velocity": 85,
                "startTime": 8.527167630057804,
                "duration": 0.1
            },
            {
                "pitch": 45,
                "velocity": 127,
                "startTime": 8.601156069364162,
                "duration": 0.1
            },
            {
                "pitch": 43,
                "velocity": 126,
                "startTime": 8.73063583815029,
                "duration": 0.1
            },
            {
                "pitch": 45,
                "velocity": 105,
                "startTime": 8.878612716763007,
                "duration": 0.1
            },
            {
                "pitch": 45,
                "velocity": 127,
                "startTime": 8.952601156069365,
                "duration": 0.1
            },
            {
                "pitch": 45,
                "velocity": 127,
                "startTime": 9.13757225433526,
                "duration": 0.1
            },
            {
                "pitch": 43,
                "velocity": 113,
                "startTime": 9.285549132947978,
                "duration": 0.1
            },
            {
                "pitch": 43,
                "velocity": 127,
                "startTime": 9.359537572254336,
                "duration": 0.1
            },
            {
                "pitch": 45,
                "velocity": 83,
                "startTime": 9.729479768786128,
                "duration": 0.1
            },
            {
                "pitch": 43,
                "velocity": 93,
                "startTime": 10.09942196531792,
                "duration": 0.1
            },
            {
                "pitch": 45,
                "velocity": 79,
                "startTime": 10.506358381502892,
                "duration": 0.1
            },
            {
                "pitch": 43,
                "velocity": 64,
                "startTime": 10.876300578034682,
                "duration": 0.1
            },
            {
                "pitch": 43,
                "velocity": 92,
                "startTime": 10.913294797687861,
                "duration": 0.1
            },
            {
                "pitch": 45,
                "velocity": 95,
                "startTime": 11.283236994219653,
                "duration": 0.1
            },
            {
                "pitch": 43,
                "velocity": 127,
                "startTime": 11.745664739884393,
                "duration": 0.1
            },
            {
                "pitch": 43,
                "velocity": 115,
                "startTime": 11.782658959537574,
                "duration": 0.1
            },
            {
                "pitch": 43,
                "velocity": 127,
                "startTime": 12.152601156069364,
                "duration": 0.1
            },
            {
                "pitch": 45,
                "velocity": 100,
                "startTime": 12.85549132947977,
                "duration": 0.1
            },
            {
                "pitch": 43,
                "velocity": 61,
                "startTime": 13.22543352601156,
                "duration": 0.1
            },
            {
                "pitch": 45,
                "velocity": 100,
                "startTime": 13.650867052023123,
                "duration": 0.1
            },
            {
                "pitch": 43,
                "velocity": 96,
                "startTime": 14.020809248554915,
                "duration": 0.1
            },
            {
                "pitch": 43,
                "velocity": 112,
                "startTime": 14.057803468208093,
                "duration": 0.1
            },
            {
                "pitch": 45,
                "velocity": 110,
                "startTime": 14.427745664739884,
                "duration": 0.1
            },
            {
                "pitch": 43,
                "velocity": 92,
                "startTime": 14.816184971098266,
                "duration": 0.1
            },
            {
                "pitch": 45,
                "velocity": 127,
                "startTime": 15.149132947976879,
                "duration": 0.1
            },
            {
                "pitch": 45,
                "velocity": 127,
                "startTime": 15.260115606936418,
                "duration": 0.1
            },
            {
                "pitch": 43,
                "velocity": 127,
                "startTime": 15.334104046242775,
                "duration": 0.1
            },
            {
                "pitch": 43,
                "velocity": 127,
                "startTime": 15.482080924855492,
                "duration": 0.1
            },
            {
                "pitch": 43,
                "velocity": 127,
                "startTime": 15.61156069364162,
                "duration": 0.1
            },
            {
                "pitch": 45,
                "velocity": 76,
                "startTime": 16,
                "duration": 0.1
            }
        ],
        "tempo": 120,
        "timeSignature": [
            4,
            4
        ],
        "lengthInBeats": 16
    },
    description: `Percussion pattern from 13_latin_118_beat_4-4_1.midi`,
    tags: ["drum","percussion","generic","beat","straight"],
    source: 'EGMD Dataset (13_latin_118_beat_4-4_1.midi)',
    metadata: {
        "complexity": 0.5,
        "density": 1
    },
  },
  {
    id: 'egmd_percussion_percussion_24_rock_90_beat_4-4_1',
    name: 'Percussion',
    category: CardCategory.TIME,
    scope: CardScope.LOCAL,
    timeType: TimeCardType.DRUM_GROOVE,
    durationType: CardDurationType.INSTANCE,
    lengthBeats: 16,
    repeatCount: 2,
    timeMusicData: {
        "meter": "4/4",
        "tempoBPM": 120
    },
    midiClip: {
        "notes": [
            {
                "pitch": 55,
                "velocity": 99,
                "startTime": 0,
                "duration": 0.1
            },
            {
                "pitch": 48,
                "velocity": 106,
                "startTime": 0.5512920908379013,
                "duration": 0.1
            },
            {
                "pitch": 45,
                "velocity": 127,
                "startTime": 0.6014095536413469,
                "duration": 0.1
            },
            {
                "pitch": 55,
                "velocity": 101,
                "startTime": 0.6891151135473766,
                "duration": 0.1
            },
            {
                "pitch": 48,
                "velocity": 121,
                "startTime": 3.382928739232576,
                "duration": 0.1
            },
            {
                "pitch": 48,
                "velocity": 71,
                "startTime": 3.4330462020360217,
                "duration": 0.1
            },
            {
                "pitch": 55,
                "velocity": 91,
                "startTime": 3.470634299138606,
                "duration": 0.1
            },
            {
                "pitch": 48,
                "velocity": 124,
                "startTime": 5.826155050900548,
                "duration": 0.1
            },
            {
                "pitch": 48,
                "velocity": 102,
                "startTime": 5.863743148003132,
                "duration": 0.1
            },
            {
                "pitch": 48,
                "velocity": 127,
                "startTime": 5.901331245105717,
                "duration": 0.1
            },
            {
                "pitch": 48,
                "velocity": 127,
                "startTime": 5.951448707909162,
                "duration": 0.1
            },
            {
                "pitch": 45,
                "velocity": 119,
                "startTime": 5.989036805011747,
                "duration": 0.1
            },
            {
                "pitch": 45,
                "velocity": 110,
                "startTime": 6.02662490211433,
                "duration": 0.1
            },
            {
                "pitch": 45,
                "velocity": 127,
                "startTime": 6.076742364917776,
                "duration": 0.1
            },
            {
                "pitch": 45,
                "velocity": 112,
                "startTime": 6.1143304620203605,
                "duration": 0.1
            },
            {
                "pitch": 43,
                "velocity": 127,
                "startTime": 6.164447924823806,
                "duration": 0.1
            },
            {
                "pitch": 43,
                "velocity": 124,
                "startTime": 6.20203602192639,
                "duration": 0.1
            },
            {
                "pitch": 48,
                "velocity": 84,
                "startTime": 6.74079874706343,
                "duration": 0.1
            },
            {
                "pitch": 45,
                "velocity": 127,
                "startTime": 6.778386844166014,
                "duration": 0.1
            },
            {
                "pitch": 43,
                "velocity": 127,
                "startTime": 6.8660924040720435,
                "duration": 0.1
            },
            {
                "pitch": 43,
                "velocity": 117,
                "startTime": 6.916209866875489,
                "duration": 0.1
            },
            {
                "pitch": 48,
                "velocity": 127,
                "startTime": 7.304620203602192,
                "duration": 0.1
            },
            {
                "pitch": 48,
                "velocity": 100,
                "startTime": 7.354737666405638,
                "duration": 0.1
            },
            {
                "pitch": 45,
                "velocity": 127,
                "startTime": 7.442443226311668,
                "duration": 0.1
            },
            {
                "pitch": 45,
                "velocity": 127,
                "startTime": 7.480031323414252,
                "duration": 0.1
            },
            {
                "pitch": 43,
                "velocity": 103,
                "startTime": 7.567736883320282,
                "duration": 0.1
            },
            {
                "pitch": 43,
                "velocity": 127,
                "startTime": 7.605324980422865,
                "duration": 0.1
            },
            {
                "pitch": 55,
                "velocity": 93,
                "startTime": 8.169146436961627,
                "duration": 0.1
            },
            {
                "pitch": 48,
                "velocity": 93,
                "startTime": 8.607674236491777,
                "duration": 0.1
            },
            {
                "pitch": 48,
                "velocity": 100,
                "startTime": 8.645262333594362,
                "duration": 0.1
            },
            {
                "pitch": 48,
                "velocity": 127,
                "startTime": 8.695379796397807,
                "duration": 0.1
            },
            {
                "pitch": 48,
                "velocity": 127,
                "startTime": 8.783085356303836,
                "duration": 0.1
            },
            {
                "pitch": 48,
                "velocity": 105,
                "startTime": 8.80814408770556,
                "duration": 0.1
            },
            {
                "pitch": 48,
                "velocity": 127,
                "startTime": 8.833202819107282,
                "duration": 0.1
            },
            {
                "pitch": 48,
                "velocity": 127,
                "startTime": 8.870790916209867,
                "duration": 0.1
            },
            {
                "pitch": 45,
                "velocity": 88,
                "startTime": 8.89584964761159,
                "duration": 0.1
            },
            {
                "pitch": 45,
                "velocity": 108,
                "startTime": 8.933437744714174,
                "duration": 0.1
            },
            {
                "pitch": 45,
                "velocity": 127,
                "startTime": 8.958496476115895,
                "duration": 0.1
            },
            {
                "pitch": 45,
                "velocity": 108,
                "startTime": 8.98355520751762,
                "duration": 0.1
            },
            {
                "pitch": 55,
                "velocity": 81,
                "startTime": 9.397024275646045,
                "duration": 0.1
            },
            {
                "pitch": 55,
                "velocity": 76,
                "startTime": 13.21848081440877,
                "duration": 0.1
            },
            {
                "pitch": 55,
                "velocity": 83,
                "startTime": 14.609240407204384,
                "duration": 0.1
            },
            {
                "pitch": 48,
                "velocity": 127,
                "startTime": 15.92482380579483,
                "duration": 0.1
            },
            {
                "pitch": 48,
                "velocity": 90,
                "startTime": 15.962411902897417,
                "duration": 0.1
            },
            {
                "pitch": 55,
                "velocity": 89,
                "startTime": 16,
                "duration": 0.1
            }
        ],
        "tempo": 120,
        "timeSignature": [
            4,
            4
        ],
        "lengthInBeats": 16
    },
    description: `Percussion pattern from 24_rock_90_beat_4-4_1.midi`,
    tags: ["drum","percussion","generic","beat","straight"],
    source: 'EGMD Dataset (24_rock_90_beat_4-4_1.midi)',
    metadata: {
        "complexity": 0.5,
        "density": 0.7031
    },
  },
  {
    id: 'egmd_percussion_percussion_4_jazz-funk_116_beat_4-4_1',
    name: 'Percussion',
    category: CardCategory.TIME,
    scope: CardScope.LOCAL,
    timeType: TimeCardType.DRUM_GROOVE,
    durationType: CardDurationType.INSTANCE,
    lengthBeats: 16,
    repeatCount: 2,
    timeMusicData: {
        "meter": "4/4",
        "tempoBPM": 120
    },
    midiClip: {
        "notes": [
            {
                "pitch": 43,
                "velocity": 104,
                "startTime": 0.29648562300319486,
                "duration": 0.1
            },
            {
                "pitch": 55,
                "velocity": 64,
                "startTime": 0.4293929712460064,
                "duration": 0.1
            },
            {
                "pitch": 43,
                "velocity": 113,
                "startTime": 3.568051118210863,
                "duration": 0.1
            },
            {
                "pitch": 45,
                "velocity": 89,
                "startTime": 3.6293929712460065,
                "duration": 0.1
            },
            {
                "pitch": 48,
                "velocity": 105,
                "startTime": 3.680511182108626,
                "duration": 0.1
            },
            {
                "pitch": 55,
                "velocity": 96,
                "startTime": 3.9667731629392975,
                "duration": 0.1
            },
            {
                "pitch": 43,
                "velocity": 108,
                "startTime": 5.336741214057509,
                "duration": 0.1
            },
            {
                "pitch": 43,
                "velocity": 127,
                "startTime": 5.623003194888179,
                "duration": 0.1
            },
            {
                "pitch": 55,
                "velocity": 70,
                "startTime": 7.371246006389777,
                "duration": 0.1
            },
            {
                "pitch": 45,
                "velocity": 98,
                "startTime": 8.863897763578276,
                "duration": 0.1
            },
            {
                "pitch": 43,
                "velocity": 106,
                "startTime": 9.16038338658147,
                "duration": 0.1
            },
            {
                "pitch": 45,
                "velocity": 95,
                "startTime": 10.826837060702875,
                "duration": 0.1
            },
            {
                "pitch": 43,
                "velocity": 104,
                "startTime": 10.898402555910543,
                "duration": 0.1
            },
            {
                "pitch": 55,
                "velocity": 61,
                "startTime": 11.010862619808307,
                "duration": 0.1
            },
            {
                "pitch": 45,
                "velocity": 108,
                "startTime": 11.256230031948883,
                "duration": 0.1
            },
            {
                "pitch": 43,
                "velocity": 127,
                "startTime": 11.348242811501597,
                "duration": 0.1
            },
            {
                "pitch": 45,
                "velocity": 77,
                "startTime": 11.644728434504794,
                "duration": 0.1
            },
            {
                "pitch": 45,
                "velocity": 112,
                "startTime": 12.135463258785943,
                "duration": 0.1
            },
            {
                "pitch": 43,
                "velocity": 100,
                "startTime": 12.22747603833866,
                "duration": 0.1
            },
            {
                "pitch": 47,
                "velocity": 98,
                "startTime": 12.523961661341854,
                "duration": 0.1
            },
            {
                "pitch": 43,
                "velocity": 88,
                "startTime": 12.575079872204473,
                "duration": 0.1
            },
            {
                "pitch": 43,
                "velocity": 104,
                "startTime": 12.656869009584664,
                "duration": 0.1
            },
            {
                "pitch": 43,
                "velocity": 107,
                "startTime": 12.687539936102237,
                "duration": 0.1
            },
            {
                "pitch": 43,
                "velocity": 71,
                "startTime": 12.707987220447285,
                "duration": 0.1
            },
            {
                "pitch": 55,
                "velocity": 86,
                "startTime": 12.769329073482428,
                "duration": 0.1
            },
            {
                "pitch": 48,
                "velocity": 81,
                "startTime": 14.129073482428115,
                "duration": 0.1
            },
            {
                "pitch": 48,
                "velocity": 81,
                "startTime": 14.15974440894569,
                "duration": 0.1
            },
            {
                "pitch": 45,
                "velocity": 94,
                "startTime": 14.210862619808308,
                "duration": 0.1
            },
            {
                "pitch": 43,
                "velocity": 114,
                "startTime": 14.261980830670929,
                "duration": 0.1
            },
            {
                "pitch": 55,
                "velocity": 73,
                "startTime": 14.538019169329074,
                "duration": 0.1
            },
            {
                "pitch": 48,
                "velocity": 98,
                "startTime": 16,
                "duration": 0.1
            }
        ],
        "tempo": 120,
        "timeSignature": [
            4,
            4
        ],
        "lengthInBeats": 16
    },
    description: `Percussion pattern from 4_jazz-funk_116_beat_4-4_1.midi`,
    tags: ["drum","percussion","generic","beat","straight"],
    source: 'EGMD Dataset (4_jazz-funk_116_beat_4-4_1.midi)',
    metadata: {
        "complexity": 0.51,
        "density": 0.4844
    },
  }
];
