<REAPER_PROJECT 0.1 "6.82/OSX64" 1708000000
  RIPPLE 0
  GROUPOVERRIDE 0 0 0
  AUTOXFADE 129
  ENVATTACH 3
  POOLEDENVATTACH 0
  MIXERUIFLAGS 11 48
  PEAKGAIN 1
  FEEDBACK 0
  PANLAW 1
  PROJOFFS 0 0 0
  MAXPROJLEN 0 185.000000
  GRID 3199 8 1 8 1 0 0 0
  TIMEMODE 1 5 -1 30 0 0 -1
  VIDEO_CONFIG 0 0 256
  PANMODE 3
  CURSOR 0
  ZOOM 100 0 0
  VZOOMEX 6 0
  USE_REC_CFG 0
  RECMODE 1
  SMPTESYNC 0 30 100 40 1000 300 0 0 0 0 0
  LOOP 0
  LOOPGRAN 0
  RECORD_PATH "" ""
  <RECORD_CFG
    ZXZhdw==
  >
  <APPLYFX_CFG
  >
  RENDER_FILE ""
  RENDER_PATTERN ""
  RENDER_FMT 0 2 0
  RENDER_1X 0
  RENDER_RANGE 1 0 0 18 1000
  RENDER_RESAMPLE 3 0 1
  RENDER_ADDTOPROJ 0
  RENDER_STEMS 0
  RENDER_DITHER 0
  TIMELOCKMODE 1
  TEMPOENVLOCKMODE 1
  ITEMMIX 1
  DEFPITCHMODE 589824 0
  TAKELANE 1
  SAMPLERATE 48000 0 0
  <RENDER_CFG2
  >
  LOCK 1
  <METRONOME 6 2
    VOL 0.25 0.125
    FREQ 800 1600 1
    BEATLEN 4
    SAMPLES "" ""
    PATTERN 2863311530 2863311530
    MULT 1
  >
  MASTER_NCH 2
  MASTER_VOLUME 1
  MASTER_FX 1
  MASTER_SEL 0
  <TEMPOENVEX
    ACT 0 -1
    VIS 1 0 1
    LANEHEIGHT 0 0
    ARM 0
    DEFSHAPE 0 -1 -1
    PT 0 120 0
  >
  <PROJBAY
  >
    MARKER 1 0.000000 "Intro" 1 0 1 B {89B02B4F-17A9-48DC-A934-DB8A865F0139} 0
  MARKER 2 16.000000 "Verse 1" 1 0 1 B {B90877C6-B660-454E-8575-DB3163C79F09} 0
  MARKER 3 48.000000 "Chorus 1" 1 0 1 B {F8A72FA7-9FD1-4123-97E1-F820B487FEA9} 0
  MARKER 4 80.000000 "Verse 2" 1 0 1 B {848A5A87-A0FC-4D7C-AB1D-14A50FC35B94} 0
  MARKER 5 112.000000 "Bridge" 1 0 1 B {2AFE5927-9383-46B0-8A4D-314F084D524F} 0
  MARKER 6 133.000000 "Chorus 2" 1 0 1 B {A19310FA-E844-4CB2-9567-E1F2C63251E9} 0
  MARKER 7 165.000000 "Outro" 1 0 1 B {B1EA7D70-A884-48E1-B172-EA00BB928DAF} 0
  <TRACK {DC1636D1-4F6A-4CA3-8AEE-D662259B2BD5}
    NAME "Chords"
    PEAKCOL 33522258
    BEAT -1
    AUTOMODE 0
    VOLPAN 1 0 0.6 -1
    MUTESOLO 0 0 0
    IPHASE 0
    PLAYOFFS 0 1
    ISBUS 0 0
    BUSCOMP 0 0 0 0 0
    SHOWINMIX 1 0.6667 0.5 1 0.5 0 0 0
    FREEMODE 0
    SEL 0
    REC 0 0 1 0 0 0 0
    VU 2
    TRACKHEIGHT 0 0 0 0 0 0
    INQ 0 0 0 0.5 100 0 0 100
    NCHAN 2
    FX 1
    TRACKID {DC638CA2-156E-45BA-8980-8E97C4E98EF0}
    PERF 0
    MIDIOUT -1
    MAINSEND 1 0
    <ITEM
      POSITION 0.000000
      SNAPOFFS 0
      LENGTH 16.000000
      LOOP 0
      ALLTAKES 0
      FADEIN 1 0 0 1 0 0 0
      FADEOUT 1 0 0 1 0 0 0
      MUTE 0 0
      SEL 0
      IGUID {9C324A12-5F8B-43E3-8A0D-95D8215D3E5A}
      IID 1
      NAME "Intro"
      VOLPAN 1 0 1 -1
      SOFFS 0
      PLAYRATE 1 1 0 -1 0 0.0025
      CHANMODE 0
      GUID {79B0B7BF-EBE0-438A-BEFE-184E795555C2}
      <SOURCE MIDI
        HASDATA 1 960 QN
        CCINTERP 32
        POOLEDEVTS {07555827-6666-4381-AE68-C90FCDB1696A}
        LAST_REC_LAUNCHQUANT 0
      E 0 90 3b 41
      E 0 90 3e 41
      E 0 90 41 41
      E 0 90 45 41
      E 3792 80 3b 00
      E 0 80 3e 00
      E 0 80 41 00
      E 0 80 45 00
      E 48 90 34 41
      E 0 90 38 41
      E 0 90 3b 41
      E 0 90 3e 41
      E 3792 80 34 00
      E 0 80 38 00
      E 0 80 3b 00
      E 0 80 3e 00
      E 48 90 39 41
      E 0 90 3c 41
      E 0 90 40 41
      E 0 90 43 41
      E 3792 80 39 00
      E 0 80 3c 00
      E 0 80 40 00
      E 0 80 43 00
      E 48 90 3b 41
      E 0 90 3e 41
      E 0 90 41 41
      E 0 90 45 41
      E 3792 80 3b 00
      E 0 80 3e 00
      E 0 80 41 00
      E 0 80 45 00
      E 48 90 34 41
      E 0 90 38 41
      E 0 90 3b 41
      E 0 90 3e 41
      E 3792 80 34 00
      E 0 80 38 00
      E 0 80 3b 00
      E 0 80 3e 00
      E 48 90 39 41
      E 0 90 3c 41
      E 0 90 40 41
      E 0 90 43 41
      E 3792 80 39 00
      E 0 80 3c 00
      E 0 80 40 00
      E 0 80 43 00
      E 48 90 3b 41
      E 0 90 3e 41
      E 0 90 41 41
      E 0 90 45 41
      E 3792 80 3b 00
      E 0 80 3e 00
      E 0 80 41 00
      E 0 80 45 00
      E 48 90 34 41
      E 0 90 38 41
      E 0 90 3b 41
      E 0 90 3e 41
      E 3792 80 34 00
      E 0 80 38 00
      E 0 80 3b 00
      E 0 80 3e 00
      E 48 b0 7b 00
        CCEVT -1 0 0
      >
    >
    <ITEM
      POSITION 16.000000
      SNAPOFFS 0
      LENGTH 32.000000
      LOOP 0
      ALLTAKES 0
      FADEIN 1 0 0 1 0 0 0
      FADEOUT 1 0 0 1 0 0 0
      MUTE 0 0
      SEL 0
      IGUID {7763484C-8E10-4B07-9B7E-56E01EB77CA4}
      IID 1
      NAME "Verse 1"
      VOLPAN 1 0 1 -1
      SOFFS 0
      PLAYRATE 1 1 0 -1 0 0.0025
      CHANMODE 0
      GUID {9DD0FFEF-B375-4556-BB0F-18DA4BD018B5}
      <SOURCE MIDI
        HASDATA 1 960 QN
        CCINTERP 32
        POOLEDEVTS {EBE0B239-2E38-4D52-B2F8-7645D6C6AB0C}
        LAST_REC_LAUNCHQUANT 0
      E 0 90 39 4e
      E 0 90 3c 4e
      E 0 90 40 4e
      E 3792 80 39 00
      E 0 80 3c 00
      E 0 80 40 00
      E 48 90 37 4e
      E 0 90 3b 4e
      E 0 90 3e 4e
      E 3792 80 37 00
      E 0 80 3b 00
      E 0 80 3e 00
      E 48 90 35 4e
      E 0 90 39 4e
      E 0 90 3c 4e
      E 3792 80 35 00
      E 0 80 39 00
      E 0 80 3c 00
      E 48 90 34 4e
      E 0 90 38 4e
      E 0 90 3b 4e
      E 3792 80 34 00
      E 0 80 38 00
      E 0 80 3b 00
      E 48 90 39 4e
      E 0 90 3c 4e
      E 0 90 40 4e
      E 3792 80 39 00
      E 0 80 3c 00
      E 0 80 40 00
      E 48 90 37 4e
      E 0 90 3b 4e
      E 0 90 3e 4e
      E 3792 80 37 00
      E 0 80 3b 00
      E 0 80 3e 00
      E 48 90 35 4e
      E 0 90 39 4e
      E 0 90 3c 4e
      E 3792 80 35 00
      E 0 80 39 00
      E 0 80 3c 00
      E 48 90 34 4e
      E 0 90 38 4e
      E 0 90 3b 4e
      E 3792 80 34 00
      E 0 80 38 00
      E 0 80 3b 00
      E 48 90 39 4e
      E 0 90 3c 4e
      E 0 90 40 4e
      E 3792 80 39 00
      E 0 80 3c 00
      E 0 80 40 00
      E 48 90 37 4e
      E 0 90 3b 4e
      E 0 90 3e 4e
      E 3792 80 37 00
      E 0 80 3b 00
      E 0 80 3e 00
      E 48 90 35 4e
      E 0 90 39 4e
      E 0 90 3c 4e
      E 3792 80 35 00
      E 0 80 39 00
      E 0 80 3c 00
      E 48 90 34 4e
      E 0 90 38 4e
      E 0 90 3b 4e
      E 3792 80 34 00
      E 0 80 38 00
      E 0 80 3b 00
      E 48 90 39 4e
      E 0 90 3c 4e
      E 0 90 40 4e
      E 3792 80 39 00
      E 0 80 3c 00
      E 0 80 40 00
      E 48 90 37 4e
      E 0 90 3b 4e
      E 0 90 3e 4e
      E 3792 80 37 00
      E 0 80 3b 00
      E 0 80 3e 00
      E 48 90 35 4e
      E 0 90 39 4e
      E 0 90 3c 4e
      E 3792 80 35 00
      E 0 80 39 00
      E 0 80 3c 00
      E 48 90 34 4e
      E 0 90 38 4e
      E 0 90 3b 4e
      E 3792 80 34 00
      E 0 80 38 00
      E 0 80 3b 00
      E 48 b0 7b 00
        CCEVT -1 0 0
      >
    >
    <ITEM
      POSITION 48.000000
      SNAPOFFS 0
      LENGTH 32.000000
      LOOP 0
      ALLTAKES 0
      FADEIN 1 0 0 1 0 0 0
      FADEOUT 1 0 0 1 0 0 0
      MUTE 0 0
      SEL 0
      IGUID {6AFA68C9-6C37-42F9-A84C-1F4871D43848}
      IID 1
      NAME "Chorus 1"
      VOLPAN 1 0 1 -1
      SOFFS 0
      PLAYRATE 1 1 0 -1 0 0.0025
      CHANMODE 0
      GUID {7B9F62A3-0F5D-41B7-836C-28E7FBF6D453}
      <SOURCE MIDI
        HASDATA 1 960 QN
        CCINTERP 32
        POOLEDEVTS {AACAF378-6815-4F08-BFF2-77E44C955378}
        LAST_REC_LAUNCHQUANT 0
      E 0 90 3c 5c
      E 0 90 40 5c
      E 0 90 43 5c
      E 3792 80 3c 00
      E 0 80 40 00
      E 0 80 43 00
      E 48 90 37 5c
      E 0 90 3b 5c
      E 0 90 3e 5c
      E 3792 80 37 00
      E 0 80 3b 00
      E 0 80 3e 00
      E 48 90 39 5c
      E 0 90 3c 5c
      E 0 90 40 5c
      E 3792 80 39 00
      E 0 80 3c 00
      E 0 80 40 00
      E 48 90 35 5c
      E 0 90 39 5c
      E 0 90 3c 5c
      E 3792 80 35 00
      E 0 80 39 00
      E 0 80 3c 00
      E 48 90 3c 5c
      E 0 90 40 5c
      E 0 90 43 5c
      E 3792 80 3c 00
      E 0 80 40 00
      E 0 80 43 00
      E 48 90 37 5c
      E 0 90 3b 5c
      E 0 90 3e 5c
      E 3792 80 37 00
      E 0 80 3b 00
      E 0 80 3e 00
      E 48 90 39 5c
      E 0 90 3c 5c
      E 0 90 40 5c
      E 3792 80 39 00
      E 0 80 3c 00
      E 0 80 40 00
      E 48 90 35 5c
      E 0 90 39 5c
      E 0 90 3c 5c
      E 3792 80 35 00
      E 0 80 39 00
      E 0 80 3c 00
      E 48 90 3c 5c
      E 0 90 40 5c
      E 0 90 43 5c
      E 3792 80 3c 00
      E 0 80 40 00
      E 0 80 43 00
      E 48 90 37 5c
      E 0 90 3b 5c
      E 0 90 3e 5c
      E 3792 80 37 00
      E 0 80 3b 00
      E 0 80 3e 00
      E 48 90 39 5c
      E 0 90 3c 5c
      E 0 90 40 5c
      E 3792 80 39 00
      E 0 80 3c 00
      E 0 80 40 00
      E 48 90 35 5c
      E 0 90 39 5c
      E 0 90 3c 5c
      E 3792 80 35 00
      E 0 80 39 00
      E 0 80 3c 00
      E 48 90 3c 5c
      E 0 90 40 5c
      E 0 90 43 5c
      E 3792 80 3c 00
      E 0 80 40 00
      E 0 80 43 00
      E 48 90 37 5c
      E 0 90 3b 5c
      E 0 90 3e 5c
      E 3792 80 37 00
      E 0 80 3b 00
      E 0 80 3e 00
      E 48 90 39 5c
      E 0 90 3c 5c
      E 0 90 40 5c
      E 3792 80 39 00
      E 0 80 3c 00
      E 0 80 40 00
      E 48 90 35 5c
      E 0 90 39 5c
      E 0 90 3c 5c
      E 3792 80 35 00
      E 0 80 39 00
      E 0 80 3c 00
      E 48 b0 7b 00
        CCEVT -1 0 0
      >
    >
    <ITEM
      POSITION 80.000000
      SNAPOFFS 0
      LENGTH 32.000000
      LOOP 0
      ALLTAKES 0
      FADEIN 1 0 0 1 0 0 0
      FADEOUT 1 0 0 1 0 0 0
      MUTE 0 0
      SEL 0
      IGUID {CED2A04B-6418-4362-A8FB-EFA45FA3E284}
      IID 1
      NAME "Verse 2"
      VOLPAN 1 0 1 -1
      SOFFS 0
      PLAYRATE 1 1 0 -1 0 0.0025
      CHANMODE 0
      GUID {37213AF6-0E11-4FB4-8490-5931FA65DF5D}
      <SOURCE MIDI
        HASDATA 1 960 QN
        CCINTERP 32
        POOLEDEVTS {F5756F14-7094-45A9-94A6-E9097BCD9811}
        LAST_REC_LAUNCHQUANT 0
      E 0 90 39 4e
      E 0 90 3c 4e
      E 0 90 40 4e
      E 3792 80 39 00
      E 0 80 3c 00
      E 0 80 40 00
      E 48 90 37 4e
      E 0 90 3b 4e
      E 0 90 3e 4e
      E 3792 80 37 00
      E 0 80 3b 00
      E 0 80 3e 00
      E 48 90 35 4e
      E 0 90 39 4e
      E 0 90 3c 4e
      E 3792 80 35 00
      E 0 80 39 00
      E 0 80 3c 00
      E 48 90 34 4e
      E 0 90 38 4e
      E 0 90 3b 4e
      E 3792 80 34 00
      E 0 80 38 00
      E 0 80 3b 00
      E 48 90 39 4e
      E 0 90 3c 4e
      E 0 90 40 4e
      E 3792 80 39 00
      E 0 80 3c 00
      E 0 80 40 00
      E 48 90 37 4e
      E 0 90 3b 4e
      E 0 90 3e 4e
      E 3792 80 37 00
      E 0 80 3b 00
      E 0 80 3e 00
      E 48 90 35 4e
      E 0 90 39 4e
      E 0 90 3c 4e
      E 3792 80 35 00
      E 0 80 39 00
      E 0 80 3c 00
      E 48 90 34 4e
      E 0 90 38 4e
      E 0 90 3b 4e
      E 3792 80 34 00
      E 0 80 38 00
      E 0 80 3b 00
      E 48 90 39 4e
      E 0 90 3c 4e
      E 0 90 40 4e
      E 3792 80 39 00
      E 0 80 3c 00
      E 0 80 40 00
      E 48 90 37 4e
      E 0 90 3b 4e
      E 0 90 3e 4e
      E 3792 80 37 00
      E 0 80 3b 00
      E 0 80 3e 00
      E 48 90 35 4e
      E 0 90 39 4e
      E 0 90 3c 4e
      E 3792 80 35 00
      E 0 80 39 00
      E 0 80 3c 00
      E 48 90 34 4e
      E 0 90 38 4e
      E 0 90 3b 4e
      E 3792 80 34 00
      E 0 80 38 00
      E 0 80 3b 00
      E 48 90 39 4e
      E 0 90 3c 4e
      E 0 90 40 4e
      E 3792 80 39 00
      E 0 80 3c 00
      E 0 80 40 00
      E 48 90 37 4e
      E 0 90 3b 4e
      E 0 90 3e 4e
      E 3792 80 37 00
      E 0 80 3b 00
      E 0 80 3e 00
      E 48 90 35 4e
      E 0 90 39 4e
      E 0 90 3c 4e
      E 3792 80 35 00
      E 0 80 39 00
      E 0 80 3c 00
      E 48 90 34 4e
      E 0 90 38 4e
      E 0 90 3b 4e
      E 3792 80 34 00
      E 0 80 38 00
      E 0 80 3b 00
      E 48 b0 7b 00
        CCEVT -1 0 0
      >
    >
    <ITEM
      POSITION 112.000000
      SNAPOFFS 0
      LENGTH 21.000000
      LOOP 0
      ALLTAKES 0
      FADEIN 1 0 0 1 0 0 0
      FADEOUT 1 0 0 1 0 0 0
      MUTE 0 0
      SEL 0
      IGUID {5F25E436-5209-4924-9DC7-631C359C27B4}
      IID 1
      NAME "Bridge"
      VOLPAN 1 0 1 -1
      SOFFS 0
      PLAYRATE 1 1 0 -1 0 0.0025
      CHANMODE 0
      GUID {4269B1C0-9756-47F0-94AF-588AABD90C86}
      <SOURCE MIDI
        HASDATA 1 960 QN
        CCINTERP 32
        POOLEDEVTS {7099630A-81C5-497E-B90C-F079D758D471}
        LAST_REC_LAUNCHQUANT 0
      E 0 90 39 48
      E 0 90 3c 48
      E 0 90 40 48
      E 3312 80 39 00
      E 0 80 3c 00
      E 0 80 40 00
      E 48 90 35 48
      E 0 90 39 48
      E 0 90 3c 48
      E 0 90 40 48
      E 3312 80 35 00
      E 0 80 39 00
      E 0 80 3c 00
      E 0 80 40 00
      E 48 90 34 48
      E 0 90 37 48
      E 0 90 3b 48
      E 3312 80 34 00
      E 0 80 37 00
      E 0 80 3b 00
      E 48 90 32 48
      E 0 90 35 48
      E 0 90 39 48
      E 3312 80 32 00
      E 0 80 35 00
      E 0 80 39 00
      E 48 90 39 48
      E 0 90 3c 48
      E 0 90 40 48
      E 3312 80 39 00
      E 0 80 3c 00
      E 0 80 40 00
      E 48 90 35 48
      E 0 90 39 48
      E 0 90 3c 48
      E 0 90 40 48
      E 3312 80 35 00
      E 0 80 39 00
      E 0 80 3c 00
      E 0 80 40 00
      E 48 90 34 48
      E 0 90 37 48
      E 0 90 3b 48
      E 3312 80 34 00
      E 0 80 37 00
      E 0 80 3b 00
      E 48 90 32 48
      E 0 90 35 48
      E 0 90 39 48
      E 3312 80 32 00
      E 0 80 35 00
      E 0 80 39 00
      E 48 90 39 48
      E 0 90 3c 48
      E 0 90 40 48
      E 3312 80 39 00
      E 0 80 3c 00
      E 0 80 40 00
      E 48 90 35 48
      E 0 90 39 48
      E 0 90 3c 48
      E 0 90 40 48
      E 3312 80 35 00
      E 0 80 39 00
      E 0 80 3c 00
      E 0 80 40 00
      E 48 90 34 48
      E 0 90 37 48
      E 0 90 3b 48
      E 3312 80 34 00
      E 0 80 37 00
      E 0 80 3b 00
      E 48 90 32 48
      E 0 90 35 48
      E 0 90 39 48
      E 3312 80 32 00
      E 0 80 35 00
      E 0 80 39 00
      E 48 b0 7b 00
        CCEVT -1 0 0
      >
    >
    <ITEM
      POSITION 133.000000
      SNAPOFFS 0
      LENGTH 32.000000
      LOOP 0
      ALLTAKES 0
      FADEIN 1 0 0 1 0 0 0
      FADEOUT 1 0 0 1 0 0 0
      MUTE 0 0
      SEL 0
      IGUID {2E7604BD-A62E-4D4D-A420-CF662B762730}
      IID 1
      NAME "Chorus 2"
      VOLPAN 1 0 1 -1
      SOFFS 0
      PLAYRATE 1 1 0 -1 0 0.0025
      CHANMODE 0
      GUID {5AB5B5F7-F6DE-414F-973A-C8E64C7C5FD0}
      <SOURCE MIDI
        HASDATA 1 960 QN
        CCINTERP 32
        POOLEDEVTS {FC1F99CB-0FEC-439A-833C-BD63ED843CAE}
        LAST_REC_LAUNCHQUANT 0
      E 0 90 3c 5f
      E 0 90 40 5f
      E 0 90 43 5f
      E 3792 80 3c 00
      E 0 80 40 00
      E 0 80 43 00
      E 48 90 37 5f
      E 0 90 3b 5f
      E 0 90 3e 5f
      E 3792 80 37 00
      E 0 80 3b 00
      E 0 80 3e 00
      E 48 90 39 5f
      E 0 90 3c 5f
      E 0 90 40 5f
      E 3792 80 39 00
      E 0 80 3c 00
      E 0 80 40 00
      E 48 90 35 5f
      E 0 90 39 5f
      E 0 90 3c 5f
      E 3792 80 35 00
      E 0 80 39 00
      E 0 80 3c 00
      E 48 90 3c 5f
      E 0 90 40 5f
      E 0 90 43 5f
      E 3792 80 3c 00
      E 0 80 40 00
      E 0 80 43 00
      E 48 90 37 5f
      E 0 90 3b 5f
      E 0 90 3e 5f
      E 3792 80 37 00
      E 0 80 3b 00
      E 0 80 3e 00
      E 48 90 39 5f
      E 0 90 3c 5f
      E 0 90 40 5f
      E 3792 80 39 00
      E 0 80 3c 00
      E 0 80 40 00
      E 48 90 35 5f
      E 0 90 39 5f
      E 0 90 3c 5f
      E 3792 80 35 00
      E 0 80 39 00
      E 0 80 3c 00
      E 48 90 3c 5f
      E 0 90 40 5f
      E 0 90 43 5f
      E 3792 80 3c 00
      E 0 80 40 00
      E 0 80 43 00
      E 48 90 37 5f
      E 0 90 3b 5f
      E 0 90 3e 5f
      E 3792 80 37 00
      E 0 80 3b 00
      E 0 80 3e 00
      E 48 90 39 5f
      E 0 90 3c 5f
      E 0 90 40 5f
      E 3792 80 39 00
      E 0 80 3c 00
      E 0 80 40 00
      E 48 90 35 5f
      E 0 90 39 5f
      E 0 90 3c 5f
      E 3792 80 35 00
      E 0 80 39 00
      E 0 80 3c 00
      E 48 90 3c 5f
      E 0 90 40 5f
      E 0 90 43 5f
      E 3792 80 3c 00
      E 0 80 40 00
      E 0 80 43 00
      E 48 90 37 5f
      E 0 90 3b 5f
      E 0 90 3e 5f
      E 3792 80 37 00
      E 0 80 3b 00
      E 0 80 3e 00
      E 48 90 39 5f
      E 0 90 3c 5f
      E 0 90 40 5f
      E 3792 80 39 00
      E 0 80 3c 00
      E 0 80 40 00
      E 48 90 35 5f
      E 0 90 39 5f
      E 0 90 3c 5f
      E 3792 80 35 00
      E 0 80 39 00
      E 0 80 3c 00
      E 48 b0 7b 00
        CCEVT -1 0 0
      >
    >
    <ITEM
      POSITION 165.000000
      SNAPOFFS 0
      LENGTH 16.000000
      LOOP 0
      ALLTAKES 0
      FADEIN 1 0 0 1 0 0 0
      FADEOUT 1 0 0 1 0 0 0
      MUTE 0 0
      SEL 0
      IGUID {1928FE33-C1F1-4675-844E-665DEBEF7887}
      IID 1
      NAME "Outro"
      VOLPAN 1 0 1 -1
      SOFFS 0
      PLAYRATE 1 1 0 -1 0 0.0025
      CHANMODE 0
      GUID {B07E75B0-AE68-47B3-8DA5-D5C758CC76EB}
      <SOURCE MIDI
        HASDATA 1 960 QN
        CCINTERP 32
        POOLEDEVTS {088F5EE3-525D-4E21-9651-C9D1C2CED535}
        LAST_REC_LAUNCHQUANT 0
      E 0 90 3c 46
      E 0 90 40 46
      E 0 90 43 46
      E 3792 80 3c 00
      E 0 80 40 00
      E 0 80 43 00
      E 48 90 37 46
      E 0 90 3b 46
      E 0 90 3e 46
      E 3792 80 37 00
      E 0 80 3b 00
      E 0 80 3e 00
      E 48 90 39 46
      E 0 90 3c 46
      E 0 90 40 46
      E 3792 80 39 00
      E 0 80 3c 00
      E 0 80 40 00
      E 48 90 35 46
      E 0 90 39 46
      E 0 90 3c 46
      E 3792 80 35 00
      E 0 80 39 00
      E 0 80 3c 00
      E 48 90 3c 46
      E 0 90 40 46
      E 0 90 43 46
      E 3792 80 3c 00
      E 0 80 40 00
      E 0 80 43 00
      E 48 90 37 46
      E 0 90 3b 46
      E 0 90 3e 46
      E 3792 80 37 00
      E 0 80 3b 00
      E 0 80 3e 00
      E 48 90 39 46
      E 0 90 3c 46
      E 0 90 40 46
      E 3792 80 39 00
      E 0 80 3c 00
      E 0 80 40 00
      E 48 90 35 46
      E 0 90 39 46
      E 0 90 3c 46
      E 3792 80 35 00
      E 0 80 39 00
      E 0 80 3c 00
      E 48 b0 7b 00
        CCEVT -1 0 0
      >
    >

  >
  <TRACK {1A118D2B-6DBD-4F2D-92AD-FECE3B0A61F4}
    NAME "Drums (Kick+Snare)"
    PEAKCOL 22045951
    BEAT -1
    AUTOMODE 0
    VOLPAN 1 0 0.6 -1
    MUTESOLO 0 0 0
    IPHASE 0
    PLAYOFFS 0 1
    ISBUS 0 0
    BUSCOMP 0 0 0 0 0
    SHOWINMIX 1 0.6667 0.5 1 0.5 0 0 0
    FREEMODE 0
    SEL 0
    REC 0 0 1 0 0 0 0
    VU 2
    TRACKHEIGHT 0 0 0 0 0 0
    INQ 0 0 0 0.5 100 0 0 100
    NCHAN 2
    FX 1
    TRACKID {3D63C788-B38A-4430-8CEB-C13D6803A184}
    PERF 0
    MIDIOUT -1
    MAINSEND 1 0
    <ITEM
      POSITION 0.000000
      SNAPOFFS 0
      LENGTH 16.000000
      LOOP 0
      ALLTAKES 0
      FADEIN 1 0 0 1 0 0 0
      FADEOUT 1 0 0 1 0 0 0
      MUTE 0 0
      SEL 0
      IGUID {653A6212-D987-42DC-B89A-B9E4A4E9577F}
      IID 1
      NAME "Intro"
      VOLPAN 1 0 1 -1
      SOFFS 0
      PLAYRATE 1 1 0 -1 0 0.0025
      CHANMODE 0
      GUID {9FF38D04-B6D8-4E05-8019-85357B7D7E62}
      <SOURCE MIDI
        HASDATA 1 960 QN
        CCINTERP 32
        POOLEDEVTS {1BF89566-6C04-42AD-B349-12B03090286C}
        LAST_REC_LAUNCHQUANT 0
      E 0 90 24 64
      E 336 80 24 00
      E 624 90 26 5a
      E 336 80 26 00
      E 624 90 24 5f
      E 336 80 24 00
      E 624 90 26 5a
      E 336 80 26 00
      E 624 90 24 64
      E 336 80 24 00
      E 624 90 26 5a
      E 336 80 26 00
      E 624 90 24 5f
      E 336 80 24 00
      E 624 90 26 5a
      E 336 80 26 00
      E 624 90 24 64
      E 336 80 24 00
      E 624 90 26 5a
      E 336 80 26 00
      E 624 90 24 5f
      E 336 80 24 00
      E 624 90 26 5a
      E 336 80 26 00
      E 624 90 24 64
      E 336 80 24 00
      E 624 90 26 5a
      E 336 80 26 00
      E 624 90 24 5f
      E 336 80 24 00
      E 624 90 26 5a
      E 336 80 26 00
      E 624 90 24 64
      E 336 80 24 00
      E 624 90 26 5a
      E 336 80 26 00
      E 624 90 24 5f
      E 336 80 24 00
      E 624 90 26 5a
      E 336 80 26 00
      E 624 90 24 64
      E 336 80 24 00
      E 624 90 26 5a
      E 336 80 26 00
      E 624 90 24 5f
      E 336 80 24 00
      E 624 90 26 5a
      E 336 80 26 00
      E 624 90 24 64
      E 336 80 24 00
      E 624 90 26 5a
      E 336 80 26 00
      E 624 90 24 5f
      E 336 80 24 00
      E 624 90 26 5a
      E 336 80 26 00
      E 624 90 24 64
      E 336 80 24 00
      E 624 90 26 5a
      E 336 80 26 00
      E 624 90 24 5f
      E 336 80 24 00
      E 624 90 26 5a
      E 336 80 26 00
      E 624 b0 7b 00
        CCEVT -1 0 0
      >
    >
    <ITEM
      POSITION 16.000000
      SNAPOFFS 0
      LENGTH 32.000000
      LOOP 0
      ALLTAKES 0
      FADEIN 1 0 0 1 0 0 0
      FADEOUT 1 0 0 1 0 0 0
      MUTE 0 0
      SEL 0
      IGUID {766B28EF-0D5F-4690-904F-7F800BA96ED8}
      IID 1
      NAME "Verse 1"
      VOLPAN 1 0 1 -1
      SOFFS 0
      PLAYRATE 1 1 0 -1 0 0.0025
      CHANMODE 0
      GUID {9124A608-AF02-4842-873E-7931038F1096}
      <SOURCE MIDI
        HASDATA 1 960 QN
        CCINTERP 32
        POOLEDEVTS {C24FA10B-0399-4CB6-BA22-ABFE79AB4BBA}
        LAST_REC_LAUNCHQUANT 0
      E 0 90 24 69
      E 336 80 24 00
      E 144 90 24 50
      E 336 80 24 00
      E 144 90 26 5f
      E 336 80 26 00
      E 624 90 24 64
      E 336 80 24 00
      E 144 90 24 4b
      E 336 80 24 00
      E 144 90 26 5f
      E 336 80 26 00
      E 624 90 24 69
      E 336 80 24 00
      E 144 90 24 50
      E 336 80 24 00
      E 144 90 26 5f
      E 336 80 26 00
      E 624 90 24 64
      E 336 80 24 00
      E 144 90 24 4b
      E 336 80 24 00
      E 144 90 26 5f
      E 336 80 26 00
      E 624 90 24 69
      E 336 80 24 00
      E 144 90 24 50
      E 336 80 24 00
      E 144 90 26 5f
      E 336 80 26 00
      E 624 90 24 64
      E 336 80 24 00
      E 144 90 24 4b
      E 336 80 24 00
      E 144 90 26 5f
      E 336 80 26 00
      E 624 90 24 69
      E 336 80 24 00
      E 144 90 24 50
      E 336 80 24 00
      E 144 90 26 5f
      E 336 80 26 00
      E 624 90 24 64
      E 336 80 24 00
      E 144 90 24 4b
      E 336 80 24 00
      E 144 90 26 5f
      E 336 80 26 00
      E 624 90 24 69
      E 336 80 24 00
      E 144 90 24 50
      E 336 80 24 00
      E 144 90 26 5f
      E 336 80 26 00
      E 624 90 24 64
      E 336 80 24 00
      E 144 90 24 4b
      E 336 80 24 00
      E 144 90 26 5f
      E 336 80 26 00
      E 624 90 24 69
      E 336 80 24 00
      E 144 90 24 50
      E 336 80 24 00
      E 144 90 26 5f
      E 336 80 26 00
      E 624 90 24 64
      E 336 80 24 00
      E 144 90 24 4b
      E 336 80 24 00
      E 144 90 26 5f
      E 336 80 26 00
      E 624 90 24 69
      E 336 80 24 00
      E 144 90 24 50
      E 336 80 24 00
      E 144 90 26 5f
      E 336 80 26 00
      E 624 90 24 64
      E 336 80 24 00
      E 144 90 24 4b
      E 336 80 24 00
      E 144 90 26 5f
      E 336 80 26 00
      E 624 90 24 69
      E 336 80 24 00
      E 144 90 24 50
      E 336 80 24 00
      E 144 90 26 5f
      E 336 80 26 00
      E 624 90 24 64
      E 336 80 24 00
      E 144 90 24 4b
      E 336 80 24 00
      E 144 90 26 5f
      E 336 80 26 00
      E 624 90 24 69
      E 336 80 24 00
      E 144 90 24 50
      E 336 80 24 00
      E 144 90 26 5f
      E 336 80 26 00
      E 624 90 24 64
      E 336 80 24 00
      E 144 90 24 4b
      E 336 80 24 00
      E 144 90 26 5f
      E 336 80 26 00
      E 624 90 24 69
      E 336 80 24 00
      E 144 90 24 50
      E 336 80 24 00
      E 144 90 26 5f
      E 336 80 26 00
      E 624 90 24 64
      E 336 80 24 00
      E 144 90 24 4b
      E 336 80 24 00
      E 144 90 26 5f
      E 336 80 26 00
      E 624 90 24 69
      E 336 80 24 00
      E 144 90 24 50
      E 336 80 24 00
      E 144 90 26 5f
      E 336 80 26 00
      E 624 90 24 64
      E 336 80 24 00
      E 144 90 24 4b
      E 336 80 24 00
      E 144 90 26 5f
      E 336 80 26 00
      E 624 90 24 69
      E 336 80 24 00
      E 144 90 24 50
      E 336 80 24 00
      E 144 90 26 5f
      E 336 80 26 00
      E 624 90 24 64
      E 336 80 24 00
      E 144 90 24 4b
      E 336 80 24 00
      E 144 90 26 5f
      E 336 80 26 00
      E 624 90 24 69
      E 336 80 24 00
      E 144 90 24 50
      E 336 80 24 00
      E 144 90 26 5f
      E 336 80 26 00
      E 624 90 24 64
      E 336 80 24 00
      E 144 90 24 4b
      E 336 80 24 00
      E 144 90 26 5f
      E 336 80 26 00
      E 624 90 24 69
      E 336 80 24 00
      E 144 90 24 50
      E 336 80 24 00
      E 144 90 26 5f
      E 336 80 26 00
      E 624 90 24 64
      E 336 80 24 00
      E 144 90 24 4b
      E 336 80 24 00
      E 144 90 26 5f
      E 336 80 26 00
      E 624 90 24 69
      E 336 80 24 00
      E 144 90 24 50
      E 336 80 24 00
      E 144 90 26 5f
      E 336 80 26 00
      E 624 90 24 64
      E 336 80 24 00
      E 144 90 24 4b
      E 336 80 24 00
      E 144 90 26 5f
      E 336 80 26 00
      E 624 90 24 69
      E 336 80 24 00
      E 144 90 24 50
      E 336 80 24 00
      E 144 90 26 5f
      E 336 80 26 00
      E 624 90 24 64
      E 336 80 24 00
      E 144 90 24 4b
      E 336 80 24 00
      E 144 90 26 5f
      E 336 80 26 00
      E 624 b0 7b 00
        CCEVT -1 0 0
      >
    >
    <ITEM
      POSITION 48.000000
      SNAPOFFS 0
      LENGTH 32.000000
      LOOP 0
      ALLTAKES 0
      FADEIN 1 0 0 1 0 0 0
      FADEOUT 1 0 0 1 0 0 0
      MUTE 0 0
      SEL 0
      IGUID {7FAB1E2C-8BCD-478D-A4CB-17E1CB376FBE}
      IID 1
      NAME "Chorus 1"
      VOLPAN 1 0 1 -1
      SOFFS 0
      PLAYRATE 1 1 0 -1 0 0.0025
      CHANMODE 0
      GUID {5B0F9979-781E-48DB-AE7C-169B480B3C5F}
      <SOURCE MIDI
        HASDATA 1 960 QN
        CCINTERP 32
        POOLEDEVTS {AD5E0CA2-60B7-441A-BB4F-1EAB3B7770BD}
        LAST_REC_LAUNCHQUANT 0
      E 0 90 24 69
      E 336 80 24 00
      E 144 90 24 50
      E 336 80 24 00
      E 144 90 26 5f
      E 336 80 26 00
      E 624 90 24 64
      E 336 80 24 00
      E 144 90 24 4b
      E 336 80 24 00
      E 144 90 26 5f
      E 336 80 26 00
      E 624 90 24 69
      E 336 80 24 00
      E 144 90 24 50
      E 336 80 24 00
      E 144 90 26 5f
      E 336 80 26 00
      E 624 90 24 64
      E 336 80 24 00
      E 144 90 24 4b
      E 336 80 24 00
      E 144 90 26 5f
      E 336 80 26 00
      E 624 90 24 69
      E 336 80 24 00
      E 144 90 24 50
      E 336 80 24 00
      E 144 90 26 5f
      E 336 80 26 00
      E 624 90 24 64
      E 336 80 24 00
      E 144 90 24 4b
      E 336 80 24 00
      E 144 90 26 5f
      E 336 80 26 00
      E 624 90 24 69
      E 336 80 24 00
      E 144 90 24 50
      E 336 80 24 00
      E 144 90 26 5f
      E 336 80 26 00
      E 624 90 24 64
      E 336 80 24 00
      E 144 90 24 4b
      E 336 80 24 00
      E 144 90 26 5f
      E 336 80 26 00
      E 624 90 24 69
      E 336 80 24 00
      E 144 90 24 50
      E 336 80 24 00
      E 144 90 26 5f
      E 336 80 26 00
      E 624 90 24 64
      E 336 80 24 00
      E 144 90 24 4b
      E 336 80 24 00
      E 144 90 26 5f
      E 336 80 26 00
      E 624 90 24 69
      E 336 80 24 00
      E 144 90 24 50
      E 336 80 24 00
      E 144 90 26 5f
      E 336 80 26 00
      E 624 90 24 64
      E 336 80 24 00
      E 144 90 24 4b
      E 336 80 24 00
      E 144 90 26 5f
      E 336 80 26 00
      E 624 90 24 69
      E 336 80 24 00
      E 144 90 24 50
      E 336 80 24 00
      E 144 90 26 5f
      E 336 80 26 00
      E 624 90 24 64
      E 336 80 24 00
      E 144 90 24 4b
      E 336 80 24 00
      E 144 90 26 5f
      E 336 80 26 00
      E 624 90 24 69
      E 336 80 24 00
      E 144 90 24 50
      E 336 80 24 00
      E 144 90 26 5f
      E 336 80 26 00
      E 624 90 24 64
      E 336 80 24 00
      E 144 90 24 4b
      E 336 80 24 00
      E 144 90 26 5f
      E 336 80 26 00
      E 624 90 24 69
      E 336 80 24 00
      E 144 90 24 50
      E 336 80 24 00
      E 144 90 26 5f
      E 336 80 26 00
      E 624 90 24 64
      E 336 80 24 00
      E 144 90 24 4b
      E 336 80 24 00
      E 144 90 26 5f
      E 336 80 26 00
      E 624 90 24 69
      E 336 80 24 00
      E 144 90 24 50
      E 336 80 24 00
      E 144 90 26 5f
      E 336 80 26 00
      E 624 90 24 64
      E 336 80 24 00
      E 144 90 24 4b
      E 336 80 24 00
      E 144 90 26 5f
      E 336 80 26 00
      E 624 90 24 69
      E 336 80 24 00
      E 144 90 24 50
      E 336 80 24 00
      E 144 90 26 5f
      E 336 80 26 00
      E 624 90 24 64
      E 336 80 24 00
      E 144 90 24 4b
      E 336 80 24 00
      E 144 90 26 5f
      E 336 80 26 00
      E 624 90 24 69
      E 336 80 24 00
      E 144 90 24 50
      E 336 80 24 00
      E 144 90 26 5f
      E 336 80 26 00
      E 624 90 24 64
      E 336 80 24 00
      E 144 90 24 4b
      E 336 80 24 00
      E 144 90 26 5f
      E 336 80 26 00
      E 624 90 24 69
      E 336 80 24 00
      E 144 90 24 50
      E 336 80 24 00
      E 144 90 26 5f
      E 336 80 26 00
      E 624 90 24 64
      E 336 80 24 00
      E 144 90 24 4b
      E 336 80 24 00
      E 144 90 26 5f
      E 336 80 26 00
      E 624 90 24 69
      E 336 80 24 00
      E 144 90 24 50
      E 336 80 24 00
      E 144 90 26 5f
      E 336 80 26 00
      E 624 90 24 64
      E 336 80 24 00
      E 144 90 24 4b
      E 336 80 24 00
      E 144 90 26 5f
      E 336 80 26 00
      E 624 90 24 69
      E 336 80 24 00
      E 144 90 24 50
      E 336 80 24 00
      E 144 90 26 5f
      E 336 80 26 00
      E 624 90 24 64
      E 336 80 24 00
      E 144 90 24 4b
      E 336 80 24 00
      E 144 90 26 5f
      E 336 80 26 00
      E 624 90 24 69
      E 336 80 24 00
      E 144 90 24 50
      E 336 80 24 00
      E 144 90 26 5f
      E 336 80 26 00
      E 624 90 24 64
      E 336 80 24 00
      E 144 90 24 4b
      E 336 80 24 00
      E 144 90 26 5f
      E 336 80 26 00
      E 624 b0 7b 00
        CCEVT -1 0 0
      >
    >
    <ITEM
      POSITION 80.000000
      SNAPOFFS 0
      LENGTH 32.000000
      LOOP 0
      ALLTAKES 0
      FADEIN 1 0 0 1 0 0 0
      FADEOUT 1 0 0 1 0 0 0
      MUTE 0 0
      SEL 0
      IGUID {B8186B1D-DE06-4321-94ED-8817A859DC79}
      IID 1
      NAME "Verse 2"
      VOLPAN 1 0 1 -1
      SOFFS 0
      PLAYRATE 1 1 0 -1 0 0.0025
      CHANMODE 0
      GUID {316CE918-889A-4209-96C1-7B70758F968F}
      <SOURCE MIDI
        HASDATA 1 960 QN
        CCINTERP 32
        POOLEDEVTS {29A971F4-F03F-4DF7-B515-33AFCF5911AF}
        LAST_REC_LAUNCHQUANT 0
      E 0 90 24 69
      E 336 80 24 00
      E 144 90 24 50
      E 336 80 24 00
      E 144 90 26 5f
      E 336 80 26 00
      E 624 90 24 64
      E 336 80 24 00
      E 144 90 24 4b
      E 336 80 24 00
      E 144 90 26 5f
      E 336 80 26 00
      E 624 90 24 69
      E 336 80 24 00
      E 144 90 24 50
      E 336 80 24 00
      E 144 90 26 5f
      E 336 80 26 00
      E 624 90 24 64
      E 336 80 24 00
      E 144 90 24 4b
      E 336 80 24 00
      E 144 90 26 5f
      E 336 80 26 00
      E 624 90 24 69
      E 336 80 24 00
      E 144 90 24 50
      E 336 80 24 00
      E 144 90 26 5f
      E 336 80 26 00
      E 624 90 24 64
      E 336 80 24 00
      E 144 90 24 4b
      E 336 80 24 00
      E 144 90 26 5f
      E 336 80 26 00
      E 624 90 24 69
      E 336 80 24 00
      E 144 90 24 50
      E 336 80 24 00
      E 144 90 26 5f
      E 336 80 26 00
      E 624 90 24 64
      E 336 80 24 00
      E 144 90 24 4b
      E 336 80 24 00
      E 144 90 26 5f
      E 336 80 26 00
      E 624 90 24 69
      E 336 80 24 00
      E 144 90 24 50
      E 336 80 24 00
      E 144 90 26 5f
      E 336 80 26 00
      E 624 90 24 64
      E 336 80 24 00
      E 144 90 24 4b
      E 336 80 24 00
      E 144 90 26 5f
      E 336 80 26 00
      E 624 90 24 69
      E 336 80 24 00
      E 144 90 24 50
      E 336 80 24 00
      E 144 90 26 5f
      E 336 80 26 00
      E 624 90 24 64
      E 336 80 24 00
      E 144 90 24 4b
      E 336 80 24 00
      E 144 90 26 5f
      E 336 80 26 00
      E 624 90 24 69
      E 336 80 24 00
      E 144 90 24 50
      E 336 80 24 00
      E 144 90 26 5f
      E 336 80 26 00
      E 624 90 24 64
      E 336 80 24 00
      E 144 90 24 4b
      E 336 80 24 00
      E 144 90 26 5f
      E 336 80 26 00
      E 624 90 24 69
      E 336 80 24 00
      E 144 90 24 50
      E 336 80 24 00
      E 144 90 26 5f
      E 336 80 26 00
      E 624 90 24 64
      E 336 80 24 00
      E 144 90 24 4b
      E 336 80 24 00
      E 144 90 26 5f
      E 336 80 26 00
      E 624 90 24 69
      E 336 80 24 00
      E 144 90 24 50
      E 336 80 24 00
      E 144 90 26 5f
      E 336 80 26 00
      E 624 90 24 64
      E 336 80 24 00
      E 144 90 24 4b
      E 336 80 24 00
      E 144 90 26 5f
      E 336 80 26 00
      E 624 90 24 69
      E 336 80 24 00
      E 144 90 24 50
      E 336 80 24 00
      E 144 90 26 5f
      E 336 80 26 00
      E 624 90 24 64
      E 336 80 24 00
      E 144 90 24 4b
      E 336 80 24 00
      E 144 90 26 5f
      E 336 80 26 00
      E 624 90 24 69
      E 336 80 24 00
      E 144 90 24 50
      E 336 80 24 00
      E 144 90 26 5f
      E 336 80 26 00
      E 624 90 24 64
      E 336 80 24 00
      E 144 90 24 4b
      E 336 80 24 00
      E 144 90 26 5f
      E 336 80 26 00
      E 624 90 24 69
      E 336 80 24 00
      E 144 90 24 50
      E 336 80 24 00
      E 144 90 26 5f
      E 336 80 26 00
      E 624 90 24 64
      E 336 80 24 00
      E 144 90 24 4b
      E 336 80 24 00
      E 144 90 26 5f
      E 336 80 26 00
      E 624 90 24 69
      E 336 80 24 00
      E 144 90 24 50
      E 336 80 24 00
      E 144 90 26 5f
      E 336 80 26 00
      E 624 90 24 64
      E 336 80 24 00
      E 144 90 24 4b
      E 336 80 24 00
      E 144 90 26 5f
      E 336 80 26 00
      E 624 90 24 69
      E 336 80 24 00
      E 144 90 24 50
      E 336 80 24 00
      E 144 90 26 5f
      E 336 80 26 00
      E 624 90 24 64
      E 336 80 24 00
      E 144 90 24 4b
      E 336 80 24 00
      E 144 90 26 5f
      E 336 80 26 00
      E 624 90 24 69
      E 336 80 24 00
      E 144 90 24 50
      E 336 80 24 00
      E 144 90 26 5f
      E 336 80 26 00
      E 624 90 24 64
      E 336 80 24 00
      E 144 90 24 4b
      E 336 80 24 00
      E 144 90 26 5f
      E 336 80 26 00
      E 624 90 24 69
      E 336 80 24 00
      E 144 90 24 50
      E 336 80 24 00
      E 144 90 26 5f
      E 336 80 26 00
      E 624 90 24 64
      E 336 80 24 00
      E 144 90 24 4b
      E 336 80 24 00
      E 144 90 26 5f
      E 336 80 26 00
      E 624 b0 7b 00
        CCEVT -1 0 0
      >
    >
    <ITEM
      POSITION 112.000000
      SNAPOFFS 0
      LENGTH 21.000000
      LOOP 0
      ALLTAKES 0
      FADEIN 1 0 0 1 0 0 0
      FADEOUT 1 0 0 1 0 0 0
      MUTE 0 0
      SEL 0
      IGUID {CF1F8E0B-5B79-46BC-B5E5-414ADB881879}
      IID 1
      NAME "Bridge"
      VOLPAN 1 0 1 -1
      SOFFS 0
      PLAYRATE 1 1 0 -1 0 0.0025
      CHANMODE 0
      GUID {758D1B0B-149A-4B6E-BD97-E5055E5AF2AE}
      <SOURCE MIDI
        HASDATA 1 960 QN
        CCINTERP 32
        POOLEDEVTS {79F673EC-6321-44CC-B6D4-7141440E4CA8}
        LAST_REC_LAUNCHQUANT 0
      E 0 90 24 69
      E 336 80 24 00
      E 1104 90 26 5f
      E 336 80 26 00
      E 624 90 24 5a
      E 336 80 24 00
      E 624 90 24 69
      E 336 80 24 00
      E 1104 90 26 5f
      E 336 80 26 00
      E 624 90 24 5a
      E 336 80 24 00
      E 624 90 24 69
      E 336 80 24 00
      E 1104 90 26 5f
      E 336 80 26 00
      E 624 90 24 5a
      E 336 80 24 00
      E 624 90 24 69
      E 336 80 24 00
      E 1104 90 26 5f
      E 336 80 26 00
      E 624 90 24 5a
      E 336 80 24 00
      E 624 90 24 69
      E 336 80 24 00
      E 1104 90 26 5f
      E 336 80 26 00
      E 624 90 24 5a
      E 336 80 24 00
      E 624 90 24 69
      E 336 80 24 00
      E 1104 90 26 5f
      E 336 80 26 00
      E 624 90 24 5a
      E 336 80 24 00
      E 624 90 24 69
      E 336 80 24 00
      E 1104 90 26 5f
      E 336 80 26 00
      E 624 90 24 5a
      E 336 80 24 00
      E 624 90 24 69
      E 336 80 24 00
      E 1104 90 26 5f
      E 336 80 26 00
      E 624 90 24 5a
      E 336 80 24 00
      E 624 90 24 69
      E 336 80 24 00
      E 1104 90 26 5f
      E 336 80 26 00
      E 624 90 24 5a
      E 336 80 24 00
      E 624 90 24 69
      E 336 80 24 00
      E 1104 90 26 5f
      E 336 80 26 00
      E 624 90 24 5a
      E 336 80 24 00
      E 624 90 24 69
      E 336 80 24 00
      E 1104 90 26 5f
      E 336 80 26 00
      E 624 90 24 5a
      E 336 80 24 00
      E 624 90 24 69
      E 336 80 24 00
      E 1104 90 26 5f
      E 336 80 26 00
      E 624 90 24 5a
      E 336 80 24 00
      E 624 b0 7b 00
        CCEVT -1 0 0
      >
    >
    <ITEM
      POSITION 133.000000
      SNAPOFFS 0
      LENGTH 32.000000
      LOOP 0
      ALLTAKES 0
      FADEIN 1 0 0 1 0 0 0
      FADEOUT 1 0 0 1 0 0 0
      MUTE 0 0
      SEL 0
      IGUID {E1BEF595-5607-48D5-8C06-C2659FC2A6C9}
      IID 1
      NAME "Chorus 2"
      VOLPAN 1 0 1 -1
      SOFFS 0
      PLAYRATE 1 1 0 -1 0 0.0025
      CHANMODE 0
      GUID {9FEA12BB-14C8-4F05-B451-C1953DE4AE9F}
      <SOURCE MIDI
        HASDATA 1 960 QN
        CCINTERP 32
        POOLEDEVTS {C010E362-8DC2-4C9E-8D2A-82D47737ADD3}
        LAST_REC_LAUNCHQUANT 0
      E 0 90 24 69
      E 336 80 24 00
      E 144 90 24 50
      E 336 80 24 00
      E 144 90 26 5f
      E 336 80 26 00
      E 624 90 24 64
      E 336 80 24 00
      E 144 90 24 4b
      E 336 80 24 00
      E 144 90 26 5f
      E 336 80 26 00
      E 624 90 24 69
      E 336 80 24 00
      E 144 90 24 50
      E 336 80 24 00
      E 144 90 26 5f
      E 336 80 26 00
      E 624 90 24 64
      E 336 80 24 00
      E 144 90 24 4b
      E 336 80 24 00
      E 144 90 26 5f
      E 336 80 26 00
      E 624 90 24 69
      E 336 80 24 00
      E 144 90 24 50
      E 336 80 24 00
      E 144 90 26 5f
      E 336 80 26 00
      E 624 90 24 64
      E 336 80 24 00
      E 144 90 24 4b
      E 336 80 24 00
      E 144 90 26 5f
      E 336 80 26 00
      E 624 90 24 69
      E 336 80 24 00
      E 144 90 24 50
      E 336 80 24 00
      E 144 90 26 5f
      E 336 80 26 00
      E 624 90 24 64
      E 336 80 24 00
      E 144 90 24 4b
      E 336 80 24 00
      E 144 90 26 5f
      E 336 80 26 00
      E 624 90 24 69
      E 336 80 24 00
      E 144 90 24 50
      E 336 80 24 00
      E 144 90 26 5f
      E 336 80 26 00
      E 624 90 24 64
      E 336 80 24 00
      E 144 90 24 4b
      E 336 80 24 00
      E 144 90 26 5f
      E 336 80 26 00
      E 624 90 24 69
      E 336 80 24 00
      E 144 90 24 50
      E 336 80 24 00
      E 144 90 26 5f
      E 336 80 26 00
      E 624 90 24 64
      E 336 80 24 00
      E 144 90 24 4b
      E 336 80 24 00
      E 144 90 26 5f
      E 336 80 26 00
      E 624 90 24 69
      E 336 80 24 00
      E 144 90 24 50
      E 336 80 24 00
      E 144 90 26 5f
      E 336 80 26 00
      E 624 90 24 64
      E 336 80 24 00
      E 144 90 24 4b
      E 336 80 24 00
      E 144 90 26 5f
      E 336 80 26 00
      E 624 90 24 69
      E 336 80 24 00
      E 144 90 24 50
      E 336 80 24 00
      E 144 90 26 5f
      E 336 80 26 00
      E 624 90 24 64
      E 336 80 24 00
      E 144 90 24 4b
      E 336 80 24 00
      E 144 90 26 5f
      E 336 80 26 00
      E 624 90 24 69
      E 336 80 24 00
      E 144 90 24 50
      E 336 80 24 00
      E 144 90 26 5f
      E 336 80 26 00
      E 624 90 24 64
      E 336 80 24 00
      E 144 90 24 4b
      E 336 80 24 00
      E 144 90 26 5f
      E 336 80 26 00
      E 624 90 24 69
      E 336 80 24 00
      E 144 90 24 50
      E 336 80 24 00
      E 144 90 26 5f
      E 336 80 26 00
      E 624 90 24 64
      E 336 80 24 00
      E 144 90 24 4b
      E 336 80 24 00
      E 144 90 26 5f
      E 336 80 26 00
      E 624 90 24 69
      E 336 80 24 00
      E 144 90 24 50
      E 336 80 24 00
      E 144 90 26 5f
      E 336 80 26 00
      E 624 90 24 64
      E 336 80 24 00
      E 144 90 24 4b
      E 336 80 24 00
      E 144 90 26 5f
      E 336 80 26 00
      E 624 90 24 69
      E 336 80 24 00
      E 144 90 24 50
      E 336 80 24 00
      E 144 90 26 5f
      E 336 80 26 00
      E 624 90 24 64
      E 336 80 24 00
      E 144 90 24 4b
      E 336 80 24 00
      E 144 90 26 5f
      E 336 80 26 00
      E 624 90 24 69
      E 336 80 24 00
      E 144 90 24 50
      E 336 80 24 00
      E 144 90 26 5f
      E 336 80 26 00
      E 624 90 24 64
      E 336 80 24 00
      E 144 90 24 4b
      E 336 80 24 00
      E 144 90 26 5f
      E 336 80 26 00
      E 624 90 24 69
      E 336 80 24 00
      E 144 90 24 50
      E 336 80 24 00
      E 144 90 26 5f
      E 336 80 26 00
      E 624 90 24 64
      E 336 80 24 00
      E 144 90 24 4b
      E 336 80 24 00
      E 144 90 26 5f
      E 336 80 26 00
      E 624 90 24 69
      E 336 80 24 00
      E 144 90 24 50
      E 336 80 24 00
      E 144 90 26 5f
      E 336 80 26 00
      E 624 90 24 64
      E 336 80 24 00
      E 144 90 24 4b
      E 336 80 24 00
      E 144 90 26 5f
      E 336 80 26 00
      E 624 90 24 69
      E 336 80 24 00
      E 144 90 24 50
      E 336 80 24 00
      E 144 90 26 5f
      E 336 80 26 00
      E 624 90 24 64
      E 336 80 24 00
      E 144 90 24 4b
      E 336 80 24 00
      E 144 90 26 5f
      E 336 80 26 00
      E 624 b0 7b 00
        CCEVT -1 0 0
      >
    >
    <ITEM
      POSITION 165.000000
      SNAPOFFS 0
      LENGTH 16.000000
      LOOP 0
      ALLTAKES 0
      FADEIN 1 0 0 1 0 0 0
      FADEOUT 1 0 0 1 0 0 0
      MUTE 0 0
      SEL 0
      IGUID {FE566829-9B82-4677-BF04-B9F3EBF908F3}
      IID 1
      NAME "Outro"
      VOLPAN 1 0 1 -1
      SOFFS 0
      PLAYRATE 1 1 0 -1 0 0.0025
      CHANMODE 0
      GUID {B847B01B-6E98-48F8-9705-D9FCDFABBE0A}
      <SOURCE MIDI
        HASDATA 1 960 QN
        CCINTERP 32
        POOLEDEVTS {86E810BF-CD34-4777-AC3B-3823EAD8949F}
        LAST_REC_LAUNCHQUANT 0
      E 0 90 24 64
      E 336 80 24 00
      E 624 90 26 5a
      E 336 80 26 00
      E 624 90 24 5f
      E 336 80 24 00
      E 624 90 26 5a
      E 336 80 26 00
      E 624 90 24 64
      E 336 80 24 00
      E 624 90 26 5a
      E 336 80 26 00
      E 624 90 24 5f
      E 336 80 24 00
      E 624 90 26 5a
      E 336 80 26 00
      E 624 90 24 64
      E 336 80 24 00
      E 624 90 26 5a
      E 336 80 26 00
      E 624 90 24 5f
      E 336 80 24 00
      E 624 90 26 5a
      E 336 80 26 00
      E 624 90 24 64
      E 336 80 24 00
      E 624 90 26 5a
      E 336 80 26 00
      E 624 90 24 5f
      E 336 80 24 00
      E 624 90 26 5a
      E 336 80 26 00
      E 624 90 24 64
      E 336 80 24 00
      E 624 90 26 5a
      E 336 80 26 00
      E 624 90 24 5f
      E 336 80 24 00
      E 624 90 26 5a
      E 336 80 26 00
      E 624 90 24 64
      E 336 80 24 00
      E 624 90 26 5a
      E 336 80 26 00
      E 624 90 24 5f
      E 336 80 24 00
      E 624 90 26 5a
      E 336 80 26 00
      E 624 90 24 64
      E 336 80 24 00
      E 624 90 26 5a
      E 336 80 26 00
      E 624 90 24 5f
      E 336 80 24 00
      E 624 90 26 5a
      E 336 80 26 00
      E 624 90 24 64
      E 336 80 24 00
      E 624 90 26 5a
      E 336 80 26 00
      E 624 90 24 5f
      E 336 80 24 00
      E 624 90 26 5a
      E 336 80 26 00
      E 624 b0 7b 00
        CCEVT -1 0 0
      >
    >

  >
>