<REAPER_PROJECT 0.1 "6.82/OSX64" 1708000000
  RIPPLE 0
  GROUPOVERRIDE 0 0 0
  AUTOXFADE 129
  ENVATTACH 3
  POOLEDENVATTACH 0
  MIXERUIFLAGS 11 48
  PEAKGAIN 1
  FEEDBACK 0
  PANLAW 1
  PROJOFFS 0 0 0
  MAXPROJLEN 0 356.000000
  GRID 3199 8 1 8 1 0 0 0
  TIMEMODE 1 5 -1 30 0 0 -1
  VIDEO_CONFIG 0 0 256
  PANMODE 3
  CURSOR 0
  ZOOM 100 0 0
  VZOOMEX 6 0
  USE_REC_CFG 0
  RECMODE 1
  SMPTESYNC 0 30 100 40 1000 300 0 0 0 0 0
  LOOP 0
  LOOPGRAN 0
  RECORD_PATH "" ""
  <RECORD_CFG
    ZXZhdw==
  >
  <APPLYFX_CFG
  >
  RENDER_FILE ""
  RENDER_PATTERN ""
  RENDER_FMT 0 2 0
  RENDER_1X 0
  RENDER_RANGE 1 0 0 18 1000
  RENDER_RESAMPLE 3 0 1
  RENDER_ADDTOPROJ 0
  RENDER_STEMS 0
  RENDER_DITHER 0
  TIMELOCKMODE 1
  TEMPOENVLOCKMODE 1
  ITEMMIX 1
  DEFPITCHMODE 589824 0
  TAKELANE 1
  SAMPLERATE 48000 0 0
  <RENDER_CFG2
  >
  LOCK 1
  <METRONOME 6 2
    VOL 0.25 0.125
    FREQ 800 1600 1
    BEATLEN 4
    SAMPLES "" ""
    PATTERN 2863311530 2863311530
    MULT 1
  >
  MASTER_NCH 2
  MASTER_VOLUME 1
  MASTER_FX 1
  MASTER_SEL 0
  <TEMPOENVEX
    ACT 0 -1
    VIS 1 0 1
    LANEHEIGHT 0 0
    ARM 0
    DEFSHAPE 0 -1 -1
    PT 0 60 0
  >
  <PROJBAY
  >
    MARKER 1 0.000000 "Intro" 1 0 1 B {82908773-E3E5-4C7D-B352-C07EA434F886} 0
  MARKER 2 32.000000 "Verse 1" 1 0 1 B {F36E71AA-E282-437F-8C32-895D991C1EE2} 0
  MARKER 3 96.000000 "Chorus 1" 1 0 1 B {7E6DDD14-8D2E-40DC-993E-0F53CD525209} 0
  MARKER 4 160.000000 "Verse 2" 1 0 1 B {7EB9DBCF-D0CC-4ABA-ACB8-1DEB4F2D04F4} 0
  MARKER 5 224.000000 "Bridge" 1 0 1 B {665482B8-03A8-4A4E-A827-8FA3D7AC4A39} 0
  MARKER 6 256.000000 "Chorus 2" 1 0 1 B {CFAFF75F-B839-4CFA-B1EC-FB4F920BCAB7} 0
  MARKER 7 320.000000 "Outro" 1 0 1 B {BA2871B8-7685-495D-AE6F-2E4DD646D4EB} 0
  <TRACK {8C1213DD-A1BC-45EC-B430-573472FEB45E}
    NAME "Chords"
    PEAKCOL 33522258
    BEAT -1
    AUTOMODE 0
    VOLPAN 1 0 0.6 -1
    MUTESOLO 0 0 0
    IPHASE 0
    PLAYOFFS 0 1
    ISBUS 0 0
    BUSCOMP 0 0 0 0 0
    SHOWINMIX 1 0.6667 0.5 1 0.5 0 0 0
    FREEMODE 0
    SEL 0
    REC 0 0 1 0 0 0 0
    VU 2
    TRACKHEIGHT 0 0 0 0 0 0
    INQ 0 0 0 0.5 100 0 0 100
    NCHAN 2
    FX 1
    TRACKID {8C7D014C-87CD-4F2F-8C44-9E2521B955B9}
    PERF 0
    MIDIOUT -1
    MAINSEND 1 0
    <ITEM
      POSITION 0.000000
      SNAPOFFS 0
      LENGTH 32.000000
      LOOP 0
      ALLTAKES 0
      FADEIN 1 0 0 1 0 0 0
      FADEOUT 1 0 0 1 0 0 0
      MUTE 0 0
      SEL 0
      IGUID {00B83859-D82C-4135-948D-8FE875659CBC}
      IID 1
      NAME "Intro"
      VOLPAN 1 0 1 -1
      SOFFS 0
      PLAYRATE 1 1 0 -1 0 0.0025
      CHANMODE 0
      GUID {3CB44AF2-4EB0-4C4A-AD45-0A0F0B6510B8}
      <SOURCE MIDI
        HASDATA 1 960 QN
        CCINTERP 32
        POOLEDEVTS {7EE81CB7-1D3B-47F2-81C5-32D8AAC3E867}
        LAST_REC_LAUNCHQUANT 0
      E 0 90 34 3c
      E 0 90 37 3c
      E 0 90 3b 3c
      E 3792 80 34 00
      E 0 80 37 00
      E 0 80 3b 00
      E 48 90 34 3c
      E 0 90 37 3c
      E 0 90 3b 3c
      E 3792 80 34 00
      E 0 80 37 00
      E 0 80 3b 00
      E 48 90 34 3c
      E 0 90 37 3c
      E 0 90 3b 3c
      E 3792 80 34 00
      E 0 80 37 00
      E 0 80 3b 00
      E 48 90 34 3c
      E 0 90 37 3c
      E 0 90 3b 3c
      E 3792 80 34 00
      E 0 80 37 00
      E 0 80 3b 00
      E 48 90 34 3c
      E 0 90 37 3c
      E 0 90 3b 3c
      E 3792 80 34 00
      E 0 80 37 00
      E 0 80 3b 00
      E 48 90 34 3c
      E 0 90 37 3c
      E 0 90 3b 3c
      E 3792 80 34 00
      E 0 80 37 00
      E 0 80 3b 00
      E 48 90 34 3c
      E 0 90 37 3c
      E 0 90 3b 3c
      E 3792 80 34 00
      E 0 80 37 00
      E 0 80 3b 00
      E 48 90 34 3c
      E 0 90 37 3c
      E 0 90 3b 3c
      E 3792 80 34 00
      E 0 80 37 00
      E 0 80 3b 00
      E 48 b0 7b 00
        CCEVT -1 0 0
      >
    >
    <ITEM
      POSITION 32.000000
      SNAPOFFS 0
      LENGTH 64.000000
      LOOP 0
      ALLTAKES 0
      FADEIN 1 0 0 1 0 0 0
      FADEOUT 1 0 0 1 0 0 0
      MUTE 0 0
      SEL 0
      IGUID {94450ED6-18F6-42E9-BFDD-E92CB60D487A}
      IID 1
      NAME "Verse 1"
      VOLPAN 1 0 1 -1
      SOFFS 0
      PLAYRATE 1 1 0 -1 0 0.0025
      CHANMODE 0
      GUID {870149EC-460E-425A-9CFC-D4B34FCC319A}
      <SOURCE MIDI
        HASDATA 1 960 QN
        CCINTERP 32
        POOLEDEVTS {F9A1EDD9-7138-44D1-AE73-5B560DA46B32}
        LAST_REC_LAUNCHQUANT 0
      E 0 90 34 48
      E 0 90 37 48
      E 0 90 3b 48
      E 3792 80 34 00
      E 0 80 37 00
      E 0 80 3b 00
      E 48 90 32 48
      E 0 90 36 48
      E 0 90 39 48
      E 3792 80 32 00
      E 0 80 36 00
      E 0 80 39 00
      E 48 90 3c 48
      E 0 90 40 48
      E 0 90 43 48
      E 3792 80 3c 00
      E 0 80 40 00
      E 0 80 43 00
      E 48 90 3b 48
      E 0 90 3f 48
      E 0 90 42 48
      E 3792 80 3b 00
      E 0 80 3f 00
      E 0 80 42 00
      E 48 90 34 48
      E 0 90 37 48
      E 0 90 3b 48
      E 3792 80 34 00
      E 0 80 37 00
      E 0 80 3b 00
      E 48 90 32 48
      E 0 90 36 48
      E 0 90 39 48
      E 3792 80 32 00
      E 0 80 36 00
      E 0 80 39 00
      E 48 90 3c 48
      E 0 90 40 48
      E 0 90 43 48
      E 3792 80 3c 00
      E 0 80 40 00
      E 0 80 43 00
      E 48 90 3b 48
      E 0 90 3f 48
      E 0 90 42 48
      E 3792 80 3b 00
      E 0 80 3f 00
      E 0 80 42 00
      E 48 90 34 48
      E 0 90 37 48
      E 0 90 3b 48
      E 3792 80 34 00
      E 0 80 37 00
      E 0 80 3b 00
      E 48 90 32 48
      E 0 90 36 48
      E 0 90 39 48
      E 3792 80 32 00
      E 0 80 36 00
      E 0 80 39 00
      E 48 90 3c 48
      E 0 90 40 48
      E 0 90 43 48
      E 3792 80 3c 00
      E 0 80 40 00
      E 0 80 43 00
      E 48 90 3b 48
      E 0 90 3f 48
      E 0 90 42 48
      E 3792 80 3b 00
      E 0 80 3f 00
      E 0 80 42 00
      E 48 90 34 48
      E 0 90 37 48
      E 0 90 3b 48
      E 3792 80 34 00
      E 0 80 37 00
      E 0 80 3b 00
      E 48 90 32 48
      E 0 90 36 48
      E 0 90 39 48
      E 3792 80 32 00
      E 0 80 36 00
      E 0 80 39 00
      E 48 90 3c 48
      E 0 90 40 48
      E 0 90 43 48
      E 3792 80 3c 00
      E 0 80 40 00
      E 0 80 43 00
      E 48 90 3b 48
      E 0 90 3f 48
      E 0 90 42 48
      E 3792 80 3b 00
      E 0 80 3f 00
      E 0 80 42 00
      E 48 b0 7b 00
        CCEVT -1 0 0
      >
    >
    <ITEM
      POSITION 96.000000
      SNAPOFFS 0
      LENGTH 64.000000
      LOOP 0
      ALLTAKES 0
      FADEIN 1 0 0 1 0 0 0
      FADEOUT 1 0 0 1 0 0 0
      MUTE 0 0
      SEL 0
      IGUID {F3D909FA-9D70-4AD2-ADEC-3C995C022554}
      IID 1
      NAME "Chorus 1"
      VOLPAN 1 0 1 -1
      SOFFS 0
      PLAYRATE 1 1 0 -1 0 0.0025
      CHANMODE 0
      GUID {D0CB3B76-5724-4E6D-81A0-DECA1D58B9EF}
      <SOURCE MIDI
        HASDATA 1 960 QN
        CCINTERP 32
        POOLEDEVTS {C204E81E-DE49-47BB-9FC6-B5685CE6E1B7}
        LAST_REC_LAUNCHQUANT 0
      E 0 90 39 58
      E 0 90 3c 58
      E 0 90 40 58
      E 3792 80 39 00
      E 0 80 3c 00
      E 0 80 40 00
      E 48 90 3b 58
      E 0 90 3f 58
      E 0 90 42 58
      E 3792 80 3b 00
      E 0 80 3f 00
      E 0 80 42 00
      E 48 90 34 58
      E 0 90 37 58
      E 0 90 3b 58
      E 3792 80 34 00
      E 0 80 37 00
      E 0 80 3b 00
      E 48 90 32 58
      E 0 90 36 58
      E 0 90 39 58
      E 3792 80 32 00
      E 0 80 36 00
      E 0 80 39 00
      E 48 90 39 58
      E 0 90 3c 58
      E 0 90 40 58
      E 3792 80 39 00
      E 0 80 3c 00
      E 0 80 40 00
      E 48 90 3b 58
      E 0 90 3f 58
      E 0 90 42 58
      E 3792 80 3b 00
      E 0 80 3f 00
      E 0 80 42 00
      E 48 90 34 58
      E 0 90 37 58
      E 0 90 3b 58
      E 3792 80 34 00
      E 0 80 37 00
      E 0 80 3b 00
      E 48 90 32 58
      E 0 90 36 58
      E 0 90 39 58
      E 3792 80 32 00
      E 0 80 36 00
      E 0 80 39 00
      E 48 90 39 58
      E 0 90 3c 58
      E 0 90 40 58
      E 3792 80 39 00
      E 0 80 3c 00
      E 0 80 40 00
      E 48 90 3b 58
      E 0 90 3f 58
      E 0 90 42 58
      E 3792 80 3b 00
      E 0 80 3f 00
      E 0 80 42 00
      E 48 90 34 58
      E 0 90 37 58
      E 0 90 3b 58
      E 3792 80 34 00
      E 0 80 37 00
      E 0 80 3b 00
      E 48 90 32 58
      E 0 90 36 58
      E 0 90 39 58
      E 3792 80 32 00
      E 0 80 36 00
      E 0 80 39 00
      E 48 90 39 58
      E 0 90 3c 58
      E 0 90 40 58
      E 3792 80 39 00
      E 0 80 3c 00
      E 0 80 40 00
      E 48 90 3b 58
      E 0 90 3f 58
      E 0 90 42 58
      E 3792 80 3b 00
      E 0 80 3f 00
      E 0 80 42 00
      E 48 90 34 58
      E 0 90 37 58
      E 0 90 3b 58
      E 3792 80 34 00
      E 0 80 37 00
      E 0 80 3b 00
      E 48 90 32 58
      E 0 90 36 58
      E 0 90 39 58
      E 3792 80 32 00
      E 0 80 36 00
      E 0 80 39 00
      E 48 b0 7b 00
        CCEVT -1 0 0
      >
    >
    <ITEM
      POSITION 160.000000
      SNAPOFFS 0
      LENGTH 64.000000
      LOOP 0
      ALLTAKES 0
      FADEIN 1 0 0 1 0 0 0
      FADEOUT 1 0 0 1 0 0 0
      MUTE 0 0
      SEL 0
      IGUID {D6504943-3127-456A-AE7B-56EA95270B2C}
      IID 1
      NAME "Verse 2"
      VOLPAN 1 0 1 -1
      SOFFS 0
      PLAYRATE 1 1 0 -1 0 0.0025
      CHANMODE 0
      GUID {DE79A07E-AA1D-42FB-B2E5-E9FBDB1BA31E}
      <SOURCE MIDI
        HASDATA 1 960 QN
        CCINTERP 32
        POOLEDEVTS {EF4953F3-9A09-4FC8-AA59-FF8DCB19C66D}
        LAST_REC_LAUNCHQUANT 0
      E 0 90 34 48
      E 0 90 37 48
      E 0 90 3b 48
      E 3792 80 34 00
      E 0 80 37 00
      E 0 80 3b 00
      E 48 90 32 48
      E 0 90 36 48
      E 0 90 39 48
      E 3792 80 32 00
      E 0 80 36 00
      E 0 80 39 00
      E 48 90 3c 48
      E 0 90 40 48
      E 0 90 43 48
      E 3792 80 3c 00
      E 0 80 40 00
      E 0 80 43 00
      E 48 90 3b 48
      E 0 90 3f 48
      E 0 90 42 48
      E 3792 80 3b 00
      E 0 80 3f 00
      E 0 80 42 00
      E 48 90 34 48
      E 0 90 37 48
      E 0 90 3b 48
      E 3792 80 34 00
      E 0 80 37 00
      E 0 80 3b 00
      E 48 90 32 48
      E 0 90 36 48
      E 0 90 39 48
      E 3792 80 32 00
      E 0 80 36 00
      E 0 80 39 00
      E 48 90 3c 48
      E 0 90 40 48
      E 0 90 43 48
      E 3792 80 3c 00
      E 0 80 40 00
      E 0 80 43 00
      E 48 90 3b 48
      E 0 90 3f 48
      E 0 90 42 48
      E 3792 80 3b 00
      E 0 80 3f 00
      E 0 80 42 00
      E 48 90 34 48
      E 0 90 37 48
      E 0 90 3b 48
      E 3792 80 34 00
      E 0 80 37 00
      E 0 80 3b 00
      E 48 90 32 48
      E 0 90 36 48
      E 0 90 39 48
      E 3792 80 32 00
      E 0 80 36 00
      E 0 80 39 00
      E 48 90 3c 48
      E 0 90 40 48
      E 0 90 43 48
      E 3792 80 3c 00
      E 0 80 40 00
      E 0 80 43 00
      E 48 90 3b 48
      E 0 90 3f 48
      E 0 90 42 48
      E 3792 80 3b 00
      E 0 80 3f 00
      E 0 80 42 00
      E 48 90 34 48
      E 0 90 37 48
      E 0 90 3b 48
      E 3792 80 34 00
      E 0 80 37 00
      E 0 80 3b 00
      E 48 90 32 48
      E 0 90 36 48
      E 0 90 39 48
      E 3792 80 32 00
      E 0 80 36 00
      E 0 80 39 00
      E 48 90 3c 48
      E 0 90 40 48
      E 0 90 43 48
      E 3792 80 3c 00
      E 0 80 40 00
      E 0 80 43 00
      E 48 90 3b 48
      E 0 90 3f 48
      E 0 90 42 48
      E 3792 80 3b 00
      E 0 80 3f 00
      E 0 80 42 00
      E 48 b0 7b 00
        CCEVT -1 0 0
      >
    >
    <ITEM
      POSITION 224.000000
      SNAPOFFS 0
      LENGTH 32.000000
      LOOP 0
      ALLTAKES 0
      FADEIN 1 0 0 1 0 0 0
      FADEOUT 1 0 0 1 0 0 0
      MUTE 0 0
      SEL 0
      IGUID {6DB61EA2-6773-405A-A1D9-DF546094CCA4}
      IID 1
      NAME "Bridge"
      VOLPAN 1 0 1 -1
      SOFFS 0
      PLAYRATE 1 1 0 -1 0 0.0025
      CHANMODE 0
      GUID {7C19D18A-AAEE-4D0E-A77D-41EA02A12D82}
      <SOURCE MIDI
        HASDATA 1 960 QN
        CCINTERP 32
        POOLEDEVTS {5CBDBA67-4966-4B44-BAC1-E09FF6EB74D5}
        LAST_REC_LAUNCHQUANT 0
      E 0 90 3c 41
      E 0 90 40 41
      E 0 90 43 41
      E 1872 80 3c 00
      E 0 80 40 00
      E 0 80 43 00
      E 48 90 37 41
      E 0 90 3b 41
      E 0 90 3e 41
      E 1872 80 37 00
      E 0 80 3b 00
      E 0 80 3e 00
      E 48 90 32 41
      E 0 90 36 41
      E 0 90 39 41
      E 1872 80 32 00
      E 0 80 36 00
      E 0 80 39 00
      E 48 90 39 41
      E 0 90 3c 41
      E 0 90 40 41
      E 1872 80 39 00
      E 0 80 3c 00
      E 0 80 40 00
      E 48 90 3c 41
      E 0 90 40 41
      E 0 90 43 41
      E 1872 80 3c 00
      E 0 80 40 00
      E 0 80 43 00
      E 48 90 37 41
      E 0 90 3b 41
      E 0 90 3e 41
      E 1872 80 37 00
      E 0 80 3b 00
      E 0 80 3e 00
      E 48 90 32 41
      E 0 90 36 41
      E 0 90 39 41
      E 1872 80 32 00
      E 0 80 36 00
      E 0 80 39 00
      E 48 90 39 41
      E 0 90 3c 41
      E 0 90 40 41
      E 1872 80 39 00
      E 0 80 3c 00
      E 0 80 40 00
      E 48 90 3c 41
      E 0 90 40 41
      E 0 90 43 41
      E 1872 80 3c 00
      E 0 80 40 00
      E 0 80 43 00
      E 48 90 37 41
      E 0 90 3b 41
      E 0 90 3e 41
      E 1872 80 37 00
      E 0 80 3b 00
      E 0 80 3e 00
      E 48 90 32 41
      E 0 90 36 41
      E 0 90 39 41
      E 1872 80 32 00
      E 0 80 36 00
      E 0 80 39 00
      E 48 90 39 41
      E 0 90 3c 41
      E 0 90 40 41
      E 1872 80 39 00
      E 0 80 3c 00
      E 0 80 40 00
      E 48 90 3c 41
      E 0 90 40 41
      E 0 90 43 41
      E 1872 80 3c 00
      E 0 80 40 00
      E 0 80 43 00
      E 48 90 37 41
      E 0 90 3b 41
      E 0 90 3e 41
      E 1872 80 37 00
      E 0 80 3b 00
      E 0 80 3e 00
      E 48 90 32 41
      E 0 90 36 41
      E 0 90 39 41
      E 1872 80 32 00
      E 0 80 36 00
      E 0 80 39 00
      E 48 90 39 41
      E 0 90 3c 41
      E 0 90 40 41
      E 1872 80 39 00
      E 0 80 3c 00
      E 0 80 40 00
      E 48 b0 7b 00
        CCEVT -1 0 0
      >
    >
    <ITEM
      POSITION 256.000000
      SNAPOFFS 0
      LENGTH 64.000000
      LOOP 0
      ALLTAKES 0
      FADEIN 1 0 0 1 0 0 0
      FADEOUT 1 0 0 1 0 0 0
      MUTE 0 0
      SEL 0
      IGUID {9669B6C1-8242-46E5-9479-CF268AFA216E}
      IID 1
      NAME "Chorus 2"
      VOLPAN 1 0 1 -1
      SOFFS 0
      PLAYRATE 1 1 0 -1 0 0.0025
      CHANMODE 0
      GUID {235C09B0-EBFE-4BC2-9301-6E9548282B3E}
      <SOURCE MIDI
        HASDATA 1 960 QN
        CCINTERP 32
        POOLEDEVTS {C5E7F07E-5B7D-483D-8676-459F9F49B59F}
        LAST_REC_LAUNCHQUANT 0
      E 0 90 39 5c
      E 0 90 3c 5c
      E 0 90 40 5c
      E 3792 80 39 00
      E 0 80 3c 00
      E 0 80 40 00
      E 48 90 3b 5c
      E 0 90 3f 5c
      E 0 90 42 5c
      E 3792 80 3b 00
      E 0 80 3f 00
      E 0 80 42 00
      E 48 90 34 5c
      E 0 90 37 5c
      E 0 90 3b 5c
      E 3792 80 34 00
      E 0 80 37 00
      E 0 80 3b 00
      E 48 90 32 5c
      E 0 90 36 5c
      E 0 90 39 5c
      E 3792 80 32 00
      E 0 80 36 00
      E 0 80 39 00
      E 48 90 39 5c
      E 0 90 3c 5c
      E 0 90 40 5c
      E 3792 80 39 00
      E 0 80 3c 00
      E 0 80 40 00
      E 48 90 3b 5c
      E 0 90 3f 5c
      E 0 90 42 5c
      E 3792 80 3b 00
      E 0 80 3f 00
      E 0 80 42 00
      E 48 90 34 5c
      E 0 90 37 5c
      E 0 90 3b 5c
      E 3792 80 34 00
      E 0 80 37 00
      E 0 80 3b 00
      E 48 90 32 5c
      E 0 90 36 5c
      E 0 90 39 5c
      E 3792 80 32 00
      E 0 80 36 00
      E 0 80 39 00
      E 48 90 39 5c
      E 0 90 3c 5c
      E 0 90 40 5c
      E 3792 80 39 00
      E 0 80 3c 00
      E 0 80 40 00
      E 48 90 3b 5c
      E 0 90 3f 5c
      E 0 90 42 5c
      E 3792 80 3b 00
      E 0 80 3f 00
      E 0 80 42 00
      E 48 90 34 5c
      E 0 90 37 5c
      E 0 90 3b 5c
      E 3792 80 34 00
      E 0 80 37 00
      E 0 80 3b 00
      E 48 90 32 5c
      E 0 90 36 5c
      E 0 90 39 5c
      E 3792 80 32 00
      E 0 80 36 00
      E 0 80 39 00
      E 48 90 39 5c
      E 0 90 3c 5c
      E 0 90 40 5c
      E 3792 80 39 00
      E 0 80 3c 00
      E 0 80 40 00
      E 48 90 3b 5c
      E 0 90 3f 5c
      E 0 90 42 5c
      E 3792 80 3b 00
      E 0 80 3f 00
      E 0 80 42 00
      E 48 90 34 5c
      E 0 90 37 5c
      E 0 90 3b 5c
      E 3792 80 34 00
      E 0 80 37 00
      E 0 80 3b 00
      E 48 90 32 5c
      E 0 90 36 5c
      E 0 90 39 5c
      E 3792 80 32 00
      E 0 80 36 00
      E 0 80 39 00
      E 48 b0 7b 00
        CCEVT -1 0 0
      >
    >
    <ITEM
      POSITION 320.000000
      SNAPOFFS 0
      LENGTH 32.000000
      LOOP 0
      ALLTAKES 0
      FADEIN 1 0 0 1 0 0 0
      FADEOUT 1 0 0 1 0 0 0
      MUTE 0 0
      SEL 0
      IGUID {C7939CC0-9702-4A13-BE6A-E63639E7D133}
      IID 1
      NAME "Outro"
      VOLPAN 1 0 1 -1
      SOFFS 0
      PLAYRATE 1 1 0 -1 0 0.0025
      CHANMODE 0
      GUID {1BB9968C-64A1-4246-97D7-B9D69EB79BC5}
      <SOURCE MIDI
        HASDATA 1 960 QN
        CCINTERP 32
        POOLEDEVTS {D4448878-2309-4F62-987A-CFF3F2E48F4D}
        LAST_REC_LAUNCHQUANT 0
      E 0 90 34 3c
      E 0 90 37 3c
      E 0 90 3b 3c
      E 1872 80 34 00
      E 0 80 37 00
      E 0 80 3b 00
      E 48 90 32 3c
      E 0 90 36 3c
      E 0 90 39 3c
      E 1872 80 32 00
      E 0 80 36 00
      E 0 80 39 00
      E 48 90 3c 3c
      E 0 90 40 3c
      E 0 90 43 3c
      E 1872 80 3c 00
      E 0 80 40 00
      E 0 80 43 00
      E 48 90 3b 3c
      E 0 90 3f 3c
      E 0 90 42 3c
      E 1872 80 3b 00
      E 0 80 3f 00
      E 0 80 42 00
      E 48 90 34 3c
      E 0 90 37 3c
      E 0 90 3b 3c
      E 1872 80 34 00
      E 0 80 37 00
      E 0 80 3b 00
      E 48 90 32 3c
      E 0 90 36 3c
      E 0 90 39 3c
      E 1872 80 32 00
      E 0 80 36 00
      E 0 80 39 00
      E 48 90 3c 3c
      E 0 90 40 3c
      E 0 90 43 3c
      E 1872 80 3c 00
      E 0 80 40 00
      E 0 80 43 00
      E 48 90 3b 3c
      E 0 90 3f 3c
      E 0 90 42 3c
      E 1872 80 3b 00
      E 0 80 3f 00
      E 0 80 42 00
      E 48 90 34 3c
      E 0 90 37 3c
      E 0 90 3b 3c
      E 1872 80 34 00
      E 0 80 37 00
      E 0 80 3b 00
      E 48 90 32 3c
      E 0 90 36 3c
      E 0 90 39 3c
      E 1872 80 32 00
      E 0 80 36 00
      E 0 80 39 00
      E 48 90 3c 3c
      E 0 90 40 3c
      E 0 90 43 3c
      E 1872 80 3c 00
      E 0 80 40 00
      E 0 80 43 00
      E 48 90 3b 3c
      E 0 90 3f 3c
      E 0 90 42 3c
      E 1872 80 3b 00
      E 0 80 3f 00
      E 0 80 42 00
      E 48 90 34 3c
      E 0 90 37 3c
      E 0 90 3b 3c
      E 1872 80 34 00
      E 0 80 37 00
      E 0 80 3b 00
      E 48 90 32 3c
      E 0 90 36 3c
      E 0 90 39 3c
      E 1872 80 32 00
      E 0 80 36 00
      E 0 80 39 00
      E 48 90 3c 3c
      E 0 90 40 3c
      E 0 90 43 3c
      E 1872 80 3c 00
      E 0 80 40 00
      E 0 80 43 00
      E 48 90 3b 3c
      E 0 90 3f 3c
      E 0 90 42 3c
      E 1872 80 3b 00
      E 0 80 3f 00
      E 0 80 42 00
      E 48 b0 7b 00
        CCEVT -1 0 0
      >
    >

  >
  <TRACK {021A1353-B5E7-48DE-9881-FAA21CA27A13}
    NAME "Drums (Kick+Snare)"
    PEAKCOL 22045951
    BEAT -1
    AUTOMODE 0
    VOLPAN 1 0 0.6 -1
    MUTESOLO 0 0 0
    IPHASE 0
    PLAYOFFS 0 1
    ISBUS 0 0
    BUSCOMP 0 0 0 0 0
    SHOWINMIX 1 0.6667 0.5 1 0.5 0 0 0
    FREEMODE 0
    SEL 0
    REC 0 0 1 0 0 0 0
    VU 2
    TRACKHEIGHT 0 0 0 0 0 0
    INQ 0 0 0 0.5 100 0 0 100
    NCHAN 2
    FX 1
    TRACKID {AAEDA8C4-B4FA-4AF5-AFF0-718CBA6DDEB8}
    PERF 0
    MIDIOUT -1
    MAINSEND 1 0
    <ITEM
      POSITION 0.000000
      SNAPOFFS 0
      LENGTH 32.000000
      LOOP 0
      ALLTAKES 0
      FADEIN 1 0 0 1 0 0 0
      FADEOUT 1 0 0 1 0 0 0
      MUTE 0 0
      SEL 0
      IGUID {9207D76C-9721-4506-AF78-4AF43EF487A6}
      IID 1
      NAME "Intro"
      VOLPAN 1 0 1 -1
      SOFFS 0
      PLAYRATE 1 1 0 -1 0 0.0025
      CHANMODE 0
      GUID {BE8B5F6F-0334-41A7-81C2-0457ED586118}
      <SOURCE MIDI
        HASDATA 1 960 QN
        CCINTERP 32
        POOLEDEVTS {1F9E0B00-40F9-4441-B335-971459D110C1}
        LAST_REC_LAUNCHQUANT 0
      E 0 90 24 5a
      E 336 80 24 00
      E 3504 90 24 5a
      E 336 80 24 00
      E 3504 90 24 5a
      E 336 80 24 00
      E 3504 90 24 5a
      E 336 80 24 00
      E 3504 90 24 5a
      E 336 80 24 00
      E 3504 90 24 5a
      E 336 80 24 00
      E 3504 90 24 5a
      E 336 80 24 00
      E 3504 90 24 5a
      E 336 80 24 00
      E 3504 b0 7b 00
        CCEVT -1 0 0
      >
    >
    <ITEM
      POSITION 32.000000
      SNAPOFFS 0
      LENGTH 64.000000
      LOOP 0
      ALLTAKES 0
      FADEIN 1 0 0 1 0 0 0
      FADEOUT 1 0 0 1 0 0 0
      MUTE 0 0
      SEL 0
      IGUID {04A7A523-C88B-4768-8031-B25D583FB22D}
      IID 1
      NAME "Verse 1"
      VOLPAN 1 0 1 -1
      SOFFS 0
      PLAYRATE 1 1 0 -1 0 0.0025
      CHANMODE 0
      GUID {B815B860-D021-420D-A13B-FBDF438BA048}
      <SOURCE MIDI
        HASDATA 1 960 QN
        CCINTERP 32
        POOLEDEVTS {DA747FA6-5F33-43C2-BFD8-5BB0CA5A8ADC}
        LAST_REC_LAUNCHQUANT 0
      E 0 90 24 5a
      E 336 80 24 00
      E 1584 90 26 50
      E 336 80 26 00
      E 1584 90 24 5a
      E 336 80 24 00
      E 1584 90 26 50
      E 336 80 26 00
      E 1584 90 24 5a
      E 336 80 24 00
      E 1584 90 26 50
      E 336 80 26 00
      E 1584 90 24 5a
      E 336 80 24 00
      E 1584 90 26 50
      E 336 80 26 00
      E 1584 90 24 5a
      E 336 80 24 00
      E 1584 90 26 50
      E 336 80 26 00
      E 1584 90 24 5a
      E 336 80 24 00
      E 1584 90 26 50
      E 336 80 26 00
      E 1584 90 24 5a
      E 336 80 24 00
      E 1584 90 26 50
      E 336 80 26 00
      E 1584 90 24 5a
      E 336 80 24 00
      E 1584 90 26 50
      E 336 80 26 00
      E 1584 90 24 5a
      E 336 80 24 00
      E 1584 90 26 50
      E 336 80 26 00
      E 1584 90 24 5a
      E 336 80 24 00
      E 1584 90 26 50
      E 336 80 26 00
      E 1584 90 24 5a
      E 336 80 24 00
      E 1584 90 26 50
      E 336 80 26 00
      E 1584 90 24 5a
      E 336 80 24 00
      E 1584 90 26 50
      E 336 80 26 00
      E 1584 90 24 5a
      E 336 80 24 00
      E 1584 90 26 50
      E 336 80 26 00
      E 1584 90 24 5a
      E 336 80 24 00
      E 1584 90 26 50
      E 336 80 26 00
      E 1584 90 24 5a
      E 336 80 24 00
      E 1584 90 26 50
      E 336 80 26 00
      E 1584 90 24 5a
      E 336 80 24 00
      E 1584 90 26 50
      E 336 80 26 00
      E 1584 b0 7b 00
        CCEVT -1 0 0
      >
    >
    <ITEM
      POSITION 96.000000
      SNAPOFFS 0
      LENGTH 64.000000
      LOOP 0
      ALLTAKES 0
      FADEIN 1 0 0 1 0 0 0
      FADEOUT 1 0 0 1 0 0 0
      MUTE 0 0
      SEL 0
      IGUID {E2DAAAF8-C025-4B60-B8DB-2CCAD81F685F}
      IID 1
      NAME "Chorus 1"
      VOLPAN 1 0 1 -1
      SOFFS 0
      PLAYRATE 1 1 0 -1 0 0.0025
      CHANMODE 0
      GUID {19B37F86-78EE-4AA1-9E0C-1E2ACAD8CC23}
      <SOURCE MIDI
        HASDATA 1 960 QN
        CCINTERP 32
        POOLEDEVTS {ED429516-3300-4037-93C9-91DEB4570DC6}
        LAST_REC_LAUNCHQUANT 0
      E 0 90 24 64
      E 336 80 24 00
      E 624 90 26 5a
      E 336 80 26 00
      E 624 90 24 5f
      E 336 80 24 00
      E 624 90 26 5a
      E 336 80 26 00
      E 624 90 24 64
      E 336 80 24 00
      E 624 90 26 5a
      E 336 80 26 00
      E 624 90 24 5f
      E 336 80 24 00
      E 624 90 26 5a
      E 336 80 26 00
      E 624 90 24 64
      E 336 80 24 00
      E 624 90 26 5a
      E 336 80 26 00
      E 624 90 24 5f
      E 336 80 24 00
      E 624 90 26 5a
      E 336 80 26 00
      E 624 90 24 64
      E 336 80 24 00
      E 624 90 26 5a
      E 336 80 26 00
      E 624 90 24 5f
      E 336 80 24 00
      E 624 90 26 5a
      E 336 80 26 00
      E 624 90 24 64
      E 336 80 24 00
      E 624 90 26 5a
      E 336 80 26 00
      E 624 90 24 5f
      E 336 80 24 00
      E 624 90 26 5a
      E 336 80 26 00
      E 624 90 24 64
      E 336 80 24 00
      E 624 90 26 5a
      E 336 80 26 00
      E 624 90 24 5f
      E 336 80 24 00
      E 624 90 26 5a
      E 336 80 26 00
      E 624 90 24 64
      E 336 80 24 00
      E 624 90 26 5a
      E 336 80 26 00
      E 624 90 24 5f
      E 336 80 24 00
      E 624 90 26 5a
      E 336 80 26 00
      E 624 90 24 64
      E 336 80 24 00
      E 624 90 26 5a
      E 336 80 26 00
      E 624 90 24 5f
      E 336 80 24 00
      E 624 90 26 5a
      E 336 80 26 00
      E 624 90 24 64
      E 336 80 24 00
      E 624 90 26 5a
      E 336 80 26 00
      E 624 90 24 5f
      E 336 80 24 00
      E 624 90 26 5a
      E 336 80 26 00
      E 624 90 24 64
      E 336 80 24 00
      E 624 90 26 5a
      E 336 80 26 00
      E 624 90 24 5f
      E 336 80 24 00
      E 624 90 26 5a
      E 336 80 26 00
      E 624 90 24 64
      E 336 80 24 00
      E 624 90 26 5a
      E 336 80 26 00
      E 624 90 24 5f
      E 336 80 24 00
      E 624 90 26 5a
      E 336 80 26 00
      E 624 90 24 64
      E 336 80 24 00
      E 624 90 26 5a
      E 336 80 26 00
      E 624 90 24 5f
      E 336 80 24 00
      E 624 90 26 5a
      E 336 80 26 00
      E 624 90 24 64
      E 336 80 24 00
      E 624 90 26 5a
      E 336 80 26 00
      E 624 90 24 5f
      E 336 80 24 00
      E 624 90 26 5a
      E 336 80 26 00
      E 624 90 24 64
      E 336 80 24 00
      E 624 90 26 5a
      E 336 80 26 00
      E 624 90 24 5f
      E 336 80 24 00
      E 624 90 26 5a
      E 336 80 26 00
      E 624 90 24 64
      E 336 80 24 00
      E 624 90 26 5a
      E 336 80 26 00
      E 624 90 24 5f
      E 336 80 24 00
      E 624 90 26 5a
      E 336 80 26 00
      E 624 90 24 64
      E 336 80 24 00
      E 624 90 26 5a
      E 336 80 26 00
      E 624 90 24 5f
      E 336 80 24 00
      E 624 90 26 5a
      E 336 80 26 00
      E 624 b0 7b 00
        CCEVT -1 0 0
      >
    >
    <ITEM
      POSITION 160.000000
      SNAPOFFS 0
      LENGTH 64.000000
      LOOP 0
      ALLTAKES 0
      FADEIN 1 0 0 1 0 0 0
      FADEOUT 1 0 0 1 0 0 0
      MUTE 0 0
      SEL 0
      IGUID {7AA65D1A-C6D6-4FA4-8299-9E8AC24DC137}
      IID 1
      NAME "Verse 2"
      VOLPAN 1 0 1 -1
      SOFFS 0
      PLAYRATE 1 1 0 -1 0 0.0025
      CHANMODE 0
      GUID {AC6F2B74-C3E5-450C-A11B-B2CD826C4764}
      <SOURCE MIDI
        HASDATA 1 960 QN
        CCINTERP 32
        POOLEDEVTS {6A19D092-F9B6-4ADF-81DC-14B022579D70}
        LAST_REC_LAUNCHQUANT 0
      E 0 90 24 5a
      E 336 80 24 00
      E 1584 90 26 50
      E 336 80 26 00
      E 1584 90 24 5a
      E 336 80 24 00
      E 1584 90 26 50
      E 336 80 26 00
      E 1584 90 24 5a
      E 336 80 24 00
      E 1584 90 26 50
      E 336 80 26 00
      E 1584 90 24 5a
      E 336 80 24 00
      E 1584 90 26 50
      E 336 80 26 00
      E 1584 90 24 5a
      E 336 80 24 00
      E 1584 90 26 50
      E 336 80 26 00
      E 1584 90 24 5a
      E 336 80 24 00
      E 1584 90 26 50
      E 336 80 26 00
      E 1584 90 24 5a
      E 336 80 24 00
      E 1584 90 26 50
      E 336 80 26 00
      E 1584 90 24 5a
      E 336 80 24 00
      E 1584 90 26 50
      E 336 80 26 00
      E 1584 90 24 5a
      E 336 80 24 00
      E 1584 90 26 50
      E 336 80 26 00
      E 1584 90 24 5a
      E 336 80 24 00
      E 1584 90 26 50
      E 336 80 26 00
      E 1584 90 24 5a
      E 336 80 24 00
      E 1584 90 26 50
      E 336 80 26 00
      E 1584 90 24 5a
      E 336 80 24 00
      E 1584 90 26 50
      E 336 80 26 00
      E 1584 90 24 5a
      E 336 80 24 00
      E 1584 90 26 50
      E 336 80 26 00
      E 1584 90 24 5a
      E 336 80 24 00
      E 1584 90 26 50
      E 336 80 26 00
      E 1584 90 24 5a
      E 336 80 24 00
      E 1584 90 26 50
      E 336 80 26 00
      E 1584 90 24 5a
      E 336 80 24 00
      E 1584 90 26 50
      E 336 80 26 00
      E 1584 b0 7b 00
        CCEVT -1 0 0
      >
    >
    <ITEM
      POSITION 224.000000
      SNAPOFFS 0
      LENGTH 32.000000
      LOOP 0
      ALLTAKES 0
      FADEIN 1 0 0 1 0 0 0
      FADEOUT 1 0 0 1 0 0 0
      MUTE 0 0
      SEL 0
      IGUID {28A4F74F-E277-42A1-BC52-14D24A3088E5}
      IID 1
      NAME "Bridge"
      VOLPAN 1 0 1 -1
      SOFFS 0
      PLAYRATE 1 1 0 -1 0 0.0025
      CHANMODE 0
      GUID {A74B38FA-2BAB-4F10-9848-5F2F1C4A3EA1}
      <SOURCE MIDI
        HASDATA 1 960 QN
        CCINTERP 32
        POOLEDEVTS {CFA8596E-1E21-4C1D-878B-8C0FAF411BFE}
        LAST_REC_LAUNCHQUANT 0
      E 0 90 24 55
      E 336 80 24 00
      E 2064 90 26 4b
      E 336 80 26 00
      E 1104 90 24 55
      E 336 80 24 00
      E 2064 90 26 4b
      E 336 80 26 00
      E 1104 90 24 55
      E 336 80 24 00
      E 2064 90 26 4b
      E 336 80 26 00
      E 1104 90 24 55
      E 336 80 24 00
      E 2064 90 26 4b
      E 336 80 26 00
      E 1104 90 24 55
      E 336 80 24 00
      E 2064 90 26 4b
      E 336 80 26 00
      E 1104 90 24 55
      E 336 80 24 00
      E 2064 90 26 4b
      E 336 80 26 00
      E 1104 90 24 55
      E 336 80 24 00
      E 2064 90 26 4b
      E 336 80 26 00
      E 1104 90 24 55
      E 336 80 24 00
      E 2064 90 26 4b
      E 336 80 26 00
      E 1104 b0 7b 00
        CCEVT -1 0 0
      >
    >
    <ITEM
      POSITION 256.000000
      SNAPOFFS 0
      LENGTH 64.000000
      LOOP 0
      ALLTAKES 0
      FADEIN 1 0 0 1 0 0 0
      FADEOUT 1 0 0 1 0 0 0
      MUTE 0 0
      SEL 0
      IGUID {DEF6537E-5265-4293-9DBD-F64C70F956DC}
      IID 1
      NAME "Chorus 2"
      VOLPAN 1 0 1 -1
      SOFFS 0
      PLAYRATE 1 1 0 -1 0 0.0025
      CHANMODE 0
      GUID {CB90A016-6492-43B8-8903-DDFFE7449653}
      <SOURCE MIDI
        HASDATA 1 960 QN
        CCINTERP 32
        POOLEDEVTS {82493683-CE59-4901-AC32-6A728DCA3AC6}
        LAST_REC_LAUNCHQUANT 0
      E 0 90 24 69
      E 336 80 24 00
      E 144 90 24 50
      E 336 80 24 00
      E 144 90 26 5f
      E 336 80 26 00
      E 624 90 24 64
      E 336 80 24 00
      E 144 90 24 4b
      E 336 80 24 00
      E 144 90 26 5f
      E 336 80 26 00
      E 624 90 24 69
      E 336 80 24 00
      E 144 90 24 50
      E 336 80 24 00
      E 144 90 26 5f
      E 336 80 26 00
      E 624 90 24 64
      E 336 80 24 00
      E 144 90 24 4b
      E 336 80 24 00
      E 144 90 26 5f
      E 336 80 26 00
      E 624 90 24 69
      E 336 80 24 00
      E 144 90 24 50
      E 336 80 24 00
      E 144 90 26 5f
      E 336 80 26 00
      E 624 90 24 64
      E 336 80 24 00
      E 144 90 24 4b
      E 336 80 24 00
      E 144 90 26 5f
      E 336 80 26 00
      E 624 90 24 69
      E 336 80 24 00
      E 144 90 24 50
      E 336 80 24 00
      E 144 90 26 5f
      E 336 80 26 00
      E 624 90 24 64
      E 336 80 24 00
      E 144 90 24 4b
      E 336 80 24 00
      E 144 90 26 5f
      E 336 80 26 00
      E 624 90 24 69
      E 336 80 24 00
      E 144 90 24 50
      E 336 80 24 00
      E 144 90 26 5f
      E 336 80 26 00
      E 624 90 24 64
      E 336 80 24 00
      E 144 90 24 4b
      E 336 80 24 00
      E 144 90 26 5f
      E 336 80 26 00
      E 624 90 24 69
      E 336 80 24 00
      E 144 90 24 50
      E 336 80 24 00
      E 144 90 26 5f
      E 336 80 26 00
      E 624 90 24 64
      E 336 80 24 00
      E 144 90 24 4b
      E 336 80 24 00
      E 144 90 26 5f
      E 336 80 26 00
      E 624 90 24 69
      E 336 80 24 00
      E 144 90 24 50
      E 336 80 24 00
      E 144 90 26 5f
      E 336 80 26 00
      E 624 90 24 64
      E 336 80 24 00
      E 144 90 24 4b
      E 336 80 24 00
      E 144 90 26 5f
      E 336 80 26 00
      E 624 90 24 69
      E 336 80 24 00
      E 144 90 24 50
      E 336 80 24 00
      E 144 90 26 5f
      E 336 80 26 00
      E 624 90 24 64
      E 336 80 24 00
      E 144 90 24 4b
      E 336 80 24 00
      E 144 90 26 5f
      E 336 80 26 00
      E 624 90 24 69
      E 336 80 24 00
      E 144 90 24 50
      E 336 80 24 00
      E 144 90 26 5f
      E 336 80 26 00
      E 624 90 24 64
      E 336 80 24 00
      E 144 90 24 4b
      E 336 80 24 00
      E 144 90 26 5f
      E 336 80 26 00
      E 624 90 24 69
      E 336 80 24 00
      E 144 90 24 50
      E 336 80 24 00
      E 144 90 26 5f
      E 336 80 26 00
      E 624 90 24 64
      E 336 80 24 00
      E 144 90 24 4b
      E 336 80 24 00
      E 144 90 26 5f
      E 336 80 26 00
      E 624 90 24 69
      E 336 80 24 00
      E 144 90 24 50
      E 336 80 24 00
      E 144 90 26 5f
      E 336 80 26 00
      E 624 90 24 64
      E 336 80 24 00
      E 144 90 24 4b
      E 336 80 24 00
      E 144 90 26 5f
      E 336 80 26 00
      E 624 90 24 69
      E 336 80 24 00
      E 144 90 24 50
      E 336 80 24 00
      E 144 90 26 5f
      E 336 80 26 00
      E 624 90 24 64
      E 336 80 24 00
      E 144 90 24 4b
      E 336 80 24 00
      E 144 90 26 5f
      E 336 80 26 00
      E 624 90 24 69
      E 336 80 24 00
      E 144 90 24 50
      E 336 80 24 00
      E 144 90 26 5f
      E 336 80 26 00
      E 624 90 24 64
      E 336 80 24 00
      E 144 90 24 4b
      E 336 80 24 00
      E 144 90 26 5f
      E 336 80 26 00
      E 624 90 24 69
      E 336 80 24 00
      E 144 90 24 50
      E 336 80 24 00
      E 144 90 26 5f
      E 336 80 26 00
      E 624 90 24 64
      E 336 80 24 00
      E 144 90 24 4b
      E 336 80 24 00
      E 144 90 26 5f
      E 336 80 26 00
      E 624 90 24 69
      E 336 80 24 00
      E 144 90 24 50
      E 336 80 24 00
      E 144 90 26 5f
      E 336 80 26 00
      E 624 90 24 64
      E 336 80 24 00
      E 144 90 24 4b
      E 336 80 24 00
      E 144 90 26 5f
      E 336 80 26 00
      E 624 90 24 69
      E 336 80 24 00
      E 144 90 24 50
      E 336 80 24 00
      E 144 90 26 5f
      E 336 80 26 00
      E 624 90 24 64
      E 336 80 24 00
      E 144 90 24 4b
      E 336 80 24 00
      E 144 90 26 5f
      E 336 80 26 00
      E 624 b0 7b 00
        CCEVT -1 0 0
      >
    >
    <ITEM
      POSITION 320.000000
      SNAPOFFS 0
      LENGTH 32.000000
      LOOP 0
      ALLTAKES 0
      FADEIN 1 0 0 1 0 0 0
      FADEOUT 1 0 0 1 0 0 0
      MUTE 0 0
      SEL 0
      IGUID {7E9C4B56-73B6-4FBD-A04E-BD2F3C19BC45}
      IID 1
      NAME "Outro"
      VOLPAN 1 0 1 -1
      SOFFS 0
      PLAYRATE 1 1 0 -1 0 0.0025
      CHANMODE 0
      GUID {C2AAC8E8-FC88-4069-A079-F50DF7C01E1B}
      <SOURCE MIDI
        HASDATA 1 960 QN
        CCINTERP 32
        POOLEDEVTS {3969B4A9-04C2-463E-9D09-77A58432763B}
        LAST_REC_LAUNCHQUANT 0
      E 0 90 24 5a
      E 336 80 24 00
      E 1584 90 26 50
      E 336 80 26 00
      E 1584 90 24 5a
      E 336 80 24 00
      E 1584 90 26 50
      E 336 80 26 00
      E 1584 90 24 5a
      E 336 80 24 00
      E 1584 90 26 50
      E 336 80 26 00
      E 1584 90 24 5a
      E 336 80 24 00
      E 1584 90 26 50
      E 336 80 26 00
      E 1584 90 24 5a
      E 336 80 24 00
      E 1584 90 26 50
      E 336 80 26 00
      E 1584 90 24 5a
      E 336 80 24 00
      E 1584 90 26 50
      E 336 80 26 00
      E 1584 90 24 5a
      E 336 80 24 00
      E 1584 90 26 50
      E 336 80 26 00
      E 1584 90 24 5a
      E 336 80 24 00
      E 1584 90 26 50
      E 336 80 26 00
      E 1584 b0 7b 00
        CCEVT -1 0 0
      >
    >

  >
>