<REAPER_PROJECT 0.1 "6.82/OSX64" 1708000000
  RIPPLE 0
  GROUPOVERRIDE 0 0 0
  AUTOXFADE 129
  ENVATTACH 3
  POOLEDENVATTACH 0
  MIXERUIFLAGS 11 48
  PEAKGAIN 1
  FEEDBACK 0
  PANLAW 1
  PROJOFFS 0 0 0
  MAXPROJLEN 0 210.400000
  GRID 3199 8 1 8 1 0 0 0
  TIMEMODE 1 5 -1 30 0 0 -1
  VIDEO_CONFIG 0 0 256
  PANMODE 3
  CURSOR 0
  ZOOM 100 0 0
  VZOOMEX 6 0
  USE_REC_CFG 0
  RECMODE 1
  SMPTESYNC 0 30 100 40 1000 300 0 0 0 0 0
  LOOP 0
  LOOPGRAN 0
  RECORD_PATH "" ""
  <RECORD_CFG
    ZXZhdw==
  >
  <APPLYFX_CFG
  >
  RENDER_FILE ""
  RENDER_PATTERN ""
  RENDER_FMT 0 2 0
  RENDER_1X 0
  RENDER_RANGE 1 0 0 18 1000
  RENDER_RESAMPLE 3 0 1
  RENDER_ADDTOPROJ 0
  RENDER_STEMS 0
  RENDER_DITHER 0
  TIMELOCKMODE 1
  TEMPOENVLOCKMODE 1
  ITEMMIX 1
  DEFPITCHMODE 589824 0
  TAKELANE 1
  SAMPLERATE 48000 0 0
  <RENDER_CFG2
  >
  LOCK 1
  <METRONOME 6 2
    VOL 0.25 0.125
    FREQ 800 1600 1
    BEATLEN 4
    SAMPLES "" ""
    PATTERN 2863311530 2863311530
    MULT 1
  >
  MASTER_NCH 2
  MASTER_VOLUME 1
  MASTER_FX 1
  MASTER_SEL 0
  <TEMPOENVEX
    ACT 0 -1
    VIS 1 0 1
    LANEHEIGHT 0 0
    ARM 0
    DEFSHAPE 0 -1 -1
    PT 0 100 0
  >
  <PROJBAY
  >
    MARKER 1 0.000000 "Intro" 1 0 1 B {091F0CEB-5919-4142-8EE5-BB8F31CB9553} 0
  MARKER 2 19.200000 "Verse 1" 1 0 1 B {601D59C2-8248-4C8E-AF19-80684247A337} 0
  MARKER 3 57.600000 "Chorus 1" 1 0 1 B {88126A10-F278-4A77-9149-24AD4DBDA1C6} 0
  MARKER 4 96.000000 "Verse 2" 1 0 1 B {840C9164-1E0B-4DF8-8C6D-2CC1369D5F70} 0
  MARKER 5 134.400000 "Bridge" 1 0 1 B {17958167-6051-4ABB-9C6D-FFA853FA8C87} 0
  MARKER 6 148.800000 "Chorus 2" 1 0 1 B {F51A0B41-019E-48D8-A253-F5C312FE81C7} 0
  MARKER 7 187.200000 "Outro" 1 0 1 B {4F950C76-B5F5-4F3F-A926-FED6CC78A4A6} 0
  <TRACK {E594D3AD-D79C-4007-8BC8-B8512F235F76}
    NAME "Chords"
    PEAKCOL 33522258
    BEAT -1
    AUTOMODE 0
    VOLPAN 1 0 0.6 -1
    MUTESOLO 0 0 0
    IPHASE 0
    PLAYOFFS 0 1
    ISBUS 0 0
    BUSCOMP 0 0 0 0 0
    SHOWINMIX 1 0.6667 0.5 1 0.5 0 0 0
    FREEMODE 0
    SEL 0
    REC 0 0 1 0 0 0 0
    VU 2
    TRACKHEIGHT 0 0 0 0 0 0
    INQ 0 0 0 0.5 100 0 0 100
    NCHAN 2
    FX 1
    TRACKID {3394BD16-36C5-4E7B-BC29-21B8BAC00834}
    PERF 0
    MIDIOUT -1
    MAINSEND 1 0
    <ITEM
      POSITION 0.000000
      SNAPOFFS 0
      LENGTH 19.200000
      LOOP 0
      ALLTAKES 0
      FADEIN 1 0 0 1 0 0 0
      FADEOUT 1 0 0 1 0 0 0
      MUTE 0 0
      SEL 0
      IGUID {A8756D03-660D-43B7-8292-CA1F1133501E}
      IID 1
      NAME "Intro"
      VOLPAN 1 0 1 -1
      SOFFS 0
      PLAYRATE 1 1 0 -1 0 0.0025
      CHANMODE 0
      GUID {5549749C-1E03-4692-B334-5C714B898D08}
      <SOURCE MIDI
        HASDATA 1 960 QN
        CCINTERP 32
        POOLEDEVTS {387C46C3-5F56-46E8-96FF-DF3FE5617D17}
        LAST_REC_LAUNCHQUANT 0
      E 0 90 35 41
      E 0 90 38 41
      E 0 90 3c 41
      E 1872 80 35 00
      E 0 80 38 00
      E 0 80 3c 00
      E 48 90 30 41
      E 0 90 33 41
      E 0 90 37 41
      E 1872 80 30 00
      E 0 80 33 00
      E 0 80 37 00
      E 48 90 2e 41
      E 0 90 31 41
      E 0 90 35 41
      E 1872 80 2e 00
      E 0 80 31 00
      E 0 80 35 00
      E 48 90 33 41
      E 0 90 37 41
      E 0 90 3a 41
      E 1872 80 33 00
      E 0 80 37 00
      E 0 80 3a 00
      E 48 90 35 41
      E 0 90 38 41
      E 0 90 3c 41
      E 1872 80 35 00
      E 0 80 38 00
      E 0 80 3c 00
      E 48 90 30 41
      E 0 90 33 41
      E 0 90 37 41
      E 1872 80 30 00
      E 0 80 33 00
      E 0 80 37 00
      E 48 90 2e 41
      E 0 90 31 41
      E 0 90 35 41
      E 1872 80 2e 00
      E 0 80 31 00
      E 0 80 35 00
      E 48 90 33 41
      E 0 90 37 41
      E 0 90 3a 41
      E 1872 80 33 00
      E 0 80 37 00
      E 0 80 3a 00
      E 48 90 35 41
      E 0 90 38 41
      E 0 90 3c 41
      E 1872 80 35 00
      E 0 80 38 00
      E 0 80 3c 00
      E 48 90 30 41
      E 0 90 33 41
      E 0 90 37 41
      E 1872 80 30 00
      E 0 80 33 00
      E 0 80 37 00
      E 48 90 2e 41
      E 0 90 31 41
      E 0 90 35 41
      E 1872 80 2e 00
      E 0 80 31 00
      E 0 80 35 00
      E 48 90 33 41
      E 0 90 37 41
      E 0 90 3a 41
      E 1872 80 33 00
      E 0 80 37 00
      E 0 80 3a 00
      E 48 90 35 41
      E 0 90 38 41
      E 0 90 3c 41
      E 1872 80 35 00
      E 0 80 38 00
      E 0 80 3c 00
      E 48 90 30 41
      E 0 90 33 41
      E 0 90 37 41
      E 1872 80 30 00
      E 0 80 33 00
      E 0 80 37 00
      E 48 90 2e 41
      E 0 90 31 41
      E 0 90 35 41
      E 1872 80 2e 00
      E 0 80 31 00
      E 0 80 35 00
      E 48 90 33 41
      E 0 90 37 41
      E 0 90 3a 41
      E 1872 80 33 00
      E 0 80 37 00
      E 0 80 3a 00
      E 48 b0 7b 00
        CCEVT -1 0 0
      >
    >
    <ITEM
      POSITION 19.200000
      SNAPOFFS 0
      LENGTH 38.400000
      LOOP 0
      ALLTAKES 0
      FADEIN 1 0 0 1 0 0 0
      FADEOUT 1 0 0 1 0 0 0
      MUTE 0 0
      SEL 0
      IGUID {6F4770B7-6283-4056-B9DC-97B074451F83}
      IID 1
      NAME "Verse 1"
      VOLPAN 1 0 1 -1
      SOFFS 0
      PLAYRATE 1 1 0 -1 0 0.0025
      CHANMODE 0
      GUID {ACDA8F1B-16A4-425D-8280-C6F944B978B2}
      <SOURCE MIDI
        HASDATA 1 960 QN
        CCINTERP 32
        POOLEDEVTS {D0953EE8-D1DD-4257-AFE3-BFF483B3CF15}
        LAST_REC_LAUNCHQUANT 0
      E 0 90 35 4e
      E 0 90 38 4e
      E 0 90 3c 4e
      E 3792 80 35 00
      E 0 80 38 00
      E 0 80 3c 00
      E 48 90 31 4e
      E 0 90 35 4e
      E 0 90 38 4e
      E 3792 80 31 00
      E 0 80 35 00
      E 0 80 38 00
      E 48 90 38 4e
      E 0 90 3c 4e
      E 0 90 3f 4e
      E 3792 80 38 00
      E 0 80 3c 00
      E 0 80 3f 00
      E 48 90 33 4e
      E 0 90 37 4e
      E 0 90 3a 4e
      E 3792 80 33 00
      E 0 80 37 00
      E 0 80 3a 00
      E 48 90 35 4e
      E 0 90 38 4e
      E 0 90 3c 4e
      E 3792 80 35 00
      E 0 80 38 00
      E 0 80 3c 00
      E 48 90 31 4e
      E 0 90 35 4e
      E 0 90 38 4e
      E 3792 80 31 00
      E 0 80 35 00
      E 0 80 38 00
      E 48 90 38 4e
      E 0 90 3c 4e
      E 0 90 3f 4e
      E 3792 80 38 00
      E 0 80 3c 00
      E 0 80 3f 00
      E 48 90 33 4e
      E 0 90 37 4e
      E 0 90 3a 4e
      E 3792 80 33 00
      E 0 80 37 00
      E 0 80 3a 00
      E 48 90 35 4e
      E 0 90 38 4e
      E 0 90 3c 4e
      E 3792 80 35 00
      E 0 80 38 00
      E 0 80 3c 00
      E 48 90 31 4e
      E 0 90 35 4e
      E 0 90 38 4e
      E 3792 80 31 00
      E 0 80 35 00
      E 0 80 38 00
      E 48 90 38 4e
      E 0 90 3c 4e
      E 0 90 3f 4e
      E 3792 80 38 00
      E 0 80 3c 00
      E 0 80 3f 00
      E 48 90 33 4e
      E 0 90 37 4e
      E 0 90 3a 4e
      E 3792 80 33 00
      E 0 80 37 00
      E 0 80 3a 00
      E 48 90 35 4e
      E 0 90 38 4e
      E 0 90 3c 4e
      E 3792 80 35 00
      E 0 80 38 00
      E 0 80 3c 00
      E 48 90 31 4e
      E 0 90 35 4e
      E 0 90 38 4e
      E 3792 80 31 00
      E 0 80 35 00
      E 0 80 38 00
      E 48 90 38 4e
      E 0 90 3c 4e
      E 0 90 3f 4e
      E 3792 80 38 00
      E 0 80 3c 00
      E 0 80 3f 00
      E 48 90 33 4e
      E 0 90 37 4e
      E 0 90 3a 4e
      E 3792 80 33 00
      E 0 80 37 00
      E 0 80 3a 00
      E 48 b0 7b 00
        CCEVT -1 0 0
      >
    >
    <ITEM
      POSITION 57.600000
      SNAPOFFS 0
      LENGTH 38.400000
      LOOP 0
      ALLTAKES 0
      FADEIN 1 0 0 1 0 0 0
      FADEOUT 1 0 0 1 0 0 0
      MUTE 0 0
      SEL 0
      IGUID {A967829B-6826-4E88-AA64-8D7625B06625}
      IID 1
      NAME "Chorus 1"
      VOLPAN 1 0 1 -1
      SOFFS 0
      PLAYRATE 1 1 0 -1 0 0.0025
      CHANMODE 0
      GUID {71E1E4DB-51A3-4922-B171-77BE7F7C669C}
      <SOURCE MIDI
        HASDATA 1 960 QN
        CCINTERP 32
        POOLEDEVTS {30DE75CD-2BC7-41DE-91A0-D6C78E4445BD}
        LAST_REC_LAUNCHQUANT 0
      E 0 90 2e 5c
      E 0 90 31 5c
      E 0 90 35 5c
      E 3792 80 2e 00
      E 0 80 31 00
      E 0 80 35 00
      E 48 90 33 5c
      E 0 90 37 5c
      E 0 90 3a 5c
      E 3792 80 33 00
      E 0 80 37 00
      E 0 80 3a 00
      E 48 90 38 5c
      E 0 90 3c 5c
      E 0 90 3f 5c
      E 3792 80 38 00
      E 0 80 3c 00
      E 0 80 3f 00
      E 48 90 31 5c
      E 0 90 35 5c
      E 0 90 38 5c
      E 3792 80 31 00
      E 0 80 35 00
      E 0 80 38 00
      E 48 90 2e 5c
      E 0 90 31 5c
      E 0 90 35 5c
      E 3792 80 2e 00
      E 0 80 31 00
      E 0 80 35 00
      E 48 90 33 5c
      E 0 90 37 5c
      E 0 90 3a 5c
      E 3792 80 33 00
      E 0 80 37 00
      E 0 80 3a 00
      E 48 90 38 5c
      E 0 90 3c 5c
      E 0 90 3f 5c
      E 3792 80 38 00
      E 0 80 3c 00
      E 0 80 3f 00
      E 48 90 31 5c
      E 0 90 35 5c
      E 0 90 38 5c
      E 3792 80 31 00
      E 0 80 35 00
      E 0 80 38 00
      E 48 90 2e 5c
      E 0 90 31 5c
      E 0 90 35 5c
      E 3792 80 2e 00
      E 0 80 31 00
      E 0 80 35 00
      E 48 90 33 5c
      E 0 90 37 5c
      E 0 90 3a 5c
      E 3792 80 33 00
      E 0 80 37 00
      E 0 80 3a 00
      E 48 90 38 5c
      E 0 90 3c 5c
      E 0 90 3f 5c
      E 3792 80 38 00
      E 0 80 3c 00
      E 0 80 3f 00
      E 48 90 31 5c
      E 0 90 35 5c
      E 0 90 38 5c
      E 3792 80 31 00
      E 0 80 35 00
      E 0 80 38 00
      E 48 90 2e 5c
      E 0 90 31 5c
      E 0 90 35 5c
      E 3792 80 2e 00
      E 0 80 31 00
      E 0 80 35 00
      E 48 90 33 5c
      E 0 90 37 5c
      E 0 90 3a 5c
      E 3792 80 33 00
      E 0 80 37 00
      E 0 80 3a 00
      E 48 90 38 5c
      E 0 90 3c 5c
      E 0 90 3f 5c
      E 3792 80 38 00
      E 0 80 3c 00
      E 0 80 3f 00
      E 48 90 31 5c
      E 0 90 35 5c
      E 0 90 38 5c
      E 3792 80 31 00
      E 0 80 35 00
      E 0 80 38 00
      E 48 b0 7b 00
        CCEVT -1 0 0
      >
    >
    <ITEM
      POSITION 96.000000
      SNAPOFFS 0
      LENGTH 38.400000
      LOOP 0
      ALLTAKES 0
      FADEIN 1 0 0 1 0 0 0
      FADEOUT 1 0 0 1 0 0 0
      MUTE 0 0
      SEL 0
      IGUID {A0CA65BD-F4CD-4588-BFFA-80389ECC8CC1}
      IID 1
      NAME "Verse 2"
      VOLPAN 1 0 1 -1
      SOFFS 0
      PLAYRATE 1 1 0 -1 0 0.0025
      CHANMODE 0
      GUID {A07683CD-A930-43AC-BA61-FCF77CBBB049}
      <SOURCE MIDI
        HASDATA 1 960 QN
        CCINTERP 32
        POOLEDEVTS {3FEC0CDF-4622-432B-B33A-A652B1DAD0B7}
        LAST_REC_LAUNCHQUANT 0
      E 0 90 35 4e
      E 0 90 38 4e
      E 0 90 3c 4e
      E 3792 80 35 00
      E 0 80 38 00
      E 0 80 3c 00
      E 48 90 31 4e
      E 0 90 35 4e
      E 0 90 38 4e
      E 3792 80 31 00
      E 0 80 35 00
      E 0 80 38 00
      E 48 90 38 4e
      E 0 90 3c 4e
      E 0 90 3f 4e
      E 3792 80 38 00
      E 0 80 3c 00
      E 0 80 3f 00
      E 48 90 33 4e
      E 0 90 37 4e
      E 0 90 3a 4e
      E 3792 80 33 00
      E 0 80 37 00
      E 0 80 3a 00
      E 48 90 35 4e
      E 0 90 38 4e
      E 0 90 3c 4e
      E 3792 80 35 00
      E 0 80 38 00
      E 0 80 3c 00
      E 48 90 31 4e
      E 0 90 35 4e
      E 0 90 38 4e
      E 3792 80 31 00
      E 0 80 35 00
      E 0 80 38 00
      E 48 90 38 4e
      E 0 90 3c 4e
      E 0 90 3f 4e
      E 3792 80 38 00
      E 0 80 3c 00
      E 0 80 3f 00
      E 48 90 33 4e
      E 0 90 37 4e
      E 0 90 3a 4e
      E 3792 80 33 00
      E 0 80 37 00
      E 0 80 3a 00
      E 48 90 35 4e
      E 0 90 38 4e
      E 0 90 3c 4e
      E 3792 80 35 00
      E 0 80 38 00
      E 0 80 3c 00
      E 48 90 31 4e
      E 0 90 35 4e
      E 0 90 38 4e
      E 3792 80 31 00
      E 0 80 35 00
      E 0 80 38 00
      E 48 90 38 4e
      E 0 90 3c 4e
      E 0 90 3f 4e
      E 3792 80 38 00
      E 0 80 3c 00
      E 0 80 3f 00
      E 48 90 33 4e
      E 0 90 37 4e
      E 0 90 3a 4e
      E 3792 80 33 00
      E 0 80 37 00
      E 0 80 3a 00
      E 48 90 35 4e
      E 0 90 38 4e
      E 0 90 3c 4e
      E 3792 80 35 00
      E 0 80 38 00
      E 0 80 3c 00
      E 48 90 31 4e
      E 0 90 35 4e
      E 0 90 38 4e
      E 3792 80 31 00
      E 0 80 35 00
      E 0 80 38 00
      E 48 90 38 4e
      E 0 90 3c 4e
      E 0 90 3f 4e
      E 3792 80 38 00
      E 0 80 3c 00
      E 0 80 3f 00
      E 48 90 33 4e
      E 0 90 37 4e
      E 0 90 3a 4e
      E 3792 80 33 00
      E 0 80 37 00
      E 0 80 3a 00
      E 48 b0 7b 00
        CCEVT -1 0 0
      >
    >
    <ITEM
      POSITION 134.400000
      SNAPOFFS 0
      LENGTH 14.400000
      LOOP 0
      ALLTAKES 0
      FADEIN 1 0 0 1 0 0 0
      FADEOUT 1 0 0 1 0 0 0
      MUTE 0 0
      SEL 0
      IGUID {0732B42C-7F54-47E8-A394-252079BE23FF}
      IID 1
      NAME "Bridge"
      VOLPAN 1 0 1 -1
      SOFFS 0
      PLAYRATE 1 1 0 -1 0 0.0025
      CHANMODE 0
      GUID {6EC08059-BFCE-47D5-BE8D-7ED049287D72}
      <SOURCE MIDI
        HASDATA 1 960 QN
        CCINTERP 32
        POOLEDEVTS {B1577D53-B8E1-49CA-947A-E572DC4C6D8A}
        LAST_REC_LAUNCHQUANT 0
      E 0 90 30 46
      E 0 90 33 46
      E 0 90 37 46
      E 2832 80 30 00
      E 0 80 33 00
      E 0 80 37 00
      E 48 90 35 46
      E 0 90 38 46
      E 0 90 3c 46
      E 2832 80 35 00
      E 0 80 38 00
      E 0 80 3c 00
      E 48 90 2e 46
      E 0 90 31 46
      E 0 90 35 46
      E 2832 80 2e 00
      E 0 80 31 00
      E 0 80 35 00
      E 48 90 33 46
      E 0 90 37 46
      E 0 90 3a 46
      E 2832 80 33 00
      E 0 80 37 00
      E 0 80 3a 00
      E 48 90 30 46
      E 0 90 33 46
      E 0 90 37 46
      E 2832 80 30 00
      E 0 80 33 00
      E 0 80 37 00
      E 48 90 35 46
      E 0 90 38 46
      E 0 90 3c 46
      E 2832 80 35 00
      E 0 80 38 00
      E 0 80 3c 00
      E 48 90 2e 46
      E 0 90 31 46
      E 0 90 35 46
      E 2832 80 2e 00
      E 0 80 31 00
      E 0 80 35 00
      E 48 90 33 46
      E 0 90 37 46
      E 0 90 3a 46
      E 2832 80 33 00
      E 0 80 37 00
      E 0 80 3a 00
      E 48 b0 7b 00
        CCEVT -1 0 0
      >
    >
    <ITEM
      POSITION 148.800000
      SNAPOFFS 0
      LENGTH 38.400000
      LOOP 0
      ALLTAKES 0
      FADEIN 1 0 0 1 0 0 0
      FADEOUT 1 0 0 1 0 0 0
      MUTE 0 0
      SEL 0
      IGUID {EC5FBC69-59F1-47E4-9CA4-1FE3044BBEE5}
      IID 1
      NAME "Chorus 2"
      VOLPAN 1 0 1 -1
      SOFFS 0
      PLAYRATE 1 1 0 -1 0 0.0025
      CHANMODE 0
      GUID {EFCEE82C-8884-4769-92B2-DA6E083DA3AF}
      <SOURCE MIDI
        HASDATA 1 960 QN
        CCINTERP 32
        POOLEDEVTS {21A65D72-DF68-46D5-9924-09825D6DADA0}
        LAST_REC_LAUNCHQUANT 0
      E 0 90 2e 5f
      E 0 90 31 5f
      E 0 90 35 5f
      E 3792 80 2e 00
      E 0 80 31 00
      E 0 80 35 00
      E 48 90 33 5f
      E 0 90 37 5f
      E 0 90 3a 5f
      E 3792 80 33 00
      E 0 80 37 00
      E 0 80 3a 00
      E 48 90 38 5f
      E 0 90 3c 5f
      E 0 90 3f 5f
      E 3792 80 38 00
      E 0 80 3c 00
      E 0 80 3f 00
      E 48 90 31 5f
      E 0 90 35 5f
      E 0 90 38 5f
      E 3792 80 31 00
      E 0 80 35 00
      E 0 80 38 00
      E 48 90 2e 5f
      E 0 90 31 5f
      E 0 90 35 5f
      E 3792 80 2e 00
      E 0 80 31 00
      E 0 80 35 00
      E 48 90 33 5f
      E 0 90 37 5f
      E 0 90 3a 5f
      E 3792 80 33 00
      E 0 80 37 00
      E 0 80 3a 00
      E 48 90 38 5f
      E 0 90 3c 5f
      E 0 90 3f 5f
      E 3792 80 38 00
      E 0 80 3c 00
      E 0 80 3f 00
      E 48 90 31 5f
      E 0 90 35 5f
      E 0 90 38 5f
      E 3792 80 31 00
      E 0 80 35 00
      E 0 80 38 00
      E 48 90 2e 5f
      E 0 90 31 5f
      E 0 90 35 5f
      E 3792 80 2e 00
      E 0 80 31 00
      E 0 80 35 00
      E 48 90 33 5f
      E 0 90 37 5f
      E 0 90 3a 5f
      E 3792 80 33 00
      E 0 80 37 00
      E 0 80 3a 00
      E 48 90 38 5f
      E 0 90 3c 5f
      E 0 90 3f 5f
      E 3792 80 38 00
      E 0 80 3c 00
      E 0 80 3f 00
      E 48 90 31 5f
      E 0 90 35 5f
      E 0 90 38 5f
      E 3792 80 31 00
      E 0 80 35 00
      E 0 80 38 00
      E 48 90 2e 5f
      E 0 90 31 5f
      E 0 90 35 5f
      E 3792 80 2e 00
      E 0 80 31 00
      E 0 80 35 00
      E 48 90 33 5f
      E 0 90 37 5f
      E 0 90 3a 5f
      E 3792 80 33 00
      E 0 80 37 00
      E 0 80 3a 00
      E 48 90 38 5f
      E 0 90 3c 5f
      E 0 90 3f 5f
      E 3792 80 38 00
      E 0 80 3c 00
      E 0 80 3f 00
      E 48 90 31 5f
      E 0 90 35 5f
      E 0 90 38 5f
      E 3792 80 31 00
      E 0 80 35 00
      E 0 80 38 00
      E 48 b0 7b 00
        CCEVT -1 0 0
      >
    >
    <ITEM
      POSITION 187.200000
      SNAPOFFS 0
      LENGTH 19.200000
      LOOP 0
      ALLTAKES 0
      FADEIN 1 0 0 1 0 0 0
      FADEOUT 1 0 0 1 0 0 0
      MUTE 0 0
      SEL 0
      IGUID {58BD5608-8B35-444B-9AEF-750878CFDDFA}
      IID 1
      NAME "Outro"
      VOLPAN 1 0 1 -1
      SOFFS 0
      PLAYRATE 1 1 0 -1 0 0.0025
      CHANMODE 0
      GUID {CF242AB1-397D-4FD7-B742-C322B2482648}
      <SOURCE MIDI
        HASDATA 1 960 QN
        CCINTERP 32
        POOLEDEVTS {6786F997-5B42-42A1-8D3A-C02F7D5C9E3E}
        LAST_REC_LAUNCHQUANT 0
      E 0 90 35 41
      E 0 90 38 41
      E 0 90 3c 41
      E 1872 80 35 00
      E 0 80 38 00
      E 0 80 3c 00
      E 48 90 31 41
      E 0 90 35 41
      E 0 90 38 41
      E 1872 80 31 00
      E 0 80 35 00
      E 0 80 38 00
      E 48 90 38 41
      E 0 90 3c 41
      E 0 90 3f 41
      E 1872 80 38 00
      E 0 80 3c 00
      E 0 80 3f 00
      E 48 90 33 41
      E 0 90 37 41
      E 0 90 3a 41
      E 1872 80 33 00
      E 0 80 37 00
      E 0 80 3a 00
      E 48 90 35 41
      E 0 90 38 41
      E 0 90 3c 41
      E 1872 80 35 00
      E 0 80 38 00
      E 0 80 3c 00
      E 48 90 31 41
      E 0 90 35 41
      E 0 90 38 41
      E 1872 80 31 00
      E 0 80 35 00
      E 0 80 38 00
      E 48 90 38 41
      E 0 90 3c 41
      E 0 90 3f 41
      E 1872 80 38 00
      E 0 80 3c 00
      E 0 80 3f 00
      E 48 90 33 41
      E 0 90 37 41
      E 0 90 3a 41
      E 1872 80 33 00
      E 0 80 37 00
      E 0 80 3a 00
      E 48 90 35 41
      E 0 90 38 41
      E 0 90 3c 41
      E 1872 80 35 00
      E 0 80 38 00
      E 0 80 3c 00
      E 48 90 31 41
      E 0 90 35 41
      E 0 90 38 41
      E 1872 80 31 00
      E 0 80 35 00
      E 0 80 38 00
      E 48 90 38 41
      E 0 90 3c 41
      E 0 90 3f 41
      E 1872 80 38 00
      E 0 80 3c 00
      E 0 80 3f 00
      E 48 90 33 41
      E 0 90 37 41
      E 0 90 3a 41
      E 1872 80 33 00
      E 0 80 37 00
      E 0 80 3a 00
      E 48 90 35 41
      E 0 90 38 41
      E 0 90 3c 41
      E 1872 80 35 00
      E 0 80 38 00
      E 0 80 3c 00
      E 48 90 31 41
      E 0 90 35 41
      E 0 90 38 41
      E 1872 80 31 00
      E 0 80 35 00
      E 0 80 38 00
      E 48 90 38 41
      E 0 90 3c 41
      E 0 90 3f 41
      E 1872 80 38 00
      E 0 80 3c 00
      E 0 80 3f 00
      E 48 90 33 41
      E 0 90 37 41
      E 0 90 3a 41
      E 1872 80 33 00
      E 0 80 37 00
      E 0 80 3a 00
      E 48 b0 7b 00
        CCEVT -1 0 0
      >
    >

  >
  <TRACK {307BF006-0AB1-47B8-92C9-5F61FB701F9F}
    NAME "Drums (Kick+Snare)"
    PEAKCOL 22045951
    BEAT -1
    AUTOMODE 0
    VOLPAN 1 0 0.6 -1
    MUTESOLO 0 0 0
    IPHASE 0
    PLAYOFFS 0 1
    ISBUS 0 0
    BUSCOMP 0 0 0 0 0
    SHOWINMIX 1 0.6667 0.5 1 0.5 0 0 0
    FREEMODE 0
    SEL 0
    REC 0 0 1 0 0 0 0
    VU 2
    TRACKHEIGHT 0 0 0 0 0 0
    INQ 0 0 0 0.5 100 0 0 100
    NCHAN 2
    FX 1
    TRACKID {436DB96D-FA16-4DCF-B75A-181F17123B58}
    PERF 0
    MIDIOUT -1
    MAINSEND 1 0
    <ITEM
      POSITION 0.000000
      SNAPOFFS 0
      LENGTH 19.200000
      LOOP 0
      ALLTAKES 0
      FADEIN 1 0 0 1 0 0 0
      FADEOUT 1 0 0 1 0 0 0
      MUTE 0 0
      SEL 0
      IGUID {C7C55DF4-0559-46EC-ADEA-CE5CE871A545}
      IID 1
      NAME "Intro"
      VOLPAN 1 0 1 -1
      SOFFS 0
      PLAYRATE 1 1 0 -1 0 0.0025
      CHANMODE 0
      GUID {BF8B253A-2E67-4E35-81B2-89C4C1ED963C}
      <SOURCE MIDI
        HASDATA 1 960 QN
        CCINTERP 32
        POOLEDEVTS {FC59C216-83E7-4BF8-AC3D-FD8EAC842E95}
        LAST_REC_LAUNCHQUANT 0
      E 0 90 24 64
      E 336 80 24 00
      E 624 90 26 5a
      E 336 80 26 00
      E 624 90 24 5f
      E 336 80 24 00
      E 624 90 26 5a
      E 336 80 26 00
      E 624 90 24 64
      E 336 80 24 00
      E 624 90 26 5a
      E 336 80 26 00
      E 624 90 24 5f
      E 336 80 24 00
      E 624 90 26 5a
      E 336 80 26 00
      E 624 90 24 64
      E 336 80 24 00
      E 624 90 26 5a
      E 336 80 26 00
      E 624 90 24 5f
      E 336 80 24 00
      E 624 90 26 5a
      E 336 80 26 00
      E 624 90 24 64
      E 336 80 24 00
      E 624 90 26 5a
      E 336 80 26 00
      E 624 90 24 5f
      E 336 80 24 00
      E 624 90 26 5a
      E 336 80 26 00
      E 624 90 24 64
      E 336 80 24 00
      E 624 90 26 5a
      E 336 80 26 00
      E 624 90 24 5f
      E 336 80 24 00
      E 624 90 26 5a
      E 336 80 26 00
      E 624 90 24 64
      E 336 80 24 00
      E 624 90 26 5a
      E 336 80 26 00
      E 624 90 24 5f
      E 336 80 24 00
      E 624 90 26 5a
      E 336 80 26 00
      E 624 90 24 64
      E 336 80 24 00
      E 624 90 26 5a
      E 336 80 26 00
      E 624 90 24 5f
      E 336 80 24 00
      E 624 90 26 5a
      E 336 80 26 00
      E 624 90 24 64
      E 336 80 24 00
      E 624 90 26 5a
      E 336 80 26 00
      E 624 90 24 5f
      E 336 80 24 00
      E 624 90 26 5a
      E 336 80 26 00
      E 624 b0 7b 00
        CCEVT -1 0 0
      >
    >
    <ITEM
      POSITION 19.200000
      SNAPOFFS 0
      LENGTH 38.400000
      LOOP 0
      ALLTAKES 0
      FADEIN 1 0 0 1 0 0 0
      FADEOUT 1 0 0 1 0 0 0
      MUTE 0 0
      SEL 0
      IGUID {A74F502F-642D-4328-A0B9-4EEF8CADA988}
      IID 1
      NAME "Verse 1"
      VOLPAN 1 0 1 -1
      SOFFS 0
      PLAYRATE 1 1 0 -1 0 0.0025
      CHANMODE 0
      GUID {1A2DC889-78CA-4235-A789-A560CA02B9AD}
      <SOURCE MIDI
        HASDATA 1 960 QN
        CCINTERP 32
        POOLEDEVTS {A4391CC3-FBE1-4F20-9542-7E296695BF71}
        LAST_REC_LAUNCHQUANT 0
      E 0 90 24 64
      E 336 80 24 00
      E 624 90 26 5a
      E 336 80 26 00
      E 624 90 24 5f
      E 336 80 24 00
      E 624 90 26 5a
      E 336 80 26 00
      E 624 90 24 64
      E 336 80 24 00
      E 624 90 26 5a
      E 336 80 26 00
      E 624 90 24 5f
      E 336 80 24 00
      E 624 90 26 5a
      E 336 80 26 00
      E 624 90 24 64
      E 336 80 24 00
      E 624 90 26 5a
      E 336 80 26 00
      E 624 90 24 5f
      E 336 80 24 00
      E 624 90 26 5a
      E 336 80 26 00
      E 624 90 24 64
      E 336 80 24 00
      E 624 90 26 5a
      E 336 80 26 00
      E 624 90 24 5f
      E 336 80 24 00
      E 624 90 26 5a
      E 336 80 26 00
      E 624 90 24 64
      E 336 80 24 00
      E 624 90 26 5a
      E 336 80 26 00
      E 624 90 24 5f
      E 336 80 24 00
      E 624 90 26 5a
      E 336 80 26 00
      E 624 90 24 64
      E 336 80 24 00
      E 624 90 26 5a
      E 336 80 26 00
      E 624 90 24 5f
      E 336 80 24 00
      E 624 90 26 5a
      E 336 80 26 00
      E 624 90 24 64
      E 336 80 24 00
      E 624 90 26 5a
      E 336 80 26 00
      E 624 90 24 5f
      E 336 80 24 00
      E 624 90 26 5a
      E 336 80 26 00
      E 624 90 24 64
      E 336 80 24 00
      E 624 90 26 5a
      E 336 80 26 00
      E 624 90 24 5f
      E 336 80 24 00
      E 624 90 26 5a
      E 336 80 26 00
      E 624 90 24 64
      E 336 80 24 00
      E 624 90 26 5a
      E 336 80 26 00
      E 624 90 24 5f
      E 336 80 24 00
      E 624 90 26 5a
      E 336 80 26 00
      E 624 90 24 64
      E 336 80 24 00
      E 624 90 26 5a
      E 336 80 26 00
      E 624 90 24 5f
      E 336 80 24 00
      E 624 90 26 5a
      E 336 80 26 00
      E 624 90 24 64
      E 336 80 24 00
      E 624 90 26 5a
      E 336 80 26 00
      E 624 90 24 5f
      E 336 80 24 00
      E 624 90 26 5a
      E 336 80 26 00
      E 624 90 24 64
      E 336 80 24 00
      E 624 90 26 5a
      E 336 80 26 00
      E 624 90 24 5f
      E 336 80 24 00
      E 624 90 26 5a
      E 336 80 26 00
      E 624 90 24 64
      E 336 80 24 00
      E 624 90 26 5a
      E 336 80 26 00
      E 624 90 24 5f
      E 336 80 24 00
      E 624 90 26 5a
      E 336 80 26 00
      E 624 90 24 64
      E 336 80 24 00
      E 624 90 26 5a
      E 336 80 26 00
      E 624 90 24 5f
      E 336 80 24 00
      E 624 90 26 5a
      E 336 80 26 00
      E 624 90 24 64
      E 336 80 24 00
      E 624 90 26 5a
      E 336 80 26 00
      E 624 90 24 5f
      E 336 80 24 00
      E 624 90 26 5a
      E 336 80 26 00
      E 624 90 24 64
      E 336 80 24 00
      E 624 90 26 5a
      E 336 80 26 00
      E 624 90 24 5f
      E 336 80 24 00
      E 624 90 26 5a
      E 336 80 26 00
      E 624 b0 7b 00
        CCEVT -1 0 0
      >
    >
    <ITEM
      POSITION 57.600000
      SNAPOFFS 0
      LENGTH 38.400000
      LOOP 0
      ALLTAKES 0
      FADEIN 1 0 0 1 0 0 0
      FADEOUT 1 0 0 1 0 0 0
      MUTE 0 0
      SEL 0
      IGUID {6B402181-0C61-4288-9C51-A6E0BB8292DF}
      IID 1
      NAME "Chorus 1"
      VOLPAN 1 0 1 -1
      SOFFS 0
      PLAYRATE 1 1 0 -1 0 0.0025
      CHANMODE 0
      GUID {B607AA95-CB7B-43EF-ACD7-867D0C9504C6}
      <SOURCE MIDI
        HASDATA 1 960 QN
        CCINTERP 32
        POOLEDEVTS {BF115140-1D4B-43ED-B6BA-F8E22090361D}
        LAST_REC_LAUNCHQUANT 0
      E 0 90 24 69
      E 336 80 24 00
      E 144 90 24 50
      E 336 80 24 00
      E 144 90 26 5f
      E 336 80 26 00
      E 624 90 24 64
      E 336 80 24 00
      E 144 90 24 4b
      E 336 80 24 00
      E 144 90 26 5f
      E 336 80 26 00
      E 624 90 24 69
      E 336 80 24 00
      E 144 90 24 50
      E 336 80 24 00
      E 144 90 26 5f
      E 336 80 26 00
      E 624 90 24 64
      E 336 80 24 00
      E 144 90 24 4b
      E 336 80 24 00
      E 144 90 26 5f
      E 336 80 26 00
      E 624 90 24 69
      E 336 80 24 00
      E 144 90 24 50
      E 336 80 24 00
      E 144 90 26 5f
      E 336 80 26 00
      E 624 90 24 64
      E 336 80 24 00
      E 144 90 24 4b
      E 336 80 24 00
      E 144 90 26 5f
      E 336 80 26 00
      E 624 90 24 69
      E 336 80 24 00
      E 144 90 24 50
      E 336 80 24 00
      E 144 90 26 5f
      E 336 80 26 00
      E 624 90 24 64
      E 336 80 24 00
      E 144 90 24 4b
      E 336 80 24 00
      E 144 90 26 5f
      E 336 80 26 00
      E 624 90 24 69
      E 336 80 24 00
      E 144 90 24 50
      E 336 80 24 00
      E 144 90 26 5f
      E 336 80 26 00
      E 624 90 24 64
      E 336 80 24 00
      E 144 90 24 4b
      E 336 80 24 00
      E 144 90 26 5f
      E 336 80 26 00
      E 624 90 24 69
      E 336 80 24 00
      E 144 90 24 50
      E 336 80 24 00
      E 144 90 26 5f
      E 336 80 26 00
      E 624 90 24 64
      E 336 80 24 00
      E 144 90 24 4b
      E 336 80 24 00
      E 144 90 26 5f
      E 336 80 26 00
      E 624 90 24 69
      E 336 80 24 00
      E 144 90 24 50
      E 336 80 24 00
      E 144 90 26 5f
      E 336 80 26 00
      E 624 90 24 64
      E 336 80 24 00
      E 144 90 24 4b
      E 336 80 24 00
      E 144 90 26 5f
      E 336 80 26 00
      E 624 90 24 69
      E 336 80 24 00
      E 144 90 24 50
      E 336 80 24 00
      E 144 90 26 5f
      E 336 80 26 00
      E 624 90 24 64
      E 336 80 24 00
      E 144 90 24 4b
      E 336 80 24 00
      E 144 90 26 5f
      E 336 80 26 00
      E 624 90 24 69
      E 336 80 24 00
      E 144 90 24 50
      E 336 80 24 00
      E 144 90 26 5f
      E 336 80 26 00
      E 624 90 24 64
      E 336 80 24 00
      E 144 90 24 4b
      E 336 80 24 00
      E 144 90 26 5f
      E 336 80 26 00
      E 624 90 24 69
      E 336 80 24 00
      E 144 90 24 50
      E 336 80 24 00
      E 144 90 26 5f
      E 336 80 26 00
      E 624 90 24 64
      E 336 80 24 00
      E 144 90 24 4b
      E 336 80 24 00
      E 144 90 26 5f
      E 336 80 26 00
      E 624 90 24 69
      E 336 80 24 00
      E 144 90 24 50
      E 336 80 24 00
      E 144 90 26 5f
      E 336 80 26 00
      E 624 90 24 64
      E 336 80 24 00
      E 144 90 24 4b
      E 336 80 24 00
      E 144 90 26 5f
      E 336 80 26 00
      E 624 90 24 69
      E 336 80 24 00
      E 144 90 24 50
      E 336 80 24 00
      E 144 90 26 5f
      E 336 80 26 00
      E 624 90 24 64
      E 336 80 24 00
      E 144 90 24 4b
      E 336 80 24 00
      E 144 90 26 5f
      E 336 80 26 00
      E 624 90 24 69
      E 336 80 24 00
      E 144 90 24 50
      E 336 80 24 00
      E 144 90 26 5f
      E 336 80 26 00
      E 624 90 24 64
      E 336 80 24 00
      E 144 90 24 4b
      E 336 80 24 00
      E 144 90 26 5f
      E 336 80 26 00
      E 624 90 24 69
      E 336 80 24 00
      E 144 90 24 50
      E 336 80 24 00
      E 144 90 26 5f
      E 336 80 26 00
      E 624 90 24 64
      E 336 80 24 00
      E 144 90 24 4b
      E 336 80 24 00
      E 144 90 26 5f
      E 336 80 26 00
      E 624 90 24 69
      E 336 80 24 00
      E 144 90 24 50
      E 336 80 24 00
      E 144 90 26 5f
      E 336 80 26 00
      E 624 90 24 64
      E 336 80 24 00
      E 144 90 24 4b
      E 336 80 24 00
      E 144 90 26 5f
      E 336 80 26 00
      E 624 90 24 69
      E 336 80 24 00
      E 144 90 24 50
      E 336 80 24 00
      E 144 90 26 5f
      E 336 80 26 00
      E 624 90 24 64
      E 336 80 24 00
      E 144 90 24 4b
      E 336 80 24 00
      E 144 90 26 5f
      E 336 80 26 00
      E 624 b0 7b 00
        CCEVT -1 0 0
      >
    >
    <ITEM
      POSITION 96.000000
      SNAPOFFS 0
      LENGTH 38.400000
      LOOP 0
      ALLTAKES 0
      FADEIN 1 0 0 1 0 0 0
      FADEOUT 1 0 0 1 0 0 0
      MUTE 0 0
      SEL 0
      IGUID {DA212FF2-CF19-4F38-B1CC-EEBFEA02E9DE}
      IID 1
      NAME "Verse 2"
      VOLPAN 1 0 1 -1
      SOFFS 0
      PLAYRATE 1 1 0 -1 0 0.0025
      CHANMODE 0
      GUID {E8911D86-0C13-4C06-8FCF-44E8111B36B3}
      <SOURCE MIDI
        HASDATA 1 960 QN
        CCINTERP 32
        POOLEDEVTS {99886A98-32C7-4464-B51A-E24DFE1AF428}
        LAST_REC_LAUNCHQUANT 0
      E 0 90 24 64
      E 336 80 24 00
      E 624 90 26 5a
      E 336 80 26 00
      E 624 90 24 5f
      E 336 80 24 00
      E 624 90 26 5a
      E 336 80 26 00
      E 624 90 24 64
      E 336 80 24 00
      E 624 90 26 5a
      E 336 80 26 00
      E 624 90 24 5f
      E 336 80 24 00
      E 624 90 26 5a
      E 336 80 26 00
      E 624 90 24 64
      E 336 80 24 00
      E 624 90 26 5a
      E 336 80 26 00
      E 624 90 24 5f
      E 336 80 24 00
      E 624 90 26 5a
      E 336 80 26 00
      E 624 90 24 64
      E 336 80 24 00
      E 624 90 26 5a
      E 336 80 26 00
      E 624 90 24 5f
      E 336 80 24 00
      E 624 90 26 5a
      E 336 80 26 00
      E 624 90 24 64
      E 336 80 24 00
      E 624 90 26 5a
      E 336 80 26 00
      E 624 90 24 5f
      E 336 80 24 00
      E 624 90 26 5a
      E 336 80 26 00
      E 624 90 24 64
      E 336 80 24 00
      E 624 90 26 5a
      E 336 80 26 00
      E 624 90 24 5f
      E 336 80 24 00
      E 624 90 26 5a
      E 336 80 26 00
      E 624 90 24 64
      E 336 80 24 00
      E 624 90 26 5a
      E 336 80 26 00
      E 624 90 24 5f
      E 336 80 24 00
      E 624 90 26 5a
      E 336 80 26 00
      E 624 90 24 64
      E 336 80 24 00
      E 624 90 26 5a
      E 336 80 26 00
      E 624 90 24 5f
      E 336 80 24 00
      E 624 90 26 5a
      E 336 80 26 00
      E 624 90 24 64
      E 336 80 24 00
      E 624 90 26 5a
      E 336 80 26 00
      E 624 90 24 5f
      E 336 80 24 00
      E 624 90 26 5a
      E 336 80 26 00
      E 624 90 24 64
      E 336 80 24 00
      E 624 90 26 5a
      E 336 80 26 00
      E 624 90 24 5f
      E 336 80 24 00
      E 624 90 26 5a
      E 336 80 26 00
      E 624 90 24 64
      E 336 80 24 00
      E 624 90 26 5a
      E 336 80 26 00
      E 624 90 24 5f
      E 336 80 24 00
      E 624 90 26 5a
      E 336 80 26 00
      E 624 90 24 64
      E 336 80 24 00
      E 624 90 26 5a
      E 336 80 26 00
      E 624 90 24 5f
      E 336 80 24 00
      E 624 90 26 5a
      E 336 80 26 00
      E 624 90 24 64
      E 336 80 24 00
      E 624 90 26 5a
      E 336 80 26 00
      E 624 90 24 5f
      E 336 80 24 00
      E 624 90 26 5a
      E 336 80 26 00
      E 624 90 24 64
      E 336 80 24 00
      E 624 90 26 5a
      E 336 80 26 00
      E 624 90 24 5f
      E 336 80 24 00
      E 624 90 26 5a
      E 336 80 26 00
      E 624 90 24 64
      E 336 80 24 00
      E 624 90 26 5a
      E 336 80 26 00
      E 624 90 24 5f
      E 336 80 24 00
      E 624 90 26 5a
      E 336 80 26 00
      E 624 90 24 64
      E 336 80 24 00
      E 624 90 26 5a
      E 336 80 26 00
      E 624 90 24 5f
      E 336 80 24 00
      E 624 90 26 5a
      E 336 80 26 00
      E 624 b0 7b 00
        CCEVT -1 0 0
      >
    >
    <ITEM
      POSITION 134.400000
      SNAPOFFS 0
      LENGTH 14.400000
      LOOP 0
      ALLTAKES 0
      FADEIN 1 0 0 1 0 0 0
      FADEOUT 1 0 0 1 0 0 0
      MUTE 0 0
      SEL 0
      IGUID {083ED5C7-6989-4C6B-919E-5D47B0F2C312}
      IID 1
      NAME "Bridge"
      VOLPAN 1 0 1 -1
      SOFFS 0
      PLAYRATE 1 1 0 -1 0 0.0025
      CHANMODE 0
      GUID {B5907EE4-CE2D-4163-B40B-6501246CF6DD}
      <SOURCE MIDI
        HASDATA 1 960 QN
        CCINTERP 32
        POOLEDEVTS {B5CBFA68-39DD-47CF-B558-5B2C92877678}
        LAST_REC_LAUNCHQUANT 0
      E 0 90 24 5f
      E 336 80 24 00
      E 1104 90 26 55
      E 336 80 26 00
      E 1104 90 24 5f
      E 336 80 24 00
      E 1104 90 26 55
      E 336 80 26 00
      E 1104 90 24 5f
      E 336 80 24 00
      E 1104 90 26 55
      E 336 80 26 00
      E 1104 90 24 5f
      E 336 80 24 00
      E 1104 90 26 55
      E 336 80 26 00
      E 1104 90 24 5f
      E 336 80 24 00
      E 1104 90 26 55
      E 336 80 26 00
      E 1104 90 24 5f
      E 336 80 24 00
      E 1104 90 26 55
      E 336 80 26 00
      E 1104 90 24 5f
      E 336 80 24 00
      E 1104 90 26 55
      E 336 80 26 00
      E 1104 90 24 5f
      E 336 80 24 00
      E 1104 90 26 55
      E 336 80 26 00
      E 1104 b0 7b 00
        CCEVT -1 0 0
      >
    >
    <ITEM
      POSITION 148.800000
      SNAPOFFS 0
      LENGTH 38.400000
      LOOP 0
      ALLTAKES 0
      FADEIN 1 0 0 1 0 0 0
      FADEOUT 1 0 0 1 0 0 0
      MUTE 0 0
      SEL 0
      IGUID {AA3DEEBA-F13A-4965-8859-710A79B5E27C}
      IID 1
      NAME "Chorus 2"
      VOLPAN 1 0 1 -1
      SOFFS 0
      PLAYRATE 1 1 0 -1 0 0.0025
      CHANMODE 0
      GUID {E5C82F80-5FC0-4E24-AFC0-19B9FB9F3C55}
      <SOURCE MIDI
        HASDATA 1 960 QN
        CCINTERP 32
        POOLEDEVTS {37589D16-8D0A-4E30-A196-4FCADFDF7D4D}
        LAST_REC_LAUNCHQUANT 0
      E 0 90 24 69
      E 336 80 24 00
      E 144 90 24 50
      E 336 80 24 00
      E 144 90 26 5f
      E 336 80 26 00
      E 624 90 24 64
      E 336 80 24 00
      E 144 90 24 4b
      E 336 80 24 00
      E 144 90 26 5f
      E 336 80 26 00
      E 624 90 24 69
      E 336 80 24 00
      E 144 90 24 50
      E 336 80 24 00
      E 144 90 26 5f
      E 336 80 26 00
      E 624 90 24 64
      E 336 80 24 00
      E 144 90 24 4b
      E 336 80 24 00
      E 144 90 26 5f
      E 336 80 26 00
      E 624 90 24 69
      E 336 80 24 00
      E 144 90 24 50
      E 336 80 24 00
      E 144 90 26 5f
      E 336 80 26 00
      E 624 90 24 64
      E 336 80 24 00
      E 144 90 24 4b
      E 336 80 24 00
      E 144 90 26 5f
      E 336 80 26 00
      E 624 90 24 69
      E 336 80 24 00
      E 144 90 24 50
      E 336 80 24 00
      E 144 90 26 5f
      E 336 80 26 00
      E 624 90 24 64
      E 336 80 24 00
      E 144 90 24 4b
      E 336 80 24 00
      E 144 90 26 5f
      E 336 80 26 00
      E 624 90 24 69
      E 336 80 24 00
      E 144 90 24 50
      E 336 80 24 00
      E 144 90 26 5f
      E 336 80 26 00
      E 624 90 24 64
      E 336 80 24 00
      E 144 90 24 4b
      E 336 80 24 00
      E 144 90 26 5f
      E 336 80 26 00
      E 624 90 24 69
      E 336 80 24 00
      E 144 90 24 50
      E 336 80 24 00
      E 144 90 26 5f
      E 336 80 26 00
      E 624 90 24 64
      E 336 80 24 00
      E 144 90 24 4b
      E 336 80 24 00
      E 144 90 26 5f
      E 336 80 26 00
      E 624 90 24 69
      E 336 80 24 00
      E 144 90 24 50
      E 336 80 24 00
      E 144 90 26 5f
      E 336 80 26 00
      E 624 90 24 64
      E 336 80 24 00
      E 144 90 24 4b
      E 336 80 24 00
      E 144 90 26 5f
      E 336 80 26 00
      E 624 90 24 69
      E 336 80 24 00
      E 144 90 24 50
      E 336 80 24 00
      E 144 90 26 5f
      E 336 80 26 00
      E 624 90 24 64
      E 336 80 24 00
      E 144 90 24 4b
      E 336 80 24 00
      E 144 90 26 5f
      E 336 80 26 00
      E 624 90 24 69
      E 336 80 24 00
      E 144 90 24 50
      E 336 80 24 00
      E 144 90 26 5f
      E 336 80 26 00
      E 624 90 24 64
      E 336 80 24 00
      E 144 90 24 4b
      E 336 80 24 00
      E 144 90 26 5f
      E 336 80 26 00
      E 624 90 24 69
      E 336 80 24 00
      E 144 90 24 50
      E 336 80 24 00
      E 144 90 26 5f
      E 336 80 26 00
      E 624 90 24 64
      E 336 80 24 00
      E 144 90 24 4b
      E 336 80 24 00
      E 144 90 26 5f
      E 336 80 26 00
      E 624 90 24 69
      E 336 80 24 00
      E 144 90 24 50
      E 336 80 24 00
      E 144 90 26 5f
      E 336 80 26 00
      E 624 90 24 64
      E 336 80 24 00
      E 144 90 24 4b
      E 336 80 24 00
      E 144 90 26 5f
      E 336 80 26 00
      E 624 90 24 69
      E 336 80 24 00
      E 144 90 24 50
      E 336 80 24 00
      E 144 90 26 5f
      E 336 80 26 00
      E 624 90 24 64
      E 336 80 24 00
      E 144 90 24 4b
      E 336 80 24 00
      E 144 90 26 5f
      E 336 80 26 00
      E 624 90 24 69
      E 336 80 24 00
      E 144 90 24 50
      E 336 80 24 00
      E 144 90 26 5f
      E 336 80 26 00
      E 624 90 24 64
      E 336 80 24 00
      E 144 90 24 4b
      E 336 80 24 00
      E 144 90 26 5f
      E 336 80 26 00
      E 624 90 24 69
      E 336 80 24 00
      E 144 90 24 50
      E 336 80 24 00
      E 144 90 26 5f
      E 336 80 26 00
      E 624 90 24 64
      E 336 80 24 00
      E 144 90 24 4b
      E 336 80 24 00
      E 144 90 26 5f
      E 336 80 26 00
      E 624 90 24 69
      E 336 80 24 00
      E 144 90 24 50
      E 336 80 24 00
      E 144 90 26 5f
      E 336 80 26 00
      E 624 90 24 64
      E 336 80 24 00
      E 144 90 24 4b
      E 336 80 24 00
      E 144 90 26 5f
      E 336 80 26 00
      E 624 90 24 69
      E 336 80 24 00
      E 144 90 24 50
      E 336 80 24 00
      E 144 90 26 5f
      E 336 80 26 00
      E 624 90 24 64
      E 336 80 24 00
      E 144 90 24 4b
      E 336 80 24 00
      E 144 90 26 5f
      E 336 80 26 00
      E 624 b0 7b 00
        CCEVT -1 0 0
      >
    >
    <ITEM
      POSITION 187.200000
      SNAPOFFS 0
      LENGTH 19.200000
      LOOP 0
      ALLTAKES 0
      FADEIN 1 0 0 1 0 0 0
      FADEOUT 1 0 0 1 0 0 0
      MUTE 0 0
      SEL 0
      IGUID {1C069CAB-0CC7-4D11-9DF3-2F2B14783679}
      IID 1
      NAME "Outro"
      VOLPAN 1 0 1 -1
      SOFFS 0
      PLAYRATE 1 1 0 -1 0 0.0025
      CHANMODE 0
      GUID {FA602267-133C-456A-AF7E-EA15725BF56C}
      <SOURCE MIDI
        HASDATA 1 960 QN
        CCINTERP 32
        POOLEDEVTS {DCCE8DCC-E6E6-4134-B0B8-3B81F2CAF980}
        LAST_REC_LAUNCHQUANT 0
      E 0 90 24 5a
      E 336 80 24 00
      E 1584 90 26 50
      E 336 80 26 00
      E 1584 90 24 5a
      E 336 80 24 00
      E 1584 90 26 50
      E 336 80 26 00
      E 1584 90 24 5a
      E 336 80 24 00
      E 1584 90 26 50
      E 336 80 26 00
      E 1584 90 24 5a
      E 336 80 24 00
      E 1584 90 26 50
      E 336 80 26 00
      E 1584 90 24 5a
      E 336 80 24 00
      E 1584 90 26 50
      E 336 80 26 00
      E 1584 90 24 5a
      E 336 80 24 00
      E 1584 90 26 50
      E 336 80 26 00
      E 1584 90 24 5a
      E 336 80 24 00
      E 1584 90 26 50
      E 336 80 26 00
      E 1584 90 24 5a
      E 336 80 24 00
      E 1584 90 26 50
      E 336 80 26 00
      E 1584 b0 7b 00
        CCEVT -1 0 0
      >
    >

  >
>