<REAPER_PROJECT 0.1 "6.82/OSX64" 1708000000
  RIPPLE 0
  GROUPOVERRIDE 0 0 0
  AUTOXFADE 129
  ENVATTACH 3
  POOLEDENVATTACH 0
  MIXERUIFLAGS 11 48
  PEAKGAIN 1
  FEEDBACK 0
  PANLAW 1
  PROJOFFS 0 0 0
  MAXPROJLEN 0 122.588235
  GRID 3199 8 1 8 1 0 0 0
  TIMEMODE 1 5 -1 30 0 0 -1
  VIDEO_CONFIG 0 0 256
  PANMODE 3
  CURSOR 0
  ZOOM 100 0 0
  VZOOMEX 6 0
  USE_REC_CFG 0
  RECMODE 1
  SMPTESYNC 0 30 100 40 1000 300 0 0 0 0 0
  LOOP 0
  LOOPGRAN 0
  RECORD_PATH "" ""
  <RECORD_CFG
    ZXZhdw==
  >
  <APPLYFX_CFG
  >
  RENDER_FILE ""
  RENDER_PATTERN ""
  RENDER_FMT 0 2 0
  RENDER_1X 0
  RENDER_RANGE 1 0 0 18 1000
  RENDER_RESAMPLE 3 0 1
  RENDER_ADDTOPROJ 0
  RENDER_STEMS 0
  RENDER_DITHER 0
  TIMELOCKMODE 1
  TEMPOENVLOCKMODE 1
  ITEMMIX 1
  DEFPITCHMODE 589824 0
  TAKELANE 1
  SAMPLERATE 48000 0 0
  <RENDER_CFG2
  >
  LOCK 1
  <METRONOME 6 2
    VOL 0.25 0.125
    FREQ 800 1600 1
    BEATLEN 4
    SAMPLES "" ""
    PATTERN 2863311530 2863311530
    MULT 1
  >
  MASTER_NCH 2
  MASTER_VOLUME 1
  MASTER_FX 1
  MASTER_SEL 0
  <TEMPOENVEX
    ACT 0 -1
    VIS 1 0 1
    LANEHEIGHT 0 0
    ARM 0
    DEFSHAPE 0 -1 -1
    PT 0 170 0
  >
  <PROJBAY
  >
    MARKER 1 0.000000 "Intro" 1 0 1 B {D528D783-9E34-4B00-8CE0-EE1225EF95BA} 0
  MARKER 2 5.647059 "Verse 1" 1 0 1 B {70A972BE-CE19-43CA-8059-31694F39B4A9} 0
  MARKER 3 28.235294 "Chorus 1" 1 0 1 B {FA0D46DF-ABEE-4D10-8DF3-C919E29CE247} 0
  MARKER 4 50.823529 "Verse 2" 1 0 1 B {8A4EE5D7-3F9C-4300-9B99-0C921304B11B} 0
  MARKER 5 73.411765 "Bridge" 1 0 1 B {DB6E4526-B028-4041-B00A-FED7C34CF289} 0
  MARKER 6 84.705882 "Chorus 2" 1 0 1 B {A5304781-623A-4A80-96C5-412707CAA215} 0
  MARKER 7 107.294118 "Outro" 1 0 1 B {112EF4AA-0DBF-4D7A-97BB-C0CE330D41AB} 0
  <TRACK {7692FFAC-2AF3-44BA-91CE-14C6A1F7F818}
    NAME "Chords"
    PEAKCOL 33522258
    BEAT -1
    AUTOMODE 0
    VOLPAN 1 0 0.6 -1
    MUTESOLO 0 0 0
    IPHASE 0
    PLAYOFFS 0 1
    ISBUS 0 0
    BUSCOMP 0 0 0 0 0
    SHOWINMIX 1 0.6667 0.5 1 0.5 0 0 0
    FREEMODE 0
    SEL 0
    REC 0 0 1 0 0 0 0
    VU 2
    TRACKHEIGHT 0 0 0 0 0 0
    INQ 0 0 0 0.5 100 0 0 100
    NCHAN 2
    FX 1
    TRACKID {AED92E6F-6460-4741-AA74-69A462E86CB5}
    PERF 0
    MIDIOUT -1
    MAINSEND 1 0
    <ITEM
      POSITION 0.000000
      SNAPOFFS 0
      LENGTH 5.647059
      LOOP 0
      ALLTAKES 0
      FADEIN 1 0 0 1 0 0 0
      FADEOUT 1 0 0 1 0 0 0
      MUTE 0 0
      SEL 0
      IGUID {A8F0116F-27CD-4DDA-A4FE-4A9EC286AC64}
      IID 1
      NAME "Intro"
      VOLPAN 1 0 1 -1
      SOFFS 0
      PLAYRATE 1 1 0 -1 0 0.0025
      CHANMODE 0
      GUID {7D81F580-3C8C-4895-9450-07DF3517177C}
      <SOURCE MIDI
        HASDATA 1 960 QN
        CCINTERP 32
        POOLEDEVTS {4F13723C-E31E-47E3-976C-7C91643B4EB3}
        LAST_REC_LAUNCHQUANT 0
      E 0 90 39 48
      E 0 90 3c 48
      E 0 90 40 48
      E 1872 80 39 00
      E 0 80 3c 00
      E 0 80 40 00
      E 48 90 37 48
      E 0 90 3b 48
      E 0 90 3e 48
      E 1872 80 37 00
      E 0 80 3b 00
      E 0 80 3e 00
      E 48 90 35 48
      E 0 90 39 48
      E 0 90 3c 48
      E 1872 80 35 00
      E 0 80 39 00
      E 0 80 3c 00
      E 48 90 34 48
      E 0 90 38 48
      E 0 90 3b 48
      E 1872 80 34 00
      E 0 80 38 00
      E 0 80 3b 00
      E 48 90 39 48
      E 0 90 3c 48
      E 0 90 40 48
      E 1872 80 39 00
      E 0 80 3c 00
      E 0 80 40 00
      E 48 90 37 48
      E 0 90 3b 48
      E 0 90 3e 48
      E 1872 80 37 00
      E 0 80 3b 00
      E 0 80 3e 00
      E 48 90 35 48
      E 0 90 39 48
      E 0 90 3c 48
      E 1872 80 35 00
      E 0 80 39 00
      E 0 80 3c 00
      E 48 90 34 48
      E 0 90 38 48
      E 0 90 3b 48
      E 1872 80 34 00
      E 0 80 38 00
      E 0 80 3b 00
      E 48 b0 7b 00
        CCEVT -1 0 0
      >
    >
    <ITEM
      POSITION 5.647059
      SNAPOFFS 0
      LENGTH 22.588235
      LOOP 0
      ALLTAKES 0
      FADEIN 1 0 0 1 0 0 0
      FADEOUT 1 0 0 1 0 0 0
      MUTE 0 0
      SEL 0
      IGUID {0824E0EB-97AA-4AB7-973F-39F086A28365}
      IID 1
      NAME "Verse 1"
      VOLPAN 1 0 1 -1
      SOFFS 0
      PLAYRATE 1 1 0 -1 0 0.0025
      CHANMODE 0
      GUID {9ED9BB22-0F1E-48DA-9972-EA7E352964F5}
      <SOURCE MIDI
        HASDATA 1 960 QN
        CCINTERP 32
        POOLEDEVTS {83021A30-2C87-4FEF-BEDA-D844503C2311}
        LAST_REC_LAUNCHQUANT 0
      E 0 90 39 55
      E 0 90 3c 55
      E 0 90 40 55
      E 3792 80 39 00
      E 0 80 3c 00
      E 0 80 40 00
      E 48 90 37 55
      E 0 90 3b 55
      E 0 90 3e 55
      E 3792 80 37 00
      E 0 80 3b 00
      E 0 80 3e 00
      E 48 90 35 55
      E 0 90 39 55
      E 0 90 3c 55
      E 3792 80 35 00
      E 0 80 39 00
      E 0 80 3c 00
      E 48 90 34 55
      E 0 90 38 55
      E 0 90 3b 55
      E 3792 80 34 00
      E 0 80 38 00
      E 0 80 3b 00
      E 48 90 39 55
      E 0 90 3c 55
      E 0 90 40 55
      E 3792 80 39 00
      E 0 80 3c 00
      E 0 80 40 00
      E 48 90 37 55
      E 0 90 3b 55
      E 0 90 3e 55
      E 3792 80 37 00
      E 0 80 3b 00
      E 0 80 3e 00
      E 48 90 35 55
      E 0 90 39 55
      E 0 90 3c 55
      E 3792 80 35 00
      E 0 80 39 00
      E 0 80 3c 00
      E 48 90 34 55
      E 0 90 38 55
      E 0 90 3b 55
      E 3792 80 34 00
      E 0 80 38 00
      E 0 80 3b 00
      E 48 90 39 55
      E 0 90 3c 55
      E 0 90 40 55
      E 3792 80 39 00
      E 0 80 3c 00
      E 0 80 40 00
      E 48 90 37 55
      E 0 90 3b 55
      E 0 90 3e 55
      E 3792 80 37 00
      E 0 80 3b 00
      E 0 80 3e 00
      E 48 90 35 55
      E 0 90 39 55
      E 0 90 3c 55
      E 3792 80 35 00
      E 0 80 39 00
      E 0 80 3c 00
      E 48 90 34 55
      E 0 90 38 55
      E 0 90 3b 55
      E 3792 80 34 00
      E 0 80 38 00
      E 0 80 3b 00
      E 48 90 39 55
      E 0 90 3c 55
      E 0 90 40 55
      E 3792 80 39 00
      E 0 80 3c 00
      E 0 80 40 00
      E 48 90 37 55
      E 0 90 3b 55
      E 0 90 3e 55
      E 3792 80 37 00
      E 0 80 3b 00
      E 0 80 3e 00
      E 48 90 35 55
      E 0 90 39 55
      E 0 90 3c 55
      E 3792 80 35 00
      E 0 80 39 00
      E 0 80 3c 00
      E 48 90 34 55
      E 0 90 38 55
      E 0 90 3b 55
      E 3792 80 34 00
      E 0 80 38 00
      E 0 80 3b 00
      E 48 b0 7b 00
        CCEVT -1 0 0
      >
    >
    <ITEM
      POSITION 28.235294
      SNAPOFFS 0
      LENGTH 22.588235
      LOOP 0
      ALLTAKES 0
      FADEIN 1 0 0 1 0 0 0
      FADEOUT 1 0 0 1 0 0 0
      MUTE 0 0
      SEL 0
      IGUID {B897F1E2-F21B-4C25-B4A5-146F23AC6CFB}
      IID 1
      NAME "Chorus 1"
      VOLPAN 1 0 1 -1
      SOFFS 0
      PLAYRATE 1 1 0 -1 0 0.0025
      CHANMODE 0
      GUID {16B66FDB-B1A2-4E3E-AF83-B7E696B2F6F1}
      <SOURCE MIDI
        HASDATA 1 960 QN
        CCINTERP 32
        POOLEDEVTS {A9419304-E868-4584-B37C-9888561B7717}
        LAST_REC_LAUNCHQUANT 0
      E 0 90 3c 64
      E 0 90 40 64
      E 0 90 43 64
      E 3792 80 3c 00
      E 0 80 40 00
      E 0 80 43 00
      E 48 90 37 64
      E 0 90 3b 64
      E 0 90 3e 64
      E 3792 80 37 00
      E 0 80 3b 00
      E 0 80 3e 00
      E 48 90 39 64
      E 0 90 3c 64
      E 0 90 40 64
      E 3792 80 39 00
      E 0 80 3c 00
      E 0 80 40 00
      E 48 90 35 64
      E 0 90 39 64
      E 0 90 3c 64
      E 3792 80 35 00
      E 0 80 39 00
      E 0 80 3c 00
      E 48 90 3c 64
      E 0 90 40 64
      E 0 90 43 64
      E 3792 80 3c 00
      E 0 80 40 00
      E 0 80 43 00
      E 48 90 37 64
      E 0 90 3b 64
      E 0 90 3e 64
      E 3792 80 37 00
      E 0 80 3b 00
      E 0 80 3e 00
      E 48 90 39 64
      E 0 90 3c 64
      E 0 90 40 64
      E 3792 80 39 00
      E 0 80 3c 00
      E 0 80 40 00
      E 48 90 35 64
      E 0 90 39 64
      E 0 90 3c 64
      E 3792 80 35 00
      E 0 80 39 00
      E 0 80 3c 00
      E 48 90 3c 64
      E 0 90 40 64
      E 0 90 43 64
      E 3792 80 3c 00
      E 0 80 40 00
      E 0 80 43 00
      E 48 90 37 64
      E 0 90 3b 64
      E 0 90 3e 64
      E 3792 80 37 00
      E 0 80 3b 00
      E 0 80 3e 00
      E 48 90 39 64
      E 0 90 3c 64
      E 0 90 40 64
      E 3792 80 39 00
      E 0 80 3c 00
      E 0 80 40 00
      E 48 90 35 64
      E 0 90 39 64
      E 0 90 3c 64
      E 3792 80 35 00
      E 0 80 39 00
      E 0 80 3c 00
      E 48 90 3c 64
      E 0 90 40 64
      E 0 90 43 64
      E 3792 80 3c 00
      E 0 80 40 00
      E 0 80 43 00
      E 48 90 37 64
      E 0 90 3b 64
      E 0 90 3e 64
      E 3792 80 37 00
      E 0 80 3b 00
      E 0 80 3e 00
      E 48 90 39 64
      E 0 90 3c 64
      E 0 90 40 64
      E 3792 80 39 00
      E 0 80 3c 00
      E 0 80 40 00
      E 48 90 35 64
      E 0 90 39 64
      E 0 90 3c 64
      E 3792 80 35 00
      E 0 80 39 00
      E 0 80 3c 00
      E 48 b0 7b 00
        CCEVT -1 0 0
      >
    >
    <ITEM
      POSITION 50.823529
      SNAPOFFS 0
      LENGTH 22.588235
      LOOP 0
      ALLTAKES 0
      FADEIN 1 0 0 1 0 0 0
      FADEOUT 1 0 0 1 0 0 0
      MUTE 0 0
      SEL 0
      IGUID {2629544B-C09E-46A5-B1A7-2B07CA14B094}
      IID 1
      NAME "Verse 2"
      VOLPAN 1 0 1 -1
      SOFFS 0
      PLAYRATE 1 1 0 -1 0 0.0025
      CHANMODE 0
      GUID {7CED7BDD-ED53-45FD-A7E1-03FA4F3C6A1B}
      <SOURCE MIDI
        HASDATA 1 960 QN
        CCINTERP 32
        POOLEDEVTS {08C0D2B2-7410-47F1-BBDA-7F6CFA3B849B}
        LAST_REC_LAUNCHQUANT 0
      E 0 90 39 55
      E 0 90 3c 55
      E 0 90 40 55
      E 3792 80 39 00
      E 0 80 3c 00
      E 0 80 40 00
      E 48 90 37 55
      E 0 90 3b 55
      E 0 90 3e 55
      E 3792 80 37 00
      E 0 80 3b 00
      E 0 80 3e 00
      E 48 90 35 55
      E 0 90 39 55
      E 0 90 3c 55
      E 3792 80 35 00
      E 0 80 39 00
      E 0 80 3c 00
      E 48 90 34 55
      E 0 90 38 55
      E 0 90 3b 55
      E 3792 80 34 00
      E 0 80 38 00
      E 0 80 3b 00
      E 48 90 39 55
      E 0 90 3c 55
      E 0 90 40 55
      E 3792 80 39 00
      E 0 80 3c 00
      E 0 80 40 00
      E 48 90 37 55
      E 0 90 3b 55
      E 0 90 3e 55
      E 3792 80 37 00
      E 0 80 3b 00
      E 0 80 3e 00
      E 48 90 35 55
      E 0 90 39 55
      E 0 90 3c 55
      E 3792 80 35 00
      E 0 80 39 00
      E 0 80 3c 00
      E 48 90 34 55
      E 0 90 38 55
      E 0 90 3b 55
      E 3792 80 34 00
      E 0 80 38 00
      E 0 80 3b 00
      E 48 90 39 55
      E 0 90 3c 55
      E 0 90 40 55
      E 3792 80 39 00
      E 0 80 3c 00
      E 0 80 40 00
      E 48 90 37 55
      E 0 90 3b 55
      E 0 90 3e 55
      E 3792 80 37 00
      E 0 80 3b 00
      E 0 80 3e 00
      E 48 90 35 55
      E 0 90 39 55
      E 0 90 3c 55
      E 3792 80 35 00
      E 0 80 39 00
      E 0 80 3c 00
      E 48 90 34 55
      E 0 90 38 55
      E 0 90 3b 55
      E 3792 80 34 00
      E 0 80 38 00
      E 0 80 3b 00
      E 48 90 39 55
      E 0 90 3c 55
      E 0 90 40 55
      E 3792 80 39 00
      E 0 80 3c 00
      E 0 80 40 00
      E 48 90 37 55
      E 0 90 3b 55
      E 0 90 3e 55
      E 3792 80 37 00
      E 0 80 3b 00
      E 0 80 3e 00
      E 48 90 35 55
      E 0 90 39 55
      E 0 90 3c 55
      E 3792 80 35 00
      E 0 80 39 00
      E 0 80 3c 00
      E 48 90 34 55
      E 0 90 38 55
      E 0 90 3b 55
      E 3792 80 34 00
      E 0 80 38 00
      E 0 80 3b 00
      E 48 b0 7b 00
        CCEVT -1 0 0
      >
    >
    <ITEM
      POSITION 73.411765
      SNAPOFFS 0
      LENGTH 11.294118
      LOOP 0
      ALLTAKES 0
      FADEIN 1 0 0 1 0 0 0
      FADEOUT 1 0 0 1 0 0 0
      MUTE 0 0
      SEL 0
      IGUID {720EBEE9-5B91-49AD-AB54-25CB25B9FA3F}
      IID 1
      NAME "Bridge"
      VOLPAN 1 0 1 -1
      SOFFS 0
      PLAYRATE 1 1 0 -1 0 0.0025
      CHANMODE 0
      GUID {FADA19A9-F2FD-49ED-8E09-47EC24D35E14}
      <SOURCE MIDI
        HASDATA 1 960 QN
        CCINTERP 32
        POOLEDEVTS {0C082726-B1E1-4A64-878C-E9BC850B9582}
        LAST_REC_LAUNCHQUANT 0
      E 0 90 32 48
      E 0 90 35 48
      E 0 90 39 48
      E 1872 80 32 00
      E 0 80 35 00
      E 0 80 39 00
      E 48 90 39 48
      E 0 90 3c 48
      E 0 90 40 48
      E 1872 80 39 00
      E 0 80 3c 00
      E 0 80 40 00
      E 48 90 34 48
      E 0 90 38 48
      E 0 90 3b 48
      E 1872 80 34 00
      E 0 80 38 00
      E 0 80 3b 00
      E 48 90 39 48
      E 0 90 3c 48
      E 0 90 40 48
      E 1872 80 39 00
      E 0 80 3c 00
      E 0 80 40 00
      E 48 90 32 48
      E 0 90 35 48
      E 0 90 39 48
      E 1872 80 32 00
      E 0 80 35 00
      E 0 80 39 00
      E 48 90 39 48
      E 0 90 3c 48
      E 0 90 40 48
      E 1872 80 39 00
      E 0 80 3c 00
      E 0 80 40 00
      E 48 90 34 48
      E 0 90 38 48
      E 0 90 3b 48
      E 1872 80 34 00
      E 0 80 38 00
      E 0 80 3b 00
      E 48 90 39 48
      E 0 90 3c 48
      E 0 90 40 48
      E 1872 80 39 00
      E 0 80 3c 00
      E 0 80 40 00
      E 48 90 32 48
      E 0 90 35 48
      E 0 90 39 48
      E 1872 80 32 00
      E 0 80 35 00
      E 0 80 39 00
      E 48 90 39 48
      E 0 90 3c 48
      E 0 90 40 48
      E 1872 80 39 00
      E 0 80 3c 00
      E 0 80 40 00
      E 48 90 34 48
      E 0 90 38 48
      E 0 90 3b 48
      E 1872 80 34 00
      E 0 80 38 00
      E 0 80 3b 00
      E 48 90 39 48
      E 0 90 3c 48
      E 0 90 40 48
      E 1872 80 39 00
      E 0 80 3c 00
      E 0 80 40 00
      E 48 90 32 48
      E 0 90 35 48
      E 0 90 39 48
      E 1872 80 32 00
      E 0 80 35 00
      E 0 80 39 00
      E 48 90 39 48
      E 0 90 3c 48
      E 0 90 40 48
      E 1872 80 39 00
      E 0 80 3c 00
      E 0 80 40 00
      E 48 90 34 48
      E 0 90 38 48
      E 0 90 3b 48
      E 1872 80 34 00
      E 0 80 38 00
      E 0 80 3b 00
      E 48 90 39 48
      E 0 90 3c 48
      E 0 90 40 48
      E 1872 80 39 00
      E 0 80 3c 00
      E 0 80 40 00
      E 48 b0 7b 00
        CCEVT -1 0 0
      >
    >
    <ITEM
      POSITION 84.705882
      SNAPOFFS 0
      LENGTH 22.588235
      LOOP 0
      ALLTAKES 0
      FADEIN 1 0 0 1 0 0 0
      FADEOUT 1 0 0 1 0 0 0
      MUTE 0 0
      SEL 0
      IGUID {1492711B-9694-4963-99B5-90724AEE5CBA}
      IID 1
      NAME "Chorus 2"
      VOLPAN 1 0 1 -1
      SOFFS 0
      PLAYRATE 1 1 0 -1 0 0.0025
      CHANMODE 0
      GUID {BFF33CCC-28CA-4B46-8657-C06CB90C07C8}
      <SOURCE MIDI
        HASDATA 1 960 QN
        CCINTERP 32
        POOLEDEVTS {5B684294-E4CD-4EA3-80C2-9DD52AD457E7}
        LAST_REC_LAUNCHQUANT 0
      E 0 90 3c 69
      E 0 90 40 69
      E 0 90 43 69
      E 3792 80 3c 00
      E 0 80 40 00
      E 0 80 43 00
      E 48 90 37 69
      E 0 90 3b 69
      E 0 90 3e 69
      E 3792 80 37 00
      E 0 80 3b 00
      E 0 80 3e 00
      E 48 90 39 69
      E 0 90 3c 69
      E 0 90 40 69
      E 3792 80 39 00
      E 0 80 3c 00
      E 0 80 40 00
      E 48 90 35 69
      E 0 90 39 69
      E 0 90 3c 69
      E 3792 80 35 00
      E 0 80 39 00
      E 0 80 3c 00
      E 48 90 3c 69
      E 0 90 40 69
      E 0 90 43 69
      E 3792 80 3c 00
      E 0 80 40 00
      E 0 80 43 00
      E 48 90 37 69
      E 0 90 3b 69
      E 0 90 3e 69
      E 3792 80 37 00
      E 0 80 3b 00
      E 0 80 3e 00
      E 48 90 39 69
      E 0 90 3c 69
      E 0 90 40 69
      E 3792 80 39 00
      E 0 80 3c 00
      E 0 80 40 00
      E 48 90 35 69
      E 0 90 39 69
      E 0 90 3c 69
      E 3792 80 35 00
      E 0 80 39 00
      E 0 80 3c 00
      E 48 90 3c 69
      E 0 90 40 69
      E 0 90 43 69
      E 3792 80 3c 00
      E 0 80 40 00
      E 0 80 43 00
      E 48 90 37 69
      E 0 90 3b 69
      E 0 90 3e 69
      E 3792 80 37 00
      E 0 80 3b 00
      E 0 80 3e 00
      E 48 90 39 69
      E 0 90 3c 69
      E 0 90 40 69
      E 3792 80 39 00
      E 0 80 3c 00
      E 0 80 40 00
      E 48 90 35 69
      E 0 90 39 69
      E 0 90 3c 69
      E 3792 80 35 00
      E 0 80 39 00
      E 0 80 3c 00
      E 48 90 3c 69
      E 0 90 40 69
      E 0 90 43 69
      E 3792 80 3c 00
      E 0 80 40 00
      E 0 80 43 00
      E 48 90 37 69
      E 0 90 3b 69
      E 0 90 3e 69
      E 3792 80 37 00
      E 0 80 3b 00
      E 0 80 3e 00
      E 48 90 39 69
      E 0 90 3c 69
      E 0 90 40 69
      E 3792 80 39 00
      E 0 80 3c 00
      E 0 80 40 00
      E 48 90 35 69
      E 0 90 39 69
      E 0 90 3c 69
      E 3792 80 35 00
      E 0 80 39 00
      E 0 80 3c 00
      E 48 b0 7b 00
        CCEVT -1 0 0
      >
    >
    <ITEM
      POSITION 107.294118
      SNAPOFFS 0
      LENGTH 11.294118
      LOOP 0
      ALLTAKES 0
      FADEIN 1 0 0 1 0 0 0
      FADEOUT 1 0 0 1 0 0 0
      MUTE 0 0
      SEL 0
      IGUID {71A6D29F-952D-4F7A-A563-271A9985AF07}
      IID 1
      NAME "Outro"
      VOLPAN 1 0 1 -1
      SOFFS 0
      PLAYRATE 1 1 0 -1 0 0.0025
      CHANMODE 0
      GUID {797173ED-48B7-4B1C-A7CC-EA386DC86B8B}
      <SOURCE MIDI
        HASDATA 1 960 QN
        CCINTERP 32
        POOLEDEVTS {F0D21C6D-14F8-457D-9565-8FB7FA989F34}
        LAST_REC_LAUNCHQUANT 0
      E 0 90 39 46
      E 0 90 3c 46
      E 0 90 40 46
      E 1872 80 39 00
      E 0 80 3c 00
      E 0 80 40 00
      E 48 90 37 46
      E 0 90 3b 46
      E 0 90 3e 46
      E 1872 80 37 00
      E 0 80 3b 00
      E 0 80 3e 00
      E 48 90 35 46
      E 0 90 39 46
      E 0 90 3c 46
      E 1872 80 35 00
      E 0 80 39 00
      E 0 80 3c 00
      E 48 90 34 46
      E 0 90 38 46
      E 0 90 3b 46
      E 1872 80 34 00
      E 0 80 38 00
      E 0 80 3b 00
      E 48 90 39 46
      E 0 90 3c 46
      E 0 90 40 46
      E 1872 80 39 00
      E 0 80 3c 00
      E 0 80 40 00
      E 48 90 37 46
      E 0 90 3b 46
      E 0 90 3e 46
      E 1872 80 37 00
      E 0 80 3b 00
      E 0 80 3e 00
      E 48 90 35 46
      E 0 90 39 46
      E 0 90 3c 46
      E 1872 80 35 00
      E 0 80 39 00
      E 0 80 3c 00
      E 48 90 34 46
      E 0 90 38 46
      E 0 90 3b 46
      E 1872 80 34 00
      E 0 80 38 00
      E 0 80 3b 00
      E 48 90 39 46
      E 0 90 3c 46
      E 0 90 40 46
      E 1872 80 39 00
      E 0 80 3c 00
      E 0 80 40 00
      E 48 90 37 46
      E 0 90 3b 46
      E 0 90 3e 46
      E 1872 80 37 00
      E 0 80 3b 00
      E 0 80 3e 00
      E 48 90 35 46
      E 0 90 39 46
      E 0 90 3c 46
      E 1872 80 35 00
      E 0 80 39 00
      E 0 80 3c 00
      E 48 90 34 46
      E 0 90 38 46
      E 0 90 3b 46
      E 1872 80 34 00
      E 0 80 38 00
      E 0 80 3b 00
      E 48 90 39 46
      E 0 90 3c 46
      E 0 90 40 46
      E 1872 80 39 00
      E 0 80 3c 00
      E 0 80 40 00
      E 48 90 37 46
      E 0 90 3b 46
      E 0 90 3e 46
      E 1872 80 37 00
      E 0 80 3b 00
      E 0 80 3e 00
      E 48 90 35 46
      E 0 90 39 46
      E 0 90 3c 46
      E 1872 80 35 00
      E 0 80 39 00
      E 0 80 3c 00
      E 48 90 34 46
      E 0 90 38 46
      E 0 90 3b 46
      E 1872 80 34 00
      E 0 80 38 00
      E 0 80 3b 00
      E 48 b0 7b 00
        CCEVT -1 0 0
      >
    >

  >
  <TRACK {FB9DADC5-39C6-4C71-9C05-63A52EEA7F2F}
    NAME "Drums (Kick+Snare)"
    PEAKCOL 22045951
    BEAT -1
    AUTOMODE 0
    VOLPAN 1 0 0.6 -1
    MUTESOLO 0 0 0
    IPHASE 0
    PLAYOFFS 0 1
    ISBUS 0 0
    BUSCOMP 0 0 0 0 0
    SHOWINMIX 1 0.6667 0.5 1 0.5 0 0 0
    FREEMODE 0
    SEL 0
    REC 0 0 1 0 0 0 0
    VU 2
    TRACKHEIGHT 0 0 0 0 0 0
    INQ 0 0 0 0.5 100 0 0 100
    NCHAN 2
    FX 1
    TRACKID {BFC55219-DB40-47FD-8C76-D6B172AC9AD7}
    PERF 0
    MIDIOUT -1
    MAINSEND 1 0
    <ITEM
      POSITION 0.000000
      SNAPOFFS 0
      LENGTH 5.647059
      LOOP 0
      ALLTAKES 0
      FADEIN 1 0 0 1 0 0 0
      FADEOUT 1 0 0 1 0 0 0
      MUTE 0 0
      SEL 0
      IGUID {21167B18-04A0-420B-9042-646D30C01678}
      IID 1
      NAME "Intro"
      VOLPAN 1 0 1 -1
      SOFFS 0
      PLAYRATE 1 1 0 -1 0 0.0025
      CHANMODE 0
      GUID {0C4923CE-8FAB-48AB-8D64-A1574DB3E79D}
      <SOURCE MIDI
        HASDATA 1 960 QN
        CCINTERP 32
        POOLEDEVTS {173ECE14-3C4F-4DE6-84CF-005AD62111C4}
        LAST_REC_LAUNCHQUANT 0
      E 0 90 24 6e
      E 336 80 24 00
      E 1104 90 26 69
      E 336 80 26 00
      E 624 90 24 5f
      E 336 80 24 00
      E 624 90 26 64
      E 336 80 26 00
      E 144 90 24 6e
      E 336 80 24 00
      E 1104 90 26 69
      E 336 80 26 00
      E 624 90 24 5f
      E 336 80 24 00
      E 624 90 26 64
      E 336 80 26 00
      E 144 90 24 6e
      E 336 80 24 00
      E 1104 90 26 69
      E 336 80 26 00
      E 624 90 24 5f
      E 336 80 24 00
      E 624 90 26 64
      E 336 80 26 00
      E 144 90 24 6e
      E 336 80 24 00
      E 1104 90 26 69
      E 336 80 26 00
      E 624 90 24 5f
      E 336 80 24 00
      E 624 90 26 64
      E 336 80 26 00
      E 144 b0 7b 00
        CCEVT -1 0 0
      >
    >
    <ITEM
      POSITION 5.647059
      SNAPOFFS 0
      LENGTH 22.588235
      LOOP 0
      ALLTAKES 0
      FADEIN 1 0 0 1 0 0 0
      FADEOUT 1 0 0 1 0 0 0
      MUTE 0 0
      SEL 0
      IGUID {2106D068-E6D7-457A-843E-CB1F68CF20A8}
      IID 1
      NAME "Verse 1"
      VOLPAN 1 0 1 -1
      SOFFS 0
      PLAYRATE 1 1 0 -1 0 0.0025
      CHANMODE 0
      GUID {19830213-84FF-4010-8752-754ADB166E42}
      <SOURCE MIDI
        HASDATA 1 960 QN
        CCINTERP 32
        POOLEDEVTS {7C4E3B68-856C-4DED-AF36-1D5455108A12}
        LAST_REC_LAUNCHQUANT 0
      E 0 90 24 6e
      E 336 80 24 00
      E 1104 90 26 69
      E 336 80 26 00
      E 624 90 24 5f
      E 336 80 24 00
      E 624 90 26 64
      E 336 80 26 00
      E 144 90 24 6e
      E 336 80 24 00
      E 1104 90 26 69
      E 336 80 26 00
      E 624 90 24 5f
      E 336 80 24 00
      E 624 90 26 64
      E 336 80 26 00
      E 144 90 24 6e
      E 336 80 24 00
      E 1104 90 26 69
      E 336 80 26 00
      E 624 90 24 5f
      E 336 80 24 00
      E 624 90 26 64
      E 336 80 26 00
      E 144 90 24 6e
      E 336 80 24 00
      E 1104 90 26 69
      E 336 80 26 00
      E 624 90 24 5f
      E 336 80 24 00
      E 624 90 26 64
      E 336 80 26 00
      E 144 90 24 6e
      E 336 80 24 00
      E 1104 90 26 69
      E 336 80 26 00
      E 624 90 24 5f
      E 336 80 24 00
      E 624 90 26 64
      E 336 80 26 00
      E 144 90 24 6e
      E 336 80 24 00
      E 1104 90 26 69
      E 336 80 26 00
      E 624 90 24 5f
      E 336 80 24 00
      E 624 90 26 64
      E 336 80 26 00
      E 144 90 24 6e
      E 336 80 24 00
      E 1104 90 26 69
      E 336 80 26 00
      E 624 90 24 5f
      E 336 80 24 00
      E 624 90 26 64
      E 336 80 26 00
      E 144 90 24 6e
      E 336 80 24 00
      E 1104 90 26 69
      E 336 80 26 00
      E 624 90 24 5f
      E 336 80 24 00
      E 624 90 26 64
      E 336 80 26 00
      E 144 90 24 6e
      E 336 80 24 00
      E 1104 90 26 69
      E 336 80 26 00
      E 624 90 24 5f
      E 336 80 24 00
      E 624 90 26 64
      E 336 80 26 00
      E 144 90 24 6e
      E 336 80 24 00
      E 1104 90 26 69
      E 336 80 26 00
      E 624 90 24 5f
      E 336 80 24 00
      E 624 90 26 64
      E 336 80 26 00
      E 144 90 24 6e
      E 336 80 24 00
      E 1104 90 26 69
      E 336 80 26 00
      E 624 90 24 5f
      E 336 80 24 00
      E 624 90 26 64
      E 336 80 26 00
      E 144 90 24 6e
      E 336 80 24 00
      E 1104 90 26 69
      E 336 80 26 00
      E 624 90 24 5f
      E 336 80 24 00
      E 624 90 26 64
      E 336 80 26 00
      E 144 90 24 6e
      E 336 80 24 00
      E 1104 90 26 69
      E 336 80 26 00
      E 624 90 24 5f
      E 336 80 24 00
      E 624 90 26 64
      E 336 80 26 00
      E 144 90 24 6e
      E 336 80 24 00
      E 1104 90 26 69
      E 336 80 26 00
      E 624 90 24 5f
      E 336 80 24 00
      E 624 90 26 64
      E 336 80 26 00
      E 144 90 24 6e
      E 336 80 24 00
      E 1104 90 26 69
      E 336 80 26 00
      E 624 90 24 5f
      E 336 80 24 00
      E 624 90 26 64
      E 336 80 26 00
      E 144 90 24 6e
      E 336 80 24 00
      E 1104 90 26 69
      E 336 80 26 00
      E 624 90 24 5f
      E 336 80 24 00
      E 624 90 26 64
      E 336 80 26 00
      E 144 b0 7b 00
        CCEVT -1 0 0
      >
    >
    <ITEM
      POSITION 28.235294
      SNAPOFFS 0
      LENGTH 22.588235
      LOOP 0
      ALLTAKES 0
      FADEIN 1 0 0 1 0 0 0
      FADEOUT 1 0 0 1 0 0 0
      MUTE 0 0
      SEL 0
      IGUID {F20EABA6-E382-42FD-87E3-80091B18F38A}
      IID 1
      NAME "Chorus 1"
      VOLPAN 1 0 1 -1
      SOFFS 0
      PLAYRATE 1 1 0 -1 0 0.0025
      CHANMODE 0
      GUID {10C17F27-40E7-4C88-BDA2-00B3512397B3}
      <SOURCE MIDI
        HASDATA 1 960 QN
        CCINTERP 32
        POOLEDEVTS {F735B0BA-7036-460A-A459-239D06D4E08B}
        LAST_REC_LAUNCHQUANT 0
      E 0 90 24 6e
      E 336 80 24 00
      E 1104 90 26 69
      E 336 80 26 00
      E 624 90 24 5f
      E 336 80 24 00
      E 624 90 26 64
      E 336 80 26 00
      E 144 90 24 6e
      E 336 80 24 00
      E 1104 90 26 69
      E 336 80 26 00
      E 624 90 24 5f
      E 336 80 24 00
      E 624 90 26 64
      E 336 80 26 00
      E 144 90 24 6e
      E 336 80 24 00
      E 1104 90 26 69
      E 336 80 26 00
      E 624 90 24 5f
      E 336 80 24 00
      E 624 90 26 64
      E 336 80 26 00
      E 144 90 24 6e
      E 336 80 24 00
      E 1104 90 26 69
      E 336 80 26 00
      E 624 90 24 5f
      E 336 80 24 00
      E 624 90 26 64
      E 336 80 26 00
      E 144 90 24 6e
      E 336 80 24 00
      E 1104 90 26 69
      E 336 80 26 00
      E 624 90 24 5f
      E 336 80 24 00
      E 624 90 26 64
      E 336 80 26 00
      E 144 90 24 6e
      E 336 80 24 00
      E 1104 90 26 69
      E 336 80 26 00
      E 624 90 24 5f
      E 336 80 24 00
      E 624 90 26 64
      E 336 80 26 00
      E 144 90 24 6e
      E 336 80 24 00
      E 1104 90 26 69
      E 336 80 26 00
      E 624 90 24 5f
      E 336 80 24 00
      E 624 90 26 64
      E 336 80 26 00
      E 144 90 24 6e
      E 336 80 24 00
      E 1104 90 26 69
      E 336 80 26 00
      E 624 90 24 5f
      E 336 80 24 00
      E 624 90 26 64
      E 336 80 26 00
      E 144 90 24 6e
      E 336 80 24 00
      E 1104 90 26 69
      E 336 80 26 00
      E 624 90 24 5f
      E 336 80 24 00
      E 624 90 26 64
      E 336 80 26 00
      E 144 90 24 6e
      E 336 80 24 00
      E 1104 90 26 69
      E 336 80 26 00
      E 624 90 24 5f
      E 336 80 24 00
      E 624 90 26 64
      E 336 80 26 00
      E 144 90 24 6e
      E 336 80 24 00
      E 1104 90 26 69
      E 336 80 26 00
      E 624 90 24 5f
      E 336 80 24 00
      E 624 90 26 64
      E 336 80 26 00
      E 144 90 24 6e
      E 336 80 24 00
      E 1104 90 26 69
      E 336 80 26 00
      E 624 90 24 5f
      E 336 80 24 00
      E 624 90 26 64
      E 336 80 26 00
      E 144 90 24 6e
      E 336 80 24 00
      E 1104 90 26 69
      E 336 80 26 00
      E 624 90 24 5f
      E 336 80 24 00
      E 624 90 26 64
      E 336 80 26 00
      E 144 90 24 6e
      E 336 80 24 00
      E 1104 90 26 69
      E 336 80 26 00
      E 624 90 24 5f
      E 336 80 24 00
      E 624 90 26 64
      E 336 80 26 00
      E 144 90 24 6e
      E 336 80 24 00
      E 1104 90 26 69
      E 336 80 26 00
      E 624 90 24 5f
      E 336 80 24 00
      E 624 90 26 64
      E 336 80 26 00
      E 144 90 24 6e
      E 336 80 24 00
      E 1104 90 26 69
      E 336 80 26 00
      E 624 90 24 5f
      E 336 80 24 00
      E 624 90 26 64
      E 336 80 26 00
      E 144 b0 7b 00
        CCEVT -1 0 0
      >
    >
    <ITEM
      POSITION 50.823529
      SNAPOFFS 0
      LENGTH 22.588235
      LOOP 0
      ALLTAKES 0
      FADEIN 1 0 0 1 0 0 0
      FADEOUT 1 0 0 1 0 0 0
      MUTE 0 0
      SEL 0
      IGUID {C7448055-D761-4DA0-8B93-29C2D780CA5F}
      IID 1
      NAME "Verse 2"
      VOLPAN 1 0 1 -1
      SOFFS 0
      PLAYRATE 1 1 0 -1 0 0.0025
      CHANMODE 0
      GUID {8C7FD6EC-800F-4647-95B1-A967C46CD83B}
      <SOURCE MIDI
        HASDATA 1 960 QN
        CCINTERP 32
        POOLEDEVTS {CC8163E2-2128-4791-A3B0-D8AF7D949BD5}
        LAST_REC_LAUNCHQUANT 0
      E 0 90 24 6e
      E 336 80 24 00
      E 1104 90 26 69
      E 336 80 26 00
      E 624 90 24 5f
      E 336 80 24 00
      E 624 90 26 64
      E 336 80 26 00
      E 144 90 24 6e
      E 336 80 24 00
      E 1104 90 26 69
      E 336 80 26 00
      E 624 90 24 5f
      E 336 80 24 00
      E 624 90 26 64
      E 336 80 26 00
      E 144 90 24 6e
      E 336 80 24 00
      E 1104 90 26 69
      E 336 80 26 00
      E 624 90 24 5f
      E 336 80 24 00
      E 624 90 26 64
      E 336 80 26 00
      E 144 90 24 6e
      E 336 80 24 00
      E 1104 90 26 69
      E 336 80 26 00
      E 624 90 24 5f
      E 336 80 24 00
      E 624 90 26 64
      E 336 80 26 00
      E 144 90 24 6e
      E 336 80 24 00
      E 1104 90 26 69
      E 336 80 26 00
      E 624 90 24 5f
      E 336 80 24 00
      E 624 90 26 64
      E 336 80 26 00
      E 144 90 24 6e
      E 336 80 24 00
      E 1104 90 26 69
      E 336 80 26 00
      E 624 90 24 5f
      E 336 80 24 00
      E 624 90 26 64
      E 336 80 26 00
      E 144 90 24 6e
      E 336 80 24 00
      E 1104 90 26 69
      E 336 80 26 00
      E 624 90 24 5f
      E 336 80 24 00
      E 624 90 26 64
      E 336 80 26 00
      E 144 90 24 6e
      E 336 80 24 00
      E 1104 90 26 69
      E 336 80 26 00
      E 624 90 24 5f
      E 336 80 24 00
      E 624 90 26 64
      E 336 80 26 00
      E 144 90 24 6e
      E 336 80 24 00
      E 1104 90 26 69
      E 336 80 26 00
      E 624 90 24 5f
      E 336 80 24 00
      E 624 90 26 64
      E 336 80 26 00
      E 144 90 24 6e
      E 336 80 24 00
      E 1104 90 26 69
      E 336 80 26 00
      E 624 90 24 5f
      E 336 80 24 00
      E 624 90 26 64
      E 336 80 26 00
      E 144 90 24 6e
      E 336 80 24 00
      E 1104 90 26 69
      E 336 80 26 00
      E 624 90 24 5f
      E 336 80 24 00
      E 624 90 26 64
      E 336 80 26 00
      E 144 90 24 6e
      E 336 80 24 00
      E 1104 90 26 69
      E 336 80 26 00
      E 624 90 24 5f
      E 336 80 24 00
      E 624 90 26 64
      E 336 80 26 00
      E 144 90 24 6e
      E 336 80 24 00
      E 1104 90 26 69
      E 336 80 26 00
      E 624 90 24 5f
      E 336 80 24 00
      E 624 90 26 64
      E 336 80 26 00
      E 144 90 24 6e
      E 336 80 24 00
      E 1104 90 26 69
      E 336 80 26 00
      E 624 90 24 5f
      E 336 80 24 00
      E 624 90 26 64
      E 336 80 26 00
      E 144 90 24 6e
      E 336 80 24 00
      E 1104 90 26 69
      E 336 80 26 00
      E 624 90 24 5f
      E 336 80 24 00
      E 624 90 26 64
      E 336 80 26 00
      E 144 90 24 6e
      E 336 80 24 00
      E 1104 90 26 69
      E 336 80 26 00
      E 624 90 24 5f
      E 336 80 24 00
      E 624 90 26 64
      E 336 80 26 00
      E 144 b0 7b 00
        CCEVT -1 0 0
      >
    >
    <ITEM
      POSITION 73.411765
      SNAPOFFS 0
      LENGTH 11.294118
      LOOP 0
      ALLTAKES 0
      FADEIN 1 0 0 1 0 0 0
      FADEOUT 1 0 0 1 0 0 0
      MUTE 0 0
      SEL 0
      IGUID {70ADB4F2-211C-4B8B-B202-3DC5FD0384A3}
      IID 1
      NAME "Bridge"
      VOLPAN 1 0 1 -1
      SOFFS 0
      PLAYRATE 1 1 0 -1 0 0.0025
      CHANMODE 0
      GUID {341E2102-11BC-445D-996E-0E00A4EE242B}
      <SOURCE MIDI
        HASDATA 1 960 QN
        CCINTERP 32
        POOLEDEVTS {B334B7FD-AC2C-433E-8FD7-8E85CE041AAA}
        LAST_REC_LAUNCHQUANT 0
      E 0 90 24 5a
      E 336 80 24 00
      E 1584 90 26 50
      E 336 80 26 00
      E 1584 90 24 5a
      E 336 80 24 00
      E 1584 90 26 50
      E 336 80 26 00
      E 1584 90 24 5a
      E 336 80 24 00
      E 1584 90 26 50
      E 336 80 26 00
      E 1584 90 24 5a
      E 336 80 24 00
      E 1584 90 26 50
      E 336 80 26 00
      E 1584 90 24 5a
      E 336 80 24 00
      E 1584 90 26 50
      E 336 80 26 00
      E 1584 90 24 5a
      E 336 80 24 00
      E 1584 90 26 50
      E 336 80 26 00
      E 1584 90 24 5a
      E 336 80 24 00
      E 1584 90 26 50
      E 336 80 26 00
      E 1584 90 24 5a
      E 336 80 24 00
      E 1584 90 26 50
      E 336 80 26 00
      E 1584 b0 7b 00
        CCEVT -1 0 0
      >
    >
    <ITEM
      POSITION 84.705882
      SNAPOFFS 0
      LENGTH 22.588235
      LOOP 0
      ALLTAKES 0
      FADEIN 1 0 0 1 0 0 0
      FADEOUT 1 0 0 1 0 0 0
      MUTE 0 0
      SEL 0
      IGUID {3480AF8D-63C7-4F74-97B9-9920B3F30EDB}
      IID 1
      NAME "Chorus 2"
      VOLPAN 1 0 1 -1
      SOFFS 0
      PLAYRATE 1 1 0 -1 0 0.0025
      CHANMODE 0
      GUID {E4EC196A-081C-4D2E-AD36-7EC377656474}
      <SOURCE MIDI
        HASDATA 1 960 QN
        CCINTERP 32
        POOLEDEVTS {989D06CF-02AA-4782-9CF7-9D10E5AD9069}
        LAST_REC_LAUNCHQUANT 0
      E 0 90 24 6e
      E 336 80 24 00
      E 1104 90 26 69
      E 336 80 26 00
      E 624 90 24 5f
      E 336 80 24 00
      E 624 90 26 64
      E 336 80 26 00
      E 144 90 24 6e
      E 336 80 24 00
      E 1104 90 26 69
      E 336 80 26 00
      E 624 90 24 5f
      E 336 80 24 00
      E 624 90 26 64
      E 336 80 26 00
      E 144 90 24 6e
      E 336 80 24 00
      E 1104 90 26 69
      E 336 80 26 00
      E 624 90 24 5f
      E 336 80 24 00
      E 624 90 26 64
      E 336 80 26 00
      E 144 90 24 6e
      E 336 80 24 00
      E 1104 90 26 69
      E 336 80 26 00
      E 624 90 24 5f
      E 336 80 24 00
      E 624 90 26 64
      E 336 80 26 00
      E 144 90 24 6e
      E 336 80 24 00
      E 1104 90 26 69
      E 336 80 26 00
      E 624 90 24 5f
      E 336 80 24 00
      E 624 90 26 64
      E 336 80 26 00
      E 144 90 24 6e
      E 336 80 24 00
      E 1104 90 26 69
      E 336 80 26 00
      E 624 90 24 5f
      E 336 80 24 00
      E 624 90 26 64
      E 336 80 26 00
      E 144 90 24 6e
      E 336 80 24 00
      E 1104 90 26 69
      E 336 80 26 00
      E 624 90 24 5f
      E 336 80 24 00
      E 624 90 26 64
      E 336 80 26 00
      E 144 90 24 6e
      E 336 80 24 00
      E 1104 90 26 69
      E 336 80 26 00
      E 624 90 24 5f
      E 336 80 24 00
      E 624 90 26 64
      E 336 80 26 00
      E 144 90 24 6e
      E 336 80 24 00
      E 1104 90 26 69
      E 336 80 26 00
      E 624 90 24 5f
      E 336 80 24 00
      E 624 90 26 64
      E 336 80 26 00
      E 144 90 24 6e
      E 336 80 24 00
      E 1104 90 26 69
      E 336 80 26 00
      E 624 90 24 5f
      E 336 80 24 00
      E 624 90 26 64
      E 336 80 26 00
      E 144 90 24 6e
      E 336 80 24 00
      E 1104 90 26 69
      E 336 80 26 00
      E 624 90 24 5f
      E 336 80 24 00
      E 624 90 26 64
      E 336 80 26 00
      E 144 90 24 6e
      E 336 80 24 00
      E 1104 90 26 69
      E 336 80 26 00
      E 624 90 24 5f
      E 336 80 24 00
      E 624 90 26 64
      E 336 80 26 00
      E 144 90 24 6e
      E 336 80 24 00
      E 1104 90 26 69
      E 336 80 26 00
      E 624 90 24 5f
      E 336 80 24 00
      E 624 90 26 64
      E 336 80 26 00
      E 144 90 24 6e
      E 336 80 24 00
      E 1104 90 26 69
      E 336 80 26 00
      E 624 90 24 5f
      E 336 80 24 00
      E 624 90 26 64
      E 336 80 26 00
      E 144 90 24 6e
      E 336 80 24 00
      E 1104 90 26 69
      E 336 80 26 00
      E 624 90 24 5f
      E 336 80 24 00
      E 624 90 26 64
      E 336 80 26 00
      E 144 90 24 6e
      E 336 80 24 00
      E 1104 90 26 69
      E 336 80 26 00
      E 624 90 24 5f
      E 336 80 24 00
      E 624 90 26 64
      E 336 80 26 00
      E 144 b0 7b 00
        CCEVT -1 0 0
      >
    >
    <ITEM
      POSITION 107.294118
      SNAPOFFS 0
      LENGTH 11.294118
      LOOP 0
      ALLTAKES 0
      FADEIN 1 0 0 1 0 0 0
      FADEOUT 1 0 0 1 0 0 0
      MUTE 0 0
      SEL 0
      IGUID {8A6684ED-4D19-4270-A34D-1690DBEBE994}
      IID 1
      NAME "Outro"
      VOLPAN 1 0 1 -1
      SOFFS 0
      PLAYRATE 1 1 0 -1 0 0.0025
      CHANMODE 0
      GUID {7627F535-04E1-43D9-82F3-44DF1FC1BE22}
      <SOURCE MIDI
        HASDATA 1 960 QN
        CCINTERP 32
        POOLEDEVTS {F6F3082E-6493-4C80-BF3C-A4099F460029}
        LAST_REC_LAUNCHQUANT 0
      E 0 90 24 6e
      E 336 80 24 00
      E 1104 90 26 69
      E 336 80 26 00
      E 624 90 24 5f
      E 336 80 24 00
      E 624 90 26 64
      E 336 80 26 00
      E 144 90 24 6e
      E 336 80 24 00
      E 1104 90 26 69
      E 336 80 26 00
      E 624 90 24 5f
      E 336 80 24 00
      E 624 90 26 64
      E 336 80 26 00
      E 144 90 24 6e
      E 336 80 24 00
      E 1104 90 26 69
      E 336 80 26 00
      E 624 90 24 5f
      E 336 80 24 00
      E 624 90 26 64
      E 336 80 26 00
      E 144 90 24 6e
      E 336 80 24 00
      E 1104 90 26 69
      E 336 80 26 00
      E 624 90 24 5f
      E 336 80 24 00
      E 624 90 26 64
      E 336 80 26 00
      E 144 90 24 6e
      E 336 80 24 00
      E 1104 90 26 69
      E 336 80 26 00
      E 624 90 24 5f
      E 336 80 24 00
      E 624 90 26 64
      E 336 80 26 00
      E 144 90 24 6e
      E 336 80 24 00
      E 1104 90 26 69
      E 336 80 26 00
      E 624 90 24 5f
      E 336 80 24 00
      E 624 90 26 64
      E 336 80 26 00
      E 144 90 24 6e
      E 336 80 24 00
      E 1104 90 26 69
      E 336 80 26 00
      E 624 90 24 5f
      E 336 80 24 00
      E 624 90 26 64
      E 336 80 26 00
      E 144 90 24 6e
      E 336 80 24 00
      E 1104 90 26 69
      E 336 80 26 00
      E 624 90 24 5f
      E 336 80 24 00
      E 624 90 26 64
      E 336 80 26 00
      E 144 b0 7b 00
        CCEVT -1 0 0
      >
    >

  >
>